<svg width="41" height="40" viewBox="0 0 41 40" fill="none" xmlns="http://www.w3.org/2000/svg">
<path d="M17.1592 9.1802L18.1506 11.9333C19.2518 14.9889 21.658 17.3951 24.7136 18.4963L27.4667 19.4877C27.7149 19.5778 27.7149 19.9297 27.4667 20.0186L24.7136 21.0099C21.658 22.1112 19.2518 24.5174 18.1506 27.5729L17.1592 30.3261C17.0691 30.5742 16.7173 30.5742 16.6284 30.3261L15.637 27.5729C14.5358 24.5174 12.1296 22.1112 9.07399 21.0099L6.32088 20.0186C6.07273 19.9284 6.07273 19.5766 6.32088 19.4877L9.07399 18.4963C12.1296 17.3951 14.5358 14.9889 15.637 11.9333L16.6284 9.1802C16.7173 8.93082 17.0691 8.93082 17.1592 9.1802Z" fill="white"/>
<path d="M29.5519 2.56412L30.0544 3.95796C30.6124 5.50489 31.8309 6.72341 33.3778 7.28144L34.7717 7.78392C34.8976 7.8296 34.8976 8.00737 34.7717 8.05305L33.3778 8.55553C31.8309 9.11356 30.6124 10.3321 30.0544 11.879L29.5519 13.2728C29.5062 13.3988 29.3284 13.3988 29.2827 13.2728L28.7803 11.879C28.2222 10.3321 27.0037 9.11356 25.4568 8.55553L24.063 8.05305C23.937 8.00737 23.937 7.8296 24.063 7.78392L25.4568 7.28144C27.0037 6.72341 28.2222 5.50489 28.7803 3.95796L29.2827 2.56412C29.3284 2.43696 29.5074 2.43696 29.5519 2.56412Z" fill="white"/>
<path d="M29.5519 26.2346L30.0544 27.6284C30.6124 29.1753 31.8309 30.3939 33.3778 30.9519L34.7717 31.4544C34.8976 31.5001 34.8976 31.6778 34.7717 31.7235L33.3778 32.226C31.8309 32.784 30.6124 34.0025 30.0544 35.5495L29.5519 36.9433C29.5062 37.0692 29.3284 37.0692 29.2827 36.9433L28.7803 35.5495C28.2222 34.0025 27.0037 32.784 25.4568 32.226L24.063 31.7235C23.937 31.6778 23.937 31.5001 24.063 31.4544L25.4568 30.9519C27.0037 30.3939 28.2222 29.1753 28.7803 27.6284L29.2827 26.2346C29.3284 26.1087 29.5074 26.1087 29.5519 26.2346Z" fill="white"/>
</svg>
