<svg width="26" height="4" viewBox="0 0 26 4" fill="none" xmlns="http://www.w3.org/2000/svg">
<g id="button-options">
<path id="Vector" d="M10 2C10 2.53043 9.78929 3.03914 9.41421 3.41421C9.03914 3.78929 8.53043 4 8 4C7.46957 4 6.96086 3.78929 6.58579 3.41421C6.21071 3.03914 6 2.53043 6 2C6 1.46957 6.21071 0.960858 6.58579 0.585785C6.96086 0.210713 7.46957 -8.09991e-07 8 -7.86805e-07C8.53043 -7.63619e-07 9.03914 0.210713 9.41421 0.585785C9.78929 0.960858 10 1.46957 10 2ZM18 2C18 2.53043 17.7893 3.03914 17.4142 3.41421C17.0391 3.78929 16.5304 4 16 4C15.4696 4 14.9609 3.78929 14.5858 3.41421C14.2107 3.03914 14 2.53043 14 2C14 1.46957 14.2107 0.960858 14.5858 0.585786C14.9609 0.210713 15.4696 -4.603e-07 16 -4.37114e-07C16.5304 -4.13928e-07 17.0391 0.210713 17.4142 0.585786C17.7893 0.960859 18 1.46957 18 2ZM26 2C26 2.53043 25.7893 3.03914 25.4142 3.41421C25.0391 3.78929 24.5304 4 24 4C23.4696 4 22.9609 3.78929 22.5858 3.41421C22.2107 3.03914 22 2.53043 22 2C22 1.46957 22.2107 0.960859 22.5858 0.585786C22.9609 0.210713 23.4696 -1.10609e-07 24 -8.74228e-08C24.5304 -6.42368e-08 25.0391 0.210713 25.4142 0.585786C25.7893 0.960859 26 1.46957 26 2Z" fill="white"/>
</g>
</svg>
