<svg xmlns="http://www.w3.org/2000/svg" width="32" height="32" viewBox="0 0 32 32" fill="none">
  <g clip-path="url(#clip0_796_74444)">
    <path d="M16 5.85L6.20703 12.9766L9.94766 24.5078H22.0525L25.793 12.9766L16 5.85Z" fill="#7AFFD5"/>
    <path d="M15.9982 31.5352L25.1997 28.8504L22.0507 24.5063H9.94587L6.79688 28.8504L15.9982 31.5352Z" fill="#15AA78"/>
    <path d="M15.9982 31.5352L25.1997 28.8504L22.0507 24.5063H9.94587L6.79688 28.8504L15.9982 31.5352Z" fill="#15AA78"/>
    <path d="M15.9982 29.7093L6.79688 28.8504L15.9982 31.5352L25.1997 28.8504L15.9982 29.7093Z" fill="#13966A"/>
    <path d="M6.98184 3.72291L1.11328 11.3122L6.21003 12.9727L16.003 5.84603L16.0014 0.477656L6.98184 3.72291Z" fill="#1EE3A5"/>
    <path d="M25.0212 3.719L30.8898 11.3083L25.7931 12.9688L16 5.84212L16.0016 0.47375L25.0212 3.719Z" fill="#36FFC0"/>
    <path d="M30.601 20.9113L25.2037 28.8438L22.0547 24.4997L25.8022 12.9708L30.901 11.3165L30.601 20.9113Z" fill="#1EE3A5"/>
    <path d="M30.9004 11.3165L28.7278 20.3926L25.2031 28.8438L30.6004 20.9113L30.9004 11.3165Z" fill="#1CD198"/>
    <path d="M1.40541 20.9113L6.80278 28.8438L9.95178 24.4998L6.20422 12.9708L1.10547 11.3165L1.40541 20.9113Z" fill="#36FFC0"/>
    <mask id="mask0_796_74444" style="mask-type:luminance" maskUnits="userSpaceOnUse" x="0" y="0" width="33" height="33">
      <path d="M0.0078125 0.00781441H32.0078V32.0078H0.0078125V0.00781441Z" fill="white"/>
    </mask>
    <g mask="url(#mask0_796_74444)">
      <path d="M16.0022 31.5391L25.2036 28.8543L22.0546 24.5103H9.94978L6.80078 28.8543L16.0022 31.5391Z" stroke="black" stroke-width="0.9375" stroke-miterlimit="10" stroke-linecap="round" stroke-linejoin="round"/>
      <path d="M11.8596 8.86806L16.0069 5.84994L16.0054 0.481562L6.98575 3.72681L1.11719 11.3161L6.21394 12.9766L9.859 10.324" stroke="black" stroke-width="0.9375" stroke-miterlimit="10" stroke-linecap="round" stroke-linejoin="round"/>
      <path d="M16.0094 0.47375L25.029 3.719L30.8976 11.3083L25.8009 12.9688L16.0078 5.84212" stroke="black" stroke-width="0.9375" stroke-miterlimit="10" stroke-linecap="round" stroke-linejoin="round"/>
    </g>
    <path d="M27.3771 25.6488L25.2031 28.8438" stroke="black" stroke-width="0.9375" stroke-miterlimit="10" stroke-linecap="round" stroke-linejoin="round"/>
    <mask id="mask1_796_74444" style="mask-type:luminance" maskUnits="userSpaceOnUse" x="0" y="0" width="33" height="33">
      <path d="M0.0078125 0.00781441H32.0078V32.0078H0.0078125V0.00781441Z" fill="white"/>
    </mask>
    <g mask="url(#mask1_796_74444)">
      <path d="M30.8996 11.3142L30.5996 20.9091L28.6719 23.7422" stroke="black" stroke-width="0.9375" stroke-miterlimit="10" stroke-linecap="round" stroke-linejoin="round"/>
    </g>
    <path d="M22.0547 24.4961L25.8022 12.9672" stroke="black" stroke-width="0.9375" stroke-miterlimit="10" stroke-linecap="round" stroke-linejoin="round"/>
    <path d="M9.95459 24.5L6.20703 12.9711" stroke="black" stroke-width="0.9375" stroke-miterlimit="10" stroke-linecap="round" stroke-linejoin="round"/>
    <mask id="mask2_796_74444" style="mask-type:luminance" maskUnits="userSpaceOnUse" x="0" y="0" width="33" height="33">
      <path d="M0.0078125 0.00781441H32.0078V32.0078H0.0078125V0.00781441Z" fill="white"/>
    </mask>
    <g mask="url(#mask2_796_74444)">
      <path d="M1.10938 11.3165L1.40931 20.9113L6.80669 28.8438" stroke="black" stroke-width="0.9375" stroke-miterlimit="10" stroke-linecap="round" stroke-linejoin="round"/>
    </g>
  </g>
  <defs>
    <clipPath id="clip0_796_74444">
      <rect width="32" height="32" fill="white"/>
    </clipPath>
  </defs>
</svg>