<svg width="37" height="37" viewBox="0 0 37 37" fill="none" xmlns="http://www.w3.org/2000/svg">
<path d="M4.625 6.9375C4.625 6.32419 4.86864 5.73599 5.30232 5.30232C5.73599 4.86864 6.32419 4.625 6.9375 4.625H11.5625V6.16667H6.9375C6.73306 6.16667 6.537 6.24788 6.39244 6.39244C6.24788 6.537 6.16667 6.73306 6.16667 6.9375V11.5625H4.625V6.9375ZM10.0208 11.5625C10.0208 11.3581 10.102 11.162 10.2466 11.0174C10.3912 10.8729 10.5872 10.7917 10.7917 10.7917H13.875C14.0794 10.7917 14.2755 10.8729 14.4201 11.0174C14.5646 11.162 14.6458 11.3581 14.6458 11.5625V14.6458C14.6458 14.8503 14.5646 15.0463 14.4201 15.1909C14.2755 15.3355 14.0794 15.4167 13.875 15.4167H10.7917C10.5872 15.4167 10.3912 15.3355 10.2466 15.1909C10.102 15.0463 10.0208 14.8503 10.0208 14.6458V11.5625ZM10.7917 21.5833C10.5872 21.5833 10.3912 21.6645 10.2466 21.8091C10.102 21.9537 10.0208 22.1497 10.0208 22.3542V25.4375C10.0208 25.6419 10.102 25.838 10.2466 25.9826C10.3912 26.1271 10.5872 26.2083 10.7917 26.2083H13.875C14.0794 26.2083 14.2755 26.1271 14.4201 25.9826C14.5646 25.838 14.6458 25.6419 14.6458 25.4375V22.3542C14.6458 22.1497 14.5646 21.9537 14.4201 21.8091C14.2755 21.6645 14.0794 21.5833 13.875 21.5833H10.7917ZM10.7917 20.0417C10.5872 20.0417 10.3912 19.9605 10.2466 19.8159C10.102 19.6713 10.0208 19.4753 10.0208 19.2708C10.0208 19.0664 10.102 18.8703 10.2466 18.7258C10.3912 18.5812 10.5872 18.5 10.7917 18.5C10.9961 18.5 11.1922 18.5812 11.3367 18.7258C11.4813 18.8703 11.5625 19.0664 11.5625 19.2708C11.5625 19.4753 11.4813 19.6713 11.3367 19.8159C11.1922 19.9605 10.9961 20.0417 10.7917 20.0417Z" fill="white"/>
<path d="M11.5612 17.7318C11.5612 17.9362 11.48 18.1323 11.3354 18.2768C11.1909 18.4214 10.9948 18.5026 10.7904 18.5026C10.5859 18.5026 10.3899 18.4214 10.2453 18.2768C10.1007 18.1323 10.0195 17.9362 10.0195 17.7318C10.0195 17.5273 10.1007 17.3313 10.2453 17.1867C10.3899 17.0421 10.5859 16.9609 10.7904 16.9609C10.9948 16.9609 11.1909 17.0421 11.3354 17.1867C11.48 17.3313 11.5612 17.5273 11.5612 17.7318ZM11.5612 17.7318C11.5612 17.5273 11.6424 17.3313 11.787 17.1867C11.9315 17.0421 12.1276 16.9609 12.332 16.9609C12.5365 16.9609 12.7325 17.0421 12.8771 17.1867C13.0217 17.3313 13.1029 17.5273 13.1029 17.7318C13.1029 17.9362 13.0217 18.1323 12.8771 18.2768C12.7325 18.4214 12.5365 18.5026 12.332 18.5026C12.1276 18.5026 11.9315 18.4214 11.787 18.2768C11.6424 18.1323 11.5612 17.9362 11.5612 17.7318ZM13.8737 20.0443C13.6693 20.0443 13.4732 19.9631 13.3286 19.8185C13.1841 19.6739 13.1029 19.4779 13.1029 19.2734C13.1029 19.069 13.1841 18.8729 13.3286 18.7284C13.4732 18.5838 13.6693 18.5026 13.8737 18.5026C14.0781 18.5026 14.2742 18.5838 14.4188 18.7284C14.5633 18.8729 14.6445 19.069 14.6445 19.2734C14.6445 19.4779 14.5633 19.6739 14.4188 19.8185C14.2742 19.9631 14.0781 20.0443 13.8737 20.0443Z" fill="white"/>
<path d="M15.4154 18.5026C15.6198 18.5026 15.8159 18.5838 15.9604 18.7284C16.105 18.8729 16.1862 19.069 16.1862 19.2734C16.1862 19.4779 16.105 19.6739 15.9604 19.8185C15.8159 19.9631 15.6198 20.0443 15.4154 20.0443C15.2109 20.0443 15.0149 19.9631 14.8703 19.8185C14.7257 19.6739 14.6445 19.4779 14.6445 19.2734C14.6445 19.069 14.7257 18.8729 14.8703 18.7284C15.0149 18.5838 15.2109 18.5026 15.4154 18.5026ZM15.4154 18.5026C15.2109 18.5026 15.0149 18.4214 14.8703 18.2768C14.7257 18.1323 14.6445 17.9362 14.6445 17.7318C14.6445 17.5273 14.7257 17.3313 14.8703 17.1867C15.0149 17.0421 15.2109 16.9609 15.4154 16.9609C15.6198 16.9609 15.8159 17.0421 15.9604 17.1867C16.105 17.3313 16.1862 17.5273 16.1862 17.7318C16.1862 17.9362 16.105 18.1323 15.9604 18.2768C15.8159 18.4214 15.6198 18.5026 15.4154 18.5026ZM18.4987 20.0443C18.2943 20.0443 18.0982 19.9631 17.9536 19.8185C17.8091 19.6739 17.7279 19.4779 17.7279 19.2734C17.7279 19.069 17.8091 18.8729 17.9536 18.7284C18.0982 18.5838 18.2943 18.5026 18.4987 18.5026C18.7031 18.5026 18.8992 18.5838 19.0438 18.7284C19.1883 18.8729 19.2695 19.069 19.2695 19.2734C19.2695 19.4779 19.1883 19.6739 19.0438 19.8185C18.8992 19.9631 18.7031 20.0443 18.4987 20.0443Z" fill="white"/>
<path d="M19.2708 20.8151C19.2708 20.6107 19.1896 20.4146 19.0451 20.27C18.9005 20.1255 18.7044 20.0443 18.5 20.0443C18.2956 20.0443 18.0995 20.1255 17.9549 20.27C17.8104 20.4146 17.7292 20.6107 17.7292 20.8151C17.7292 20.6626 17.684 20.5136 17.5993 20.3869C17.5146 20.2601 17.3942 20.1613 17.2533 20.1029C17.1125 20.0446 16.9575 20.0293 16.808 20.0591C16.6584 20.0888 16.5211 20.1622 16.4133 20.27C16.3055 20.3778 16.2321 20.5152 16.2023 20.6647C16.1726 20.8142 16.1878 20.9692 16.2462 21.1101C16.3045 21.2509 16.4033 21.3713 16.5301 21.456C16.6568 21.5407 16.8059 21.5859 16.9583 21.5859C16.7539 21.5859 16.5578 21.6671 16.4133 21.8117C16.2687 21.9563 16.1875 22.1523 16.1875 22.3568C16.1875 22.5612 16.2687 22.7573 16.4133 22.9018C16.5578 23.0464 16.7539 23.1276 16.9583 23.1276C17.1628 23.1276 17.3588 23.0464 17.5034 22.9018C17.648 22.7573 17.7292 22.5612 17.7292 22.3568C17.7292 22.1523 17.648 21.9563 17.5034 21.8117C17.3588 21.6671 17.1628 21.5859 16.9583 21.5859C17.1628 21.5859 17.3588 21.5047 17.5034 21.3602C17.648 21.2156 17.7292 21.0195 17.7292 20.8151C17.7292 21.0195 17.8104 21.2156 17.9549 21.3602C18.0995 21.5047 18.2956 21.5859 18.5 21.5859C18.7044 21.5859 18.9005 21.5047 19.0451 21.3602C19.1896 21.2156 19.2708 21.0195 19.2708 20.8151ZM19.2708 20.8151C19.2708 20.6107 19.352 20.4146 19.4966 20.27C19.6412 20.1255 19.8372 20.0443 20.0417 20.0443C20.2461 20.0443 20.4422 20.1255 20.5867 20.27C20.7313 20.4146 20.8125 20.6107 20.8125 20.8151C20.8125 21.0195 20.7313 21.2156 20.5867 21.3602C20.4422 21.5047 20.2461 21.5859 20.0417 21.5859C19.8372 21.5859 19.6412 21.5047 19.4966 21.3602C19.352 21.2156 19.2708 21.0195 19.2708 20.8151ZM19.2708 17.7318C19.2708 17.9362 19.1896 18.1323 19.0451 18.2768C18.9005 18.4214 18.7044 18.5026 18.5 18.5026C18.2956 18.5026 18.0995 18.4214 17.9549 18.2768C17.8104 18.1323 17.7292 17.9362 17.7292 17.7318C17.7292 17.5273 17.8104 17.3313 17.9549 17.1867C18.0995 17.0421 18.2956 16.9609 18.5 16.9609C18.7044 16.9609 18.9005 17.0421 19.0451 17.1867C19.1896 17.3313 19.2708 17.5273 19.2708 17.7318ZM19.2708 17.7318C19.2708 17.5273 19.352 17.3313 19.4966 17.1867C19.6412 17.0421 19.8372 16.9609 20.0417 16.9609C20.2461 16.9609 20.4422 17.0421 20.5867 17.1867C20.7313 17.3313 20.8125 17.5273 20.8125 17.7318C20.8125 17.9362 20.7313 18.1323 20.5867 18.2768C20.4422 18.4214 20.2461 18.5026 20.0417 18.5026C19.8372 18.5026 19.6412 18.4214 19.4966 18.2768C19.352 18.1323 19.2708 17.9362 19.2708 17.7318Z" fill="white"/>
<path d="M18.5 15.4141C18.7044 15.4141 18.9005 15.4953 19.0451 15.6398C19.1896 15.7844 19.2708 15.9805 19.2708 16.1849C19.2708 16.3893 19.1896 16.5854 19.0451 16.73C18.9005 16.8745 18.7044 16.9557 18.5 16.9557C18.2956 16.9557 18.0995 16.8745 17.9549 16.73C17.8104 16.5854 17.7292 16.3893 17.7292 16.1849C17.7292 15.9805 17.8104 15.7844 17.9549 15.6398C18.0995 15.4953 18.2956 15.4141 18.5 15.4141ZM18.5 13.8724C18.6525 13.8724 18.8015 13.8272 18.9283 13.7425C19.055 13.6578 19.1538 13.5374 19.2122 13.3965C19.2705 13.2557 19.2858 13.1007 19.256 12.9512C19.2263 12.8017 19.1529 12.6643 19.0451 12.5565C18.9373 12.4487 18.7999 12.3753 18.6504 12.3455C18.5009 12.3158 18.3459 12.3311 18.205 12.3894C18.0642 12.4477 17.9438 12.5465 17.8591 12.6733C17.7744 12.8001 17.7292 12.9491 17.7292 13.1016C17.7292 12.8971 17.648 12.7011 17.5034 12.5565C17.3588 12.4119 17.1628 12.3307 16.9583 12.3307C17.1628 12.3307 17.3588 12.2495 17.5034 12.105C17.648 11.9604 17.7292 11.7643 17.7292 11.5599C17.7292 11.3555 17.648 11.1594 17.5034 11.0148C17.3588 10.8703 17.1628 10.7891 16.9583 10.7891C16.7539 10.7891 16.5578 10.8703 16.4133 11.0148C16.2687 11.1594 16.1875 11.3555 16.1875 11.5599C16.1875 11.7643 16.2687 11.9604 16.4133 12.105C16.5578 12.2495 16.7539 12.3307 16.9583 12.3307C16.8059 12.3307 16.6568 12.3759 16.5301 12.4606C16.4033 12.5453 16.3045 12.6657 16.2462 12.8066C16.1878 12.9474 16.1726 13.1024 16.2023 13.2519C16.2321 13.4015 16.3055 13.5388 16.4133 13.6466C16.5211 13.7544 16.6584 13.8278 16.808 13.8576C16.9575 13.8873 17.1125 13.8721 17.2533 13.8137C17.3942 13.7554 17.5146 13.6566 17.5993 13.5298C17.684 13.4031 17.7292 13.254 17.7292 13.1016C17.7292 13.306 17.8104 13.5021 17.9549 13.6466C18.0995 13.7912 18.2956 13.8724 18.5 13.8724Z" fill="white"/>
<path d="M18.5 13.875C18.7044 13.875 18.9005 13.9562 19.0451 14.1008C19.1896 14.2453 19.2708 14.4414 19.2708 14.6458C19.2708 14.8503 19.1896 15.0463 19.0451 15.1909C18.9005 15.3355 18.7044 15.4167 18.5 15.4167C18.2956 15.4167 18.0995 15.3355 17.9549 15.1909C17.8104 15.0463 17.7292 14.8503 17.7292 14.6458C17.7292 14.4414 17.8104 14.2453 17.9549 14.1008C18.0995 13.9562 18.2956 13.875 18.5 13.875ZM17.7292 16.1875C17.7292 16.3919 17.648 16.588 17.5034 16.7326C17.3588 16.8771 17.1628 16.9583 16.9583 16.9583C16.7539 16.9583 16.5578 16.8771 16.4133 16.7326C16.2687 16.588 16.1875 16.3919 16.1875 16.1875C16.1875 15.9831 16.2687 15.787 16.4133 15.6424C16.5578 15.4979 16.7539 15.4167 16.9583 15.4167C17.1628 15.4167 17.3588 15.4979 17.5034 15.6424C17.648 15.787 17.7292 15.9831 17.7292 16.1875ZM18.5 24.6667C18.2956 24.6667 18.0995 24.5855 17.9549 24.4409C17.8104 24.2963 17.7292 24.1003 17.7292 23.8958C17.7292 23.6914 17.8104 23.4953 17.9549 23.3508C18.0995 23.2062 18.2956 23.125 18.5 23.125C18.7044 23.125 18.9005 23.2062 19.0451 23.3508C19.1896 23.4953 19.2708 23.6914 19.2708 23.8958C19.2708 24.1003 19.1896 24.2963 19.0451 24.4409C18.9005 24.5855 18.7044 24.6667 18.5 24.6667Z" fill="white"/>
<path d="M17.7292 25.4401C17.7292 25.2357 17.8104 25.0396 17.9549 24.895C18.0995 24.7505 18.2956 24.6693 18.5 24.6693C18.7044 24.6693 18.9005 24.7505 19.0451 24.895C19.1896 25.0396 19.2708 25.2357 19.2708 25.4401C19.2708 25.6445 19.1896 25.8406 19.0451 25.9852C18.9005 26.1297 18.7044 26.2109 18.5 26.2109C18.2956 26.2109 18.0995 26.1297 17.9549 25.9852C17.8104 25.8406 17.7292 25.6445 17.7292 25.4401ZM17.7292 25.4401C17.7292 25.6445 17.648 25.8406 17.5034 25.9852C17.3588 26.1297 17.1628 26.2109 16.9583 26.2109C16.7539 26.2109 16.5578 26.1297 16.4133 25.9852C16.2687 25.8406 16.1875 25.6445 16.1875 25.4401C16.1875 25.2357 16.2687 25.0396 16.4133 24.895C16.5578 24.7505 16.7539 24.6693 16.9583 24.6693C17.1628 24.6693 17.3588 24.7505 17.5034 24.895C17.648 25.0396 17.7292 25.2357 17.7292 25.4401ZM19.2708 23.8984C19.2708 23.694 19.352 23.4979 19.4966 23.3534C19.6412 23.2088 19.8372 23.1276 20.0417 23.1276C20.2461 23.1276 20.4422 23.2088 20.5867 23.3534C20.7313 23.4979 20.8125 23.694 20.8125 23.8984C20.8125 24.1029 20.7313 24.2989 20.5867 24.4435C20.4422 24.5881 20.2461 24.6693 20.0417 24.6693C19.8372 24.6693 19.6412 24.5881 19.4966 24.4435C19.352 24.2989 19.2708 24.1029 19.2708 23.8984ZM20.8125 19.2734C20.8125 19.4779 20.8937 19.6739 21.0383 19.8185C21.1828 19.9631 21.3789 20.0443 21.5833 20.0443C21.7878 20.0443 21.9838 19.9631 22.1284 19.8185C22.273 19.6739 22.3542 19.4779 22.3542 19.2734C22.3542 19.069 22.273 18.8729 22.1284 18.7284C21.9838 18.5838 21.7878 18.5026 21.5833 18.5026C21.3789 18.5026 21.1828 18.5838 21.0383 18.7284C20.8937 18.8729 20.8125 19.069 20.8125 19.2734ZM23.125 18.5026C22.9206 18.5026 22.7245 18.4214 22.5799 18.2768C22.4354 18.1323 22.3542 17.9362 22.3542 17.7318C22.3542 17.5273 22.4354 17.3313 22.5799 17.1867C22.7245 17.0421 22.9206 16.9609 23.125 16.9609C23.3294 16.9609 23.5255 17.0421 23.6701 17.1867C23.8146 17.3313 23.8958 17.5273 23.8958 17.7318C23.8958 17.9362 23.8146 18.1323 23.6701 18.2768C23.5255 18.4214 23.3294 18.5026 23.125 18.5026Z" fill="white"/>
<path d="M24.668 18.5026C24.4635 18.5026 24.2675 18.4214 24.1229 18.2768C23.9783 18.1323 23.8971 17.9362 23.8971 17.7318C23.8971 17.5273 23.9783 17.3313 24.1229 17.1867C24.2675 17.0421 24.4635 16.9609 24.668 16.9609C24.8724 16.9609 25.0685 17.0421 25.213 17.1867C25.3576 17.3313 25.4388 17.5273 25.4388 17.7318C25.4388 17.9362 25.3576 18.1323 25.213 18.2768C25.0685 18.4214 24.8724 18.5026 24.668 18.5026ZM24.668 18.5026C24.8724 18.5026 25.0685 18.5838 25.213 18.7284C25.3576 18.8729 25.4388 19.069 25.4388 19.2734C25.4388 19.4779 25.3576 19.6739 25.213 19.8185C25.0685 19.9631 24.8724 20.0443 24.668 20.0443C24.4635 20.0443 24.2675 19.9631 24.1229 19.8185C23.9783 19.6739 23.8971 19.4779 23.8971 19.2734C23.8971 19.069 23.9783 18.8729 24.1229 18.7284C24.2675 18.5838 24.4635 18.5026 24.668 18.5026ZM23.1263 26.2109C22.9219 26.2109 22.7258 26.1297 22.5812 25.9852C22.4367 25.8406 22.3555 25.6445 22.3555 25.4401C22.3555 25.2357 22.4367 25.0396 22.5812 24.895C22.7258 24.7505 22.9219 24.6693 23.1263 24.6693C23.3307 24.6693 23.5268 24.7505 23.6714 24.895C23.8159 25.0396 23.8971 25.2357 23.8971 25.4401C23.8971 25.6445 23.8159 25.8406 23.6714 25.9852C23.5268 26.1297 23.3307 26.2109 23.1263 26.2109Z" fill="white"/>
<path d="M23.8958 25.4401C23.8958 25.2357 23.977 25.0396 24.1216 24.895C24.2662 24.7505 24.4622 24.6693 24.6667 24.6693C24.8711 24.6693 25.0672 24.7505 25.2117 24.895C25.3563 25.0396 25.4375 25.2357 25.4375 25.4401C25.4375 25.6445 25.3563 25.8406 25.2117 25.9852C25.0672 26.1297 24.8711 26.2109 24.6667 26.2109C24.4622 26.2109 24.2662 26.1297 24.1216 25.9852C23.977 25.8406 23.8958 25.6445 23.8958 25.4401ZM21.5833 23.1276C21.3789 23.1276 21.1828 23.0464 21.0383 22.9018C20.8937 22.7573 20.8125 22.5612 20.8125 22.3568C20.8125 22.1523 20.8937 21.9563 21.0383 21.8117C21.1828 21.6671 21.3789 21.5859 21.5833 21.5859C21.7878 21.5859 21.9838 21.6671 22.1284 21.8117C22.273 21.9563 22.3542 22.1523 22.3542 22.3568C22.3542 22.5612 22.273 22.7573 22.1284 22.9018C21.9838 23.0464 21.7878 23.1276 21.5833 23.1276Z" fill="white"/>
<path d="M23.1263 23.1276C22.9219 23.1276 22.7258 23.0464 22.5812 22.9018C22.4367 22.7573 22.3555 22.5612 22.3555 22.3568C22.3555 22.1523 22.4367 21.9563 22.5812 21.8117C22.7258 21.6671 22.9219 21.5859 23.1263 21.5859C23.3307 21.5859 23.5268 21.6671 23.6714 21.8117C23.8159 21.9563 23.8971 22.1523 23.8971 22.3568C23.8971 22.5612 23.8159 22.7573 23.6714 22.9018C23.5268 23.0464 23.3307 23.1276 23.1263 23.1276Z" fill="white"/>
<path d="M23.8958 22.3542C23.8958 22.1497 23.977 21.9537 24.1216 21.8091C24.2662 21.6645 24.4622 21.5833 24.6667 21.5833C24.8711 21.5833 25.0672 21.6645 25.2117 21.8091C25.3563 21.9537 25.4375 22.1497 25.4375 22.3542C25.4375 22.5586 25.3563 22.7547 25.2117 22.8992C25.0672 23.0438 24.8711 23.125 24.6667 23.125C24.4622 23.125 24.2662 23.0438 24.1216 22.8992C23.977 22.7547 23.8958 22.5586 23.8958 22.3542ZM20.8125 11.5625C20.8125 11.3581 20.8937 11.162 21.0383 11.0174C21.1828 10.8729 21.3789 10.7917 21.5833 10.7917H24.6667C24.8711 10.7917 25.0672 10.8729 25.2117 11.0174C25.3563 11.162 25.4375 11.3581 25.4375 11.5625V14.6458C25.4375 14.8503 25.3563 15.0463 25.2117 15.1909C25.0672 15.3355 24.8711 15.4167 24.6667 15.4167H21.5833C21.3789 15.4167 21.1828 15.3355 21.0383 15.1909C20.8937 15.0463 20.8125 14.8503 20.8125 14.6458V11.5625ZM4.625 30.0625C4.625 30.6758 4.86864 31.264 5.30232 31.6977C5.73599 32.1314 6.32419 32.375 6.9375 32.375H11.5625V30.8333H6.9375C6.73306 30.8333 6.537 30.7521 6.39244 30.6076C6.24788 30.463 6.16667 30.2669 6.16667 30.0625V25.4375H4.625V30.0625ZM32.375 6.9375C32.375 6.32419 32.1314 5.73599 31.6977 5.30232C31.264 4.86864 30.6758 4.625 30.0625 4.625H25.4375V6.16667H30.0625C30.2669 6.16667 30.463 6.24788 30.6076 6.39244C30.7521 6.537 30.8333 6.73306 30.8333 6.9375V11.5625H32.375V6.9375ZM32.375 30.0625C32.375 30.6758 32.1314 31.264 31.6977 31.6977C31.264 32.1314 30.6758 32.375 30.0625 32.375H25.4375V30.8333H30.0625C30.2669 30.8333 30.463 30.7521 30.6076 30.6076C30.7521 30.463 30.8333 30.2669 30.8333 30.0625V25.4375H32.375V30.0625Z" fill="white"/>
</svg>
