<svg id="question" width="16" height="16" viewBox="0 0 16 16" fill="none" xmlns="http://www.w3.org/2000/svg">
<rect width="16" height="16" fill="#5D5A5A"/>
<g id="LOG IN / SING UP">
<path d="M-2014 -238C-2014 -293.229 -1969.23 -338 -1914 -338H1136C1191.23 -338 1236 -293.228 1236 -238V5108C1236 5163.23 1191.23 5208 1136 5208H-1914C-1969.23 5208 -2014 5163.23 -2014 5108V-238Z" fill="#DFDFDF"/>
<path d="M-1914 -337H1136V-339H-1914V-337ZM1235 -238V5108H1237V-238H1235ZM1136 5207H-1914V5209H1136V5207ZM-2013 5108V-238H-2015V5108H-2013ZM-1914 5207C-1968.68 5207 -2013 5162.68 -2013 5108H-2015C-2015 5163.78 -1969.78 5209 -1914 5209V5207ZM1235 5108C1235 5162.68 1190.68 5207 1136 5207V5209C1191.78 5209 1237 5163.78 1237 5108H1235ZM1136 -337C1190.68 -337 1235 -292.676 1235 -238H1237C1237 -293.781 1191.78 -339 1136 -339V-337ZM-1914 -339C-1969.78 -339 -2015 -293.781 -2015 -238H-2013C-2013 -292.676 -1968.68 -337 -1914 -337V-339Z" fill="black" fill-opacity="0.1"/>
<g id="FORGOT PASSWORD" clip-path="url(#clip0_0_1)">
<rect width="393" height="852" transform="translate(-335 -142)" fill="#1E1E1E"/>
<g id="Content">
<g id="Group 124">
<g id="Content_2">
<rect x="-319" y="-30" width="361" height="160" rx="20" fill="#E4C8E6"/>
<g id="Frame 114">
<g id="Tip Badge" filter="url(#filter0_b_0_1)">
<rect x="-10" y="-10" width="36" height="36" rx="18" fill="#FBFAFD"/>
<g id="question_12380403 1" clip-path="url(#clip1_0_1)">
<g id="Group">
<path id="Vector" d="M8 0.5C3.85787 0.5 0.5 3.85787 0.5 8C0.5 9.96887 1.25928 11.7614 2.5 13.0991V15C2.5 15.1327 2.55275 15.2599 2.6466 15.3537C2.74047 15.4475 2.86777 15.5001 3.00045 15.5C4.11045 15.499 5.22027 15.4993 6.33035 15.4997H6.33302C6.8886 15.4998 7.44425 15.5 8 15.5C12.1421 15.5 15.5 12.1421 15.5 8C15.5 6.41918 15.0109 4.9526 14.1758 3.7433C14.0056 3.49673 13.6554 3.47878 13.4435 3.69068C13.2636 3.87065 13.2478 4.1554 13.3903 4.36632C14.0909 5.40363 14.5 6.65403 14.5 8C14.5 11.5898 11.5898 14.5 8 14.5C7.4448 14.5 6.88945 14.4998 6.33402 14.4997H6.33353C5.38913 14.4994 4.44447 14.4991 3.5 14.4996V12.899C3.5 12.7681 3.4487 12.6425 3.35713 12.549C2.2078 11.3762 1.5 9.77125 1.5 8C1.5 4.41015 4.41015 1.5 8 1.5C9.38107 1.5 10.6616 1.93072 11.7144 2.66517C11.9255 2.81238 12.2142 2.7987 12.3961 2.61675C12.6058 2.40706 12.5906 2.06116 12.3491 1.88901C11.1224 1.01445 9.6213 0.5 8 0.5Z" fill="black"/>
<path id="Vector_2" d="M6.25 6.7C6.25 5.76112 7.01112 5 7.95 5H8C8.9641 5 9.75 5.7894 9.75 6.7583C9.75 7.7364 8.95665 8.53333 7.98333 8.53333H7.5C7.22385 8.53333 7 8.7572 7 9.03333V10.5C7 10.7761 7.22385 11 7.5 11C7.77615 11 8 10.7761 8 10.5V9.53327C9.52268 9.52425 10.75 8.27835 10.75 6.7583C10.75 5.24192 9.52117 4 8 4H7.95C6.45882 4 5.25 5.20882 5.25 6.7C5.25 6.97615 5.47385 7.2 5.75 7.2C6.02615 7.2 6.25 6.97615 6.25 6.7Z" fill="black"/>
<path id="Vector_3" d="M8 12C8 12.2761 7.77615 12.5 7.5 12.5C7.22385 12.5 7 12.2761 7 12C7 11.7239 7.22385 11.5 7.5 11.5C7.77615 11.5 8 11.7239 8 12Z" fill="black"/>
</g>
</g>
</g>
</g>
</g>
</g>
</g>
</g>
</g>
<defs>
<filter id="filter0_b_0_1" x="-15" y="-15" width="46" height="46" filterUnits="userSpaceOnUse" color-interpolation-filters="sRGB">
<feFlood flood-opacity="0" result="BackgroundImageFix"/>
<feGaussianBlur in="BackgroundImageFix" stdDeviation="2.5"/>
<feComposite in2="SourceAlpha" operator="in" result="effect1_backgroundBlur_0_1"/>
<feBlend mode="normal" in="SourceGraphic" in2="effect1_backgroundBlur_0_1" result="shape"/>
</filter>
<clipPath id="clip0_0_1">
<rect width="393" height="852" fill="white" transform="translate(-335 -142)"/>
</clipPath>
<clipPath id="clip1_0_1">
<rect width="16" height="16" fill="white"/>
</clipPath>
</defs>
</svg>
