<svg width="8" height="5" viewBox="0 0 8 5" fill="none" xmlns="http://www.w3.org/2000/svg">
<path d="M4 4.21913C3.89533 4.21913 3.80168 4.17919 3.71905 4.09931L0.521184 0.827073C0.485376 0.791266 0.457832 0.751327 0.438552 0.707257C0.419271 0.660432 0.40963 0.610852 0.40963 0.558519C0.40963 0.486904 0.426157 0.422176 0.45921 0.364333C0.492262 0.30649 0.536333 0.261043 0.591421 0.22799C0.649264 0.194937 0.713992 0.178411 0.785607 0.178411C0.890274 0.178411 0.979792 0.214218 1.05416 0.285832L4.21898 3.52088H3.77689L6.94171 0.285832C7.01883 0.214218 7.10835 0.178411 7.21026 0.178411C7.28188 0.178411 7.34523 0.194937 7.40032 0.22799C7.45816 0.261043 7.50361 0.30649 7.53666 0.364333C7.56971 0.422176 7.58624 0.486904 7.58624 0.558519C7.58624 0.660432 7.54905 0.748573 7.47468 0.822942L4.27682 4.09931C4.24101 4.13787 4.19832 4.16817 4.14874 4.1902C4.10191 4.20949 4.05233 4.21913 4 4.21913Z" fill="black"/>
</svg>
