<svg  width="24" height="24" viewBox="0 0 24 24" fill="none" xmlns="http://www.w3.org/2000/svg">
<path id="icon" d="M11.9621 20C10.0414 20 8.35609 19.4107 6.90609 18.232C5.45609 17.0533 4.54075 15.5427 4.16009 13.7C4.11875 13.5527 4.13342 13.4163 4.20409 13.291C4.27475 13.1657 4.38575 13.093 4.53709 13.073C4.67909 13.053 4.80409 13.084 4.91209 13.166C5.01942 13.248 5.09575 13.3647 5.14109 13.516C5.50242 15.1053 6.31775 16.4167 7.58709 17.45C8.85642 18.4833 10.3148 19 11.9621 19C13.9121 19 15.5661 18.321 16.9241 16.963C18.2821 15.605 18.9614 13.9507 18.9621 12C18.9628 10.0493 18.2834 8.395 16.9241 7.037C15.5648 5.679 13.9108 5 11.9621 5C10.9268 5 9.95409 5.21867 9.04409 5.656C8.13409 6.09267 7.33075 6.69433 6.63409 7.461H8.61509C8.75709 7.461 8.87609 7.509 8.97209 7.605C9.06809 7.701 9.11575 7.82 9.11509 7.962C9.11442 8.104 9.06675 8.22267 8.97209 8.318C8.87742 8.41333 8.75842 8.461 8.61509 8.461H5.77009C5.54142 8.461 5.34975 8.38367 5.19509 8.229C5.04042 8.07433 4.96309 7.88267 4.96309 7.654V4.808C4.96309 4.666 5.01109 4.54733 5.10709 4.452C5.20309 4.35667 5.32175 4.30867 5.46309 4.308C5.60442 4.30733 5.72309 4.35533 5.81909 4.452C5.91509 4.54867 5.96309 4.66733 5.96309 4.808V6.696C6.73642 5.84733 7.64242 5.186 8.68109 4.712C9.71975 4.238 10.8134 4.00067 11.9621 4C13.0721 4 14.1118 4.20867 15.0811 4.626C16.0504 5.04333 16.8974 5.61467 17.6221 6.34C18.3468 7.06533 18.9181 7.912 19.3361 8.88C19.7541 9.848 19.9628 10.8877 19.9621 11.999C19.9614 13.1103 19.7528 14.1503 19.3361 15.119C18.9194 16.0877 18.3481 16.935 17.6221 17.661C16.8961 18.387 16.0491 18.958 15.0811 19.374C14.1131 19.79 13.0741 19.9987 11.9621 20ZM12.5191 11.792L15.5191 14.792C15.6124 14.8853 15.6624 15 15.6691 15.136C15.6758 15.2727 15.6258 15.394 15.5191 15.5C15.4124 15.6067 15.2948 15.66 15.1661 15.66C15.0361 15.66 14.9181 15.6067 14.8121 15.5L11.7621 12.45C11.6748 12.3633 11.6124 12.272 11.5751 12.176C11.5378 12.08 11.5191 11.981 11.5191 11.879V7.5C11.5191 7.358 11.5671 7.23933 11.6631 7.144C11.7591 7.048 11.8781 7 12.0201 7C12.1621 7 12.2808 7.048 12.3761 7.144C12.4714 7.24 12.5191 7.35867 12.5191 7.5V11.792Z"/>
</svg>
