<svg xmlns="http://www.w3.org/2000/svg" id="user" width="24" height="25" viewBox="0 0 24 25">
  <path fill-rule="evenodd" clip-rule="evenodd" d="M14.25 1.25C13.4448 1.25 12.6819 1.43127 12 1.75522C11.3181 1.43127 10.5552 1.25 9.75 1.25C6.8505 1.25 4.5 3.6005 4.5 6.5C4.5 9.3995 6.8505 11.75 9.75 11.75C10.5552 11.75 11.3181 11.5687 12 11.2448C12.6819 11.5687 13.4448 11.75 14.25 11.75C17.1495 11.75 19.5 9.3995 19.5 6.5C19.5 3.6005 17.1495 1.25 14.25 1.25ZM14.25 2.75C13.9929 2.75 13.7419 2.77587 13.4994 2.82514C14.4276 3.7721 15 5.06923 15 6.5C15 7.93081 14.4276 9.2279 13.4994 10.1749C13.7419 10.2241 13.9929 10.25 14.25 10.25C16.321 10.25 18 8.57105 18 6.5C18 4.42895 16.321 2.75 14.25 2.75ZM9.75 2.75C7.67895 2.75 6 4.42895 6 6.5C6 8.57105 7.67895 10.25 9.75 10.25C11.8211 10.25 13.5 8.57105 13.5 6.5C13.5 4.42895 11.8211 2.75 9.75 2.75Z" />
  <path fill-rule="evenodd" clip-rule="evenodd" d="M0.75 19.8235C0.75 16.1931 3.69307 13.25 7.32352 13.25H16.6765C20.3069 13.25 23.25 16.1931 23.25 19.8235C23.25 21.9921 21.4921 23.75 19.3235 23.75H11.625C11.2108 23.75 10.875 23.4142 10.875 23C10.875 22.5858 11.2108 22.25 11.625 22.25H14.8235C16.1636 22.25 17.25 21.1636 17.25 19.8235C17.25 17.0215 14.9785 14.75 12.1765 14.75H7.32352C4.52149 14.75 2.25 17.0215 2.25 19.8235C2.25 21.1636 3.33637 22.25 4.67648 22.25H7.875C8.28923 22.25 8.625 22.5858 8.625 23C8.625 23.4142 8.28923 23.75 7.875 23.75H4.67648C2.50794 23.75 0.75 21.9921 0.75 19.8235ZM18.75 19.8235C18.75 17.7806 17.8181 15.9554 16.3562 14.7497L16.3566 14.75H16.6765C19.4785 14.75 21.75 17.0215 21.75 19.8235C21.75 21.1636 20.6636 22.25 19.3235 22.25H17.9107C18.4364 21.5821 18.75 20.7394 18.75 19.8235Z"/>
</svg>