<svg width="6" height="6" viewBox="0 0 6 6" fill="none" xmlns="http://www.w3.org/2000/svg">
<path id="Close Icon" d="M0.0994551 5.90158C0.0540292 5.85868 0.0237453 5.8082 0.00860338 5.75016C-0.00401491 5.69211 -0.00275308 5.63407 0.0123889 5.57603C0.0275308 5.51798 0.0565529 5.46751 0.0994551 5.42461L2.52217 2.99811L0.0994551 0.575394C0.0565529 0.532492 0.0275308 0.482019 0.0123889 0.423975C-0.000229423 0.365931 -0.000229423 0.307886 0.0123889 0.249842C0.0275308 0.191798 0.0565529 0.141325 0.0994551 0.0984227C0.142357 0.0529968 0.192831 0.0239748 0.250875 0.0113565C0.308919 -0.00378549 0.366963 -0.00378549 0.425007 0.0113565C0.485575 0.0239748 0.53731 0.0529968 0.580212 0.0984227L3.00293 2.52114L5.42564 0.0984227C5.46854 0.0529968 5.51901 0.0239748 5.57706 0.0113565C5.6351 -0.00378549 5.69315 -0.00378549 5.75119 0.0113565C5.80923 0.0239748 5.86097 0.0529968 5.9064 0.0984227C5.9493 0.141325 5.97832 0.191798 5.99346 0.249842C6.0086 0.307886 6.0086 0.365931 5.99346 0.423975C5.97832 0.482019 5.9493 0.532492 5.9064 0.575394L3.48368 2.99811L5.9064 5.42461C5.9493 5.46751 5.97706 5.51798 5.98968 5.57603C6.00482 5.63407 6.00482 5.69211 5.98968 5.75016C5.97706 5.8082 5.9493 5.85868 5.9064 5.90158C5.86349 5.947 5.81176 5.97603 5.75119 5.98864C5.69315 6.00379 5.6351 6.00379 5.57706 5.98864C5.51901 5.9735 5.46854 5.94448 5.42564 5.90158L3.00293 3.47886L0.580212 5.90158C0.53731 5.94448 0.486837 5.9735 0.428793 5.98864C0.370748 6.00379 0.312704 6.00379 0.25466 5.98864C0.196616 5.9735 0.144881 5.94448 0.0994551 5.90158Z" fill="black"/>
</svg>
