<svg width="25" height="25" viewBox="0 0 25 25" fill="none" xmlns="http://www.w3.org/2000/svg">
<path d="M19.1891 4.49289C19.5012 4.18076 19.4812 3.66659 19.1247 3.4064C17.2664 2.0503 14.9767 1.25 12.5 1.25C6.28681 1.25 1.25 6.28681 1.25 12.5C1.25 18.7132 6.28681 23.75 12.5 23.75C18.7132 23.75 23.75 18.7132 23.75 12.5C23.75 10.1736 23.0439 8.01223 21.8343 6.21834C21.5811 5.84278 21.0511 5.81285 20.7308 6.13314C20.4631 6.40089 20.4372 6.82366 20.6457 7.13982C21.6598 8.67777 22.25 10.52 22.25 12.5C22.25 17.8848 17.8848 22.25 12.5 22.25C7.11522 22.25 2.75 17.8848 2.75 12.5C2.75 7.11522 7.11522 2.75 12.5 2.75C14.6104 2.75 16.5641 3.42049 18.1599 4.56005C18.4766 4.78618 18.914 4.76799 19.1891 4.49289Z" fill="#A67CF3"/>
<path d="M12.5 7.625C12.0858 7.625 11.75 7.28922 11.75 6.875C11.75 6.46078 12.0858 6.125 12.5 6.125C12.9142 6.125 13.25 6.46078 13.25 6.875C13.25 7.28922 12.9142 7.625 12.5 7.625Z" fill="#A67CF3"/>
<path d="M13.25 17C13.25 17.2071 13.4179 17.375 13.625 17.375H14C14.4142 17.375 14.75 17.7108 14.75 18.125C14.75 18.5392 14.4142 18.875 14 18.875H13.625C12.5895 18.875 11.75 18.0355 11.75 17V10.25C11.75 10.0429 11.5821 9.875 11.375 9.875H11C10.5858 9.875 10.25 9.53922 10.25 9.125C10.25 8.71078 10.5858 8.375 11 8.375H11.375C12.4105 8.375 13.25 9.21448 13.25 10.25V17Z" fill="#A67CF3"/>
</svg>
