<svg width="20" height="20" id="pencil" viewBox="0 0 20 20"  xmlns="http://www.w3.org/2000/svg">
<g clip-path="url(#clip0_1892_12140)">
<path fill-rule="evenodd" clip-rule="evenodd" d="M14.7216 1.42341C15.7861 0.358865 17.5121 0.358865 18.5766 1.42341C19.6411 2.48795 19.6411 4.21391 18.5766 5.27844L10.2998 13.5552C10.2091 13.6459 10.0928 13.7065 9.96649 13.7288L6.35864 14.3655C6.1578 14.4009 5.9523 14.3362 5.80808 14.1919C5.66386 14.0477 5.59908 13.8422 5.63452 13.6414L6.2712 10.0335C6.29349 9.90725 6.35408 9.79091 6.44477 9.70022L14.7216 1.42341ZM17.6927 2.30729C17.1163 1.7309 16.1818 1.7309 15.6055 2.30729L15.4107 2.50202L17.498 4.58931L17.6927 4.39456C18.2691 3.81819 18.2691 2.88367 17.6927 2.30729ZM16.6141 5.47319L14.5268 3.38591L7.77058 10.1422L9.85786 12.2294L16.6141 5.47319ZM8.56711 12.7064L7.02067 12.9793L7.29358 11.4329L8.56711 12.7064Z" fill="white"/>
<path d="M16.25 13.75C15.9048 13.75 15.625 13.4702 15.625 13.125V10C15.625 9.65481 15.9048 9.375 16.25 9.375C16.5952 9.375 16.875 9.65481 16.875 10V13.125C16.875 13.4702 16.5952 13.75 16.25 13.75Z" fill="white"/>
<path d="M16.25 15.625C15.9048 15.625 15.625 15.9048 15.625 16.25V17.5C15.625 17.8452 15.3452 18.125 15 18.125H2.5C2.15482 18.125 1.875 17.8452 1.875 17.5V5C1.875 4.65481 2.15482 4.375 2.5 4.375H10C10.3452 4.375 10.625 4.09519 10.625 3.75C10.625 3.40481 10.3452 3.125 10 3.125H2.5C1.46447 3.125 0.625 3.96447 0.625 5V17.5C0.625 18.5355 1.46447 19.375 2.5 19.375H15C16.0355 19.375 16.875 18.5355 16.875 17.5V16.25C16.875 15.9048 16.5952 15.625 16.25 15.625Z" fill="white"/>
</g>
<defs>
<clipPath id="clip0_1892_12140">
<rect width="20" height="20" fill="white"/>
</clipPath>
</defs>
</svg>
