<svg width="16" height="16" viewBox="0 0 16 16" fill="none" xmlns="http://www.w3.org/2000/svg">
<g id="delete">
<path id="Vector" fill-rule="evenodd" clip-rule="evenodd" d="M6.36802 0.5C5.79987 0.5 5.28048 0.821002 5.0264 1.32918L4.44098 2.5H1C0.723857 2.5 0.5 2.72385 0.5 3C0.5 3.27615 0.723857 3.5 1 3.5H1.30861L1.41012 4.31203C1.44139 4.56222 1.65409 4.75 1.90625 4.75C2.207 4.75 2.43969 4.4864 2.40239 4.18797L2.3164 3.5H13.6836L12.4181 13.624C12.3556 14.1245 11.9302 14.5 11.4258 14.5H4.57417C4.06985 14.5 3.64445 14.1245 3.5819 13.624L2.7149 6.68797C2.68362 6.43778 2.47091 6.25 2.21875 6.25C1.918 6.25 1.68531 6.5136 1.72262 6.81203L2.58962 13.7481C2.71472 14.7489 3.56553 15.5 4.57417 15.5H11.4258C12.4345 15.5 13.2853 14.7489 13.4104 13.7481L14.6914 3.5H15C15.2761 3.5 15.5 3.27615 15.5 3C15.5 2.72385 15.2761 2.5 15 2.5H11.559L10.9736 1.32918C10.7195 0.821002 10.2001 0.5 9.63198 0.5H6.36802ZM10.441 2.5H5.55902L5.92083 1.77639C6.00553 1.607 6.17865 1.5 6.36802 1.5H9.63198C9.82135 1.5 9.99448 1.607 10.0792 1.77639L10.441 2.5Z" fill="black"/>
<path id="Vector_2" d="M5.75 12.75C5.47385 12.75 5.25 12.5261 5.25 12.25V5.75C5.25 5.47385 5.47385 5.25 5.75 5.25C6.02615 5.25 6.25 5.47385 6.25 5.75V12.25C6.25 12.5261 6.02615 12.75 5.75 12.75Z" fill="black"/>
<path id="Vector_3" d="M10.75 5.75C10.75 5.47385 10.5261 5.25 10.25 5.25C9.97385 5.25 9.75 5.47385 9.75 5.75V10.25C9.75 10.5261 9.97385 10.75 10.25 10.75C10.5261 10.75 10.75 10.5261 10.75 10.25V5.75Z" fill="black"/>
</g>
</svg>
