<svg width="49" height="49" viewBox="0 0 49 49" fill="none" xmlns="http://www.w3.org/2000/svg">
<rect width="49" height="49" rx="6" fill="white"/>
<path d="M25.436 18.7727C25.9248 19.2302 25.9501 19.9975 25.4925 20.4863L16.4124 30.1855C16.1832 30.4304 15.8627 30.5694 15.5273 30.5694C15.1919 30.5694 14.8715 30.4304 14.6422 30.1855L10.3859 25.639C9.92831 25.1502 9.95359 24.3829 10.4424 23.9254C10.9312 23.4678 11.6985 23.493 12.156 23.9819L15.5273 27.583L23.7224 18.8291C24.18 18.3403 24.9472 18.315 25.436 18.7727Z" fill="#3FCF9F"/>
<path d="M38.5571 18.7727C39.0459 19.2302 39.0712 19.9975 38.6136 20.4863L29.5335 30.1855C29.3043 30.4304 28.9838 30.5694 28.6484 30.5694C28.313 30.5694 27.9926 30.4304 27.7633 30.1855L23.507 25.639C23.0494 25.1502 23.0747 24.3829 23.5635 23.9254C24.0523 23.4678 24.8196 23.493 25.2771 23.9819L28.6484 27.583L36.8435 18.8291C37.301 18.3403 38.0683 18.315 38.5571 18.7727Z" fill="#3FCF9F"/>
</svg>
