<svg id="arrow-right" width="40" height="40" viewBox="0 0 40 40" xmlns="http://www.w3.org/2000/svg">
<path d="M24.0596 19.9976C24.0596 20.2078 23.9793 20.396 23.8188 20.562L17.2446 26.9868C17.1727 27.0588 17.0924 27.1141 17.0039 27.1528C16.9098 27.1916 16.8102 27.2109 16.7051 27.2109C16.5612 27.2109 16.4312 27.1777 16.3149 27.1113C16.1987 27.0449 16.1074 26.9564 16.041 26.8457C15.9746 26.7295 15.9414 26.5994 15.9414 26.4556C15.9414 26.2453 16.0133 26.0654 16.1572 25.916L22.6567 19.5576V20.4458L16.1572 14.0874C16.0133 13.9325 15.9414 13.7526 15.9414 13.5479C15.9414 13.404 15.9746 13.2767 16.041 13.166C16.1074 13.0498 16.1987 12.9585 16.3149 12.8921C16.4312 12.8257 16.5612 12.7925 16.7051 12.7925C16.9098 12.7925 17.0869 12.8672 17.2363 13.0166L23.8188 19.4414C23.8963 19.5133 23.9572 19.5991 24.0015 19.6987C24.0402 19.7928 24.0596 19.8924 24.0596 19.9976Z"/>
</svg>
