<svg width="29" height="28" viewBox="0 0 29 28" fill="none" xmlns="http://www.w3.org/2000/svg">
<g id="g2217">
<g id="g2219">
<g id="Clip path group">
<mask id="mask0_1894_1967" style="mask-type:luminance" maskUnits="userSpaceOnUse" x="0" y="-1" width="29" height="29">
<g id="clipPath2225">
<path id="path2223" d="M0.988281 -0.0123463H29.0006V28H0.988281V-0.0123463Z" fill="white"/>
</g>
</mask>
<g mask="url(#mask0_1894_1967)">
<g id="g2221">
<g id="g2227">
<path id="path2229" d="M25.1027 17.8502C25.1027 20.0288 24.3597 22.0405 23.1041 23.6633C21.5951 25.6148 19.3448 27.004 16.7536 27.4444C16.1781 27.5429 15.5856 27.5938 14.981 27.5938C11.6546 27.5938 8.70287 26.0487 6.85799 23.6638C5.60236 22.0411 4.85938 20.0293 4.85938 17.8502C4.85938 14.5056 5.71671 11.6294 6.93349 9.23308C9.89448 3.3959 14.981 0.402626 14.981 0.402626C14.981 0.402626 15.0839 0.463356 15.2688 0.583721C16.3843 1.31139 20.4882 4.22587 23.0286 9.23308C24.2453 11.6294 25.1027 14.5056 25.1027 17.8502Z" fill="url(#paint0_linear_1894_1967)"/>
</g>
<g id="g2231">
<path id="path2233" d="M25.0995 17.8433C25.0995 20.0219 24.3565 22.0336 23.1009 23.6564C21.5919 25.6079 19.3416 26.9971 16.7504 27.4375C20.2815 26.3351 23.4133 22.4877 23.4133 17.8701C23.4133 8.06083 17.1104 2.1093 15.2656 0.576832C16.3811 1.3045 20.4851 4.21899 23.0254 9.22619C24.2422 11.6226 25.0995 14.4988 25.0995 17.8433Z" fill="#19BD89"/>
</g>
<g id="g2235">
<path id="path2237" d="M25.1036 17.851C25.1036 20.0296 24.3606 22.0413 23.105 23.6641L22.1864 22.7455L19.1641 19.7232V13.0992L23.0295 9.23387C24.2463 11.6302 25.1036 14.5064 25.1036 17.851Z" fill="url(#paint1_linear_1894_1967)"/>
</g>
<g id="g2239">
<path id="path2241" d="M14.9785 23.3334V27.5938C11.652 27.5938 8.70034 26.0487 6.85547 23.6638L9.97896 20.5403L14.9785 23.3334Z" fill="#15AA78"/>
</g>
<g id="g2243">
<path id="path2245" d="M14.9772 0.400808V10.3375L9.73743 12.0391L6.92969 9.23126C9.89068 3.39408 14.9772 0.400808 14.9772 0.400808Z" fill="#15AA78"/>
</g>
<g id="g2247">
<path id="path2249" d="M25.1031 17.851C25.1031 20.0296 24.3601 22.0413 23.1045 23.6641L22.1858 22.7455C22.9545 21.3109 23.4169 19.651 23.4169 17.8778C23.4169 14.983 22.868 12.4241 22.0469 10.2159L23.0289 9.23387C24.2457 11.6302 25.1031 14.5064 25.1031 17.851Z" fill="#15AA78"/>
</g>
<g id="g2251">
<path id="path2253" d="M20.8161 21.3743C18.2805 22.3553 16.2359 23.5881 14.9815 24.4375C13.7271 23.5881 11.6824 22.3553 9.14687 21.3743C9.53751 17.3479 9.32545 13.5707 9.13281 11.4448C11.6752 10.4628 13.7246 9.22713 14.9815 8.37609C16.2383 9.22713 18.2878 10.4628 20.8302 11.4448C20.6375 13.5707 20.4255 17.3479 20.8161 21.3743Z" fill="#4EE9B8"/>
</g>
<g id="g2255">
<path id="path2257" d="M24.7097 20.5391C24.964 19.6846 25.1004 18.7821 25.1004 17.8489C25.1004 6.35781 14.9787 0.401249 14.9787 0.401249C14.9787 0.401249 12.4744 1.87507 9.95703 4.77074" stroke="black" stroke-width="0.722657" stroke-miterlimit="10" stroke-linecap="round" stroke-linejoin="round"/>
</g>
<g id="g2259">
<path id="path2261" d="M5.06641 19.8135C6.01018 24.2537 10.0911 27.5938 14.9824 27.5938C18.9473 27.5938 22.3798 25.399 24.0404 22.2026" stroke="black" stroke-width="0.722657" stroke-miterlimit="10" stroke-linecap="round" stroke-linejoin="round"/>
</g>
<g id="g2263">
<path id="path2265" d="M8.78893 6.23333C6.68696 9.08517 4.85938 12.9687 4.85938 17.8516" stroke="black" stroke-width="0.722657" stroke-miterlimit="10" stroke-linecap="round" stroke-linejoin="round"/>
</g>
<g id="g2267">
<path id="path2269" d="M18.3354 10.3382C19.0968 10.7199 19.9328 11.0982 20.8303 11.4448C20.6376 13.5707 20.4256 17.3479 20.8162 21.3743C18.2806 22.3553 16.2359 23.5881 14.9815 24.4375C13.7271 23.5881 11.6825 22.3553 9.14693 21.3743C9.53751 17.3479 9.32545 13.5707 9.13281 11.4448C11.6753 10.4628 13.7247 9.22713 14.9815 8.37609C15.4431 8.68865 16.0115 9.05303 16.672 9.43771" stroke="black" stroke-width="0.722657" stroke-miterlimit="10" stroke-linecap="round" stroke-linejoin="round"/>
</g>
<g id="g2271">
<path id="path2273" d="M20.8164 21.3704L23.1101 23.6641" stroke="black" stroke-width="0.722657" stroke-miterlimit="10" stroke-linejoin="round"/>
</g>
<g id="g2275">
<path id="path2277" d="M9.14914 21.3704L6.85547 23.6641" stroke="black" stroke-width="0.722657" stroke-miterlimit="10" stroke-linejoin="round"/>
</g>
<g id="g2279">
<path id="path2281" d="M20.8164 11.4453L23.0298 9.2319" stroke="black" stroke-width="0.722657" stroke-miterlimit="10" stroke-linejoin="round"/>
</g>
<g id="g2283">
<path id="path2285" d="M9.14701 11.4453L6.93359 9.2319" stroke="black" stroke-width="0.722657" stroke-miterlimit="10" stroke-linejoin="round"/>
</g>
<g id="g2287">
<path id="path2289" d="M14.9805 24.4383V27.5938" stroke="black" stroke-width="0.722657" stroke-miterlimit="10" stroke-linejoin="round"/>
</g>
<g id="g2291">
<path id="path2293" d="M14.9805 8.375V0.400181" stroke="black" stroke-width="0.722657" stroke-miterlimit="10" stroke-linejoin="round"/>
</g>
</g>
</g>
</g>
</g>
</g>
<defs>
<linearGradient id="paint0_linear_1894_1967" x1="14.981" y1="27.5938" x2="14.981" y2="0.402626" gradientUnits="userSpaceOnUse">
<stop stop-color="#1EE3A5"/>
<stop offset="1" stop-color="#1EE3A5"/>
</linearGradient>
<linearGradient id="paint1_linear_1894_1967" x1="24.9133" y1="16.3327" x2="20.8282" y2="16.3327" gradientUnits="userSpaceOnUse">
<stop stop-color="#1CE19F"/>
<stop offset="1" stop-color="#1CE19F"/>
</linearGradient>
</defs>
</svg>
