<svg width="15" height="16" viewBox="0 0 15 16" fill="none" xmlns="http://www.w3.org/2000/svg">
<g id="paste">
<path id="Vector" d="M0.5 4C0.5 2.89543 1.39543 2 2.5 2H10C11.1046 2 12 2.89543 12 4V14C12 15.1046 11.1046 16 10 16H2.5C1.39543 16 0.5 15.1046 0.5 14V8C0.5 7.72385 0.723857 7.5 1 7.5C1.27614 7.5 1.5 7.72385 1.5 8V14C1.5 14.5523 1.94772 15 2.5 15H10C10.5523 15 11 14.5523 11 14V4C11 3.44772 10.5523 3 10 3H2.5C1.94772 3 1.5 3.44772 1.5 4V5.5C1.5 5.77615 1.27614 6 1 6C0.723857 6 0.5 5.77615 0.5 5.5V4Z" fill="black"/>
<path id="Vector_2" d="M6.73913 0C5.77863 0 5 0.89543 5 2H5.86957C5.86957 1.44772 6.25888 1 6.73913 1H13.2609C13.7411 1 14.1304 1.44772 14.1304 2V12C14.1304 12.5523 13.7411 13 13.2609 13H11.5V14H13.2609C14.2214 14 15 13.1046 15 12V2C15 0.89543 14.2214 0 13.2609 0H6.73913Z" fill="black"/>
<path id="Vector_3" d="M3.25 5C3.25 4.72385 3.47385 4.5 3.75 4.5H8.75C9.02615 4.5 9.25 4.72385 9.25 5C9.25 5.27615 9.02615 5.5 8.75 5.5H3.75C3.47385 5.5 3.25 5.27615 3.25 5Z" fill="black"/>
<rect id="Rectangle 327" x="11" y="3" width="2" height="1" rx="0.5" fill="black"/>
<rect id="Rectangle 326" x="11" y="6" width="2" height="1" rx="0.5" fill="black"/>
<path id="Vector_4" d="M3.25 8C3.25 7.72385 3.47385 7.5 3.75 7.5H8.75C9.02615 7.5 9.25 7.72385 9.25 8C9.25 8.27615 9.02615 8.5 8.75 8.5H3.75C3.47385 8.5 3.25 8.27615 3.25 8Z" fill="black"/>
<path id="Vector_5" d="M3.75 10.5C3.47385 10.5 3.25 10.7239 3.25 11C3.25 11.2761 3.47385 11.5 3.75 11.5H6.25C6.52615 11.5 6.75 11.2761 6.75 11C6.75 10.7239 6.52615 10.5 6.25 10.5H3.75Z" fill="black"/>
</g>
</svg>
