<svg width="16" height="16" viewBox="0 0 16 16" xmlns="http://www.w3.org/2000/svg">
<g id="task">
<path id="Vector" d="M0.5 5C0.5 2.51472 2.51472 0.5 5 0.5H11C13.4853 0.5 15.5 2.51472 15.5 5V5.75C15.5 6.02615 15.2761 6.25 15 6.25C14.7239 6.25 14.5 6.02615 14.5 5.75V5C14.5 3.067 12.933 1.5 11 1.5H5C3.067 1.5 1.5 3.067 1.5 5V11C1.5 12.933 3.067 14.5 5 14.5H11C12.933 14.5 14.5 12.933 14.5 11V8.25C14.5 7.97385 14.7239 7.75 15 7.75C15.2761 7.75 15.5 7.97385 15.5 8.25V11C15.5 13.4853 13.4853 15.5 11 15.5H5C2.51472 15.5 0.5 13.4853 0.5 11V5Z" fill="black"/>
<path id="Vector_2" d="M4.5 5C4.5 5.27615 4.27615 5.5 4 5.5C3.72385 5.5 3.5 5.27615 3.5 5C3.5 4.72385 3.72385 4.5 4 4.5C4.27615 4.5 4.5 4.72385 4.5 5Z" fill="black"/>
<path id="Vector_3" d="M5.25 5C5.25 4.72385 5.47385 4.5 5.75 4.5H8.75C9.02615 4.5 9.25 4.72385 9.25 5C9.25 5.27615 9.02615 5.5 8.75 5.5H5.75C5.47385 5.5 5.25 5.27615 5.25 5Z" fill="black"/>
<path id="Vector_4" d="M10.75 5C10.75 5.27615 10.9739 5.5 11.25 5.5H12C12.2761 5.5 12.5 5.27615 12.5 5C12.5 4.72385 12.2761 4.5 12 4.5H11.25C10.9739 4.5 10.75 4.72385 10.75 5Z" fill="black"/>
<path id="Vector_5" d="M5.75 7.5C5.47385 7.5 5.25 7.72385 5.25 8C5.25 8.27615 5.47385 8.5 5.75 8.5H12C12.2761 8.5 12.5 8.27615 12.5 8C12.5 7.72385 12.2761 7.5 12 7.5H5.75Z" fill="black"/>
<path id="Vector_6" d="M5.75 10.5C5.47385 10.5 5.25 10.7239 5.25 11C5.25 11.2761 5.47385 11.5 5.75 11.5H7.25C7.52615 11.5 7.75 11.2761 7.75 11C7.75 10.7239 7.52615 10.5 7.25 10.5H5.75Z" fill="black"/>
<path id="Vector_7" d="M12 11.5H9.75C9.47385 11.5 9.25 11.2761 9.25 11C9.25 10.7239 9.47385 10.5 9.75 10.5H12C12.2761 10.5 12.5 10.7239 12.5 11C12.5 11.2761 12.2761 11.5 12 11.5Z" fill="black"/>
<path id="Vector_8" d="M4.5 8C4.5 8.27615 4.27615 8.5 4 8.5C3.72385 8.5 3.5 8.27615 3.5 8C3.5 7.72385 3.72385 7.5 4 7.5C4.27615 7.5 4.5 7.72385 4.5 8Z" fill="black"/>
<path id="Vector_9" d="M4 11.5C4.27615 11.5 4.5 11.2761 4.5 11C4.5 10.7239 4.27615 10.5 4 10.5C3.72385 10.5 3.5 10.7239 3.5 11C3.5 11.2761 3.72385 11.5 4 11.5Z" fill="black"/>
</g>
</svg>
