<svg width="8" height="8" viewBox="0 0 8 8" fill="none" xmlns="http://www.w3.org/2000/svg">
<path id="close" d="M0.1325 7.86877C0.0719812 7.81157 0.031635 7.74427 0.011462 7.66688C-0.00534892 7.58948 -0.00366783 7.51209 0.0165052 7.4347C0.0366783 7.35731 0.0753434 7.29001 0.1325 7.23281L3.36019 3.99748L0.1325 0.767192C0.0753434 0.709989 0.0366783 0.642692 0.0165052 0.5653C-0.000305652 0.487907 -0.000305652 0.410515 0.0165052 0.333123C0.0366783 0.255731 0.0753434 0.188433 0.1325 0.13123C0.189657 0.0706625 0.256901 0.0319664 0.334231 0.015142C0.411561 -0.00504732 0.488891 -0.00504732 0.566222 0.015142C0.646914 0.0319664 0.715839 0.0706625 0.772996 0.13123L4.00069 3.36151L7.22838 0.13123C7.28554 0.0706625 7.35278 0.0319664 7.43011 0.015142C7.50744 -0.00504732 7.58477 -0.00504732 7.6621 0.015142C7.73943 0.0319664 7.80836 0.0706625 7.86888 0.13123C7.92603 0.188433 7.9647 0.255731 7.98487 0.333123C8.00504 0.410515 8.00504 0.487907 7.98487 0.5653C7.9647 0.642692 7.92603 0.709989 7.86888 0.767192L4.64118 3.99748L7.86888 7.23281C7.92603 7.29001 7.96302 7.35731 7.97983 7.4347C8 7.51209 8 7.58948 7.97983 7.66688C7.96302 7.74427 7.92603 7.81157 7.86888 7.86877C7.81172 7.92934 7.74279 7.96803 7.6621 7.98486C7.58477 8.00505 7.50744 8.00505 7.43011 7.98486C7.35278 7.96467 7.28554 7.92597 7.22838 7.86877L4.00069 4.63849L0.772996 7.86877C0.715839 7.92597 0.648595 7.96467 0.571265 7.98486C0.493935 8.00505 0.416605 8.00505 0.339274 7.98486C0.261944 7.96467 0.19302 7.92597 0.1325 7.86877Z" fill="#9F9F9F"/>
</svg>
