<svg width="25" height="24" viewBox="0 0 25 24" fill="none" xmlns="http://www.w3.org/2000/svg">
<g id="gift_15341604 1">
<path id="Vector" fill-rule="evenodd" clip-rule="evenodd" d="M8.43007 0.828612C6.67177 1.26555 5.99066 3.22562 6.90251 4.56872C4.68131 4.93183 2.86732 6.69508 2.6326 9.03077C2.49458 10.4041 2.41503 11.7646 2.39404 13.1248H11.7506V21.7498H7.75699C5.8845 21.7498 4.30931 20.3806 4.12708 18.5642C4.04115 17.7078 3.97723 16.8911 3.93533 16.094C3.91425 15.6928 3.58518 15.3748 3.18344 15.3748C2.76182 15.3748 2.42329 15.7238 2.44351 16.1449C2.48441 16.9967 2.54809 17.852 2.63458 18.714C2.89838 21.3433 5.16161 23.2498 7.75699 23.2498H17.2345C19.8168 23.2498 22.0745 21.3619 22.3504 18.7457C22.6977 15.4537 22.6996 12.2639 22.3537 8.99616C22.1083 6.67686 20.3031 4.93314 18.0979 4.56981C19.0109 3.22667 18.3299 1.26567 16.5711 0.828612C15.4941 0.560952 14.3378 0.989007 13.7376 1.92654L12.5006 3.85877L11.2636 1.92654C10.6634 0.989007 9.50711 0.560952 8.43007 0.828612ZM15.0009 2.73529C15.2371 2.36622 15.7255 2.16408 16.2094 2.28434C17.1183 2.51021 17.2536 3.55739 16.5537 4.01608L15.8157 4.49979H13.8712L15.0009 2.73529ZM10.0003 2.73529L11.1299 4.49979H9.18555L8.44747 4.01608C7.74761 3.55739 7.88291 2.51021 8.7918 2.28434C9.27574 2.16408 9.76402 2.36622 10.0003 2.73529ZM4.12508 9.18073C4.30736 7.36682 5.8815 5.99979 7.7526 5.99979H11.7506V11.6248H3.93519C3.97674 10.8352 4.04003 10.0271 4.12508 9.18073ZM13.2506 21.7498H17.2345C19.0981 21.7498 20.6683 20.3936 20.8587 18.5884C21.0646 16.6361 21.1513 14.8937 21.119 13.1248H13.2506V21.7498ZM13.2506 11.6248H21.0637C21.0198 10.8263 20.9526 10.0096 20.8621 9.15399C20.6715 7.35246 19.1028 5.99979 17.2413 5.99979H13.2506V11.6248Z" fill="#8044EE"/>
</g>
</svg>
