<svg width="20" height="20" viewBox="0 0 20 20" fill="none" xmlns="http://www.w3.org/2000/svg">
<g id="Close Icon">
<path id="&#244;&#128;&#134;&#132;" d="M3.23188 16.7593C3.12597 16.6593 3.05536 16.5416 3.02006 16.4063C2.99064 16.2709 2.99358 16.1356 3.02888 16.0003C3.06419 15.865 3.13185 15.7473 3.23188 15.6473L8.88034 9.98997L3.23188 4.34151C3.13185 4.24148 3.06419 4.12381 3.02888 3.98848C2.99947 3.85315 2.99947 3.71783 3.02888 3.5825C3.06419 3.44717 3.13185 3.32949 3.23188 3.22947C3.3319 3.12356 3.44958 3.0559 3.5849 3.02648C3.72023 2.99117 3.85556 2.99117 3.99089 3.02648C4.1321 3.0559 4.25272 3.12356 4.35274 3.22947L10.0012 8.87793L15.6497 3.22947C15.7497 3.12356 15.8674 3.0559 16.0027 3.02648C16.138 2.99117 16.2733 2.99117 16.4087 3.02648C16.544 3.0559 16.6646 3.12356 16.7705 3.22947C16.8706 3.32949 16.9382 3.44717 16.9735 3.5825C17.0088 3.71783 17.0088 3.85315 16.9735 3.98848C16.9382 4.12381 16.8706 4.24148 16.7705 4.34151L11.1221 9.98997L16.7705 15.6473C16.8706 15.7473 16.9353 15.865 16.9647 16.0003C17 16.1356 17 16.2709 16.9647 16.4063C16.9353 16.5416 16.8706 16.6593 16.7705 16.7593C16.6705 16.8652 16.5499 16.9329 16.4087 16.9623C16.2733 16.9976 16.138 16.9976 16.0027 16.9623C15.8674 16.927 15.7497 16.8593 15.6497 16.7593L10.0012 11.1108L4.35274 16.7593C4.25272 16.8593 4.13504 16.927 3.99971 16.9623C3.86439 16.9976 3.72906 16.9976 3.59373 16.9623C3.4584 16.927 3.33778 16.8593 3.23188 16.7593Z" fill="black"/>
</g>
</svg>
