<svg  id="sort" width="16" height="16" viewBox="0 0 16 16" xmlns="http://www.w3.org/2000/svg">
<g  clip-path="url(#clip0_1935_4995)">
<g id="Group">
<path id="Vector" d="M4.25 15.5C3.97385 15.5 3.75 15.2761 3.75 15V2.20711L1.35355 4.60355C1.15829 4.79882 0.841707 4.79882 0.646447 4.60355C0.451184 4.4083 0.451184 4.0917 0.646447 3.89645L3.89645 0.646447C4.0917 0.451184 4.4083 0.451184 4.60355 0.646447L7.85355 3.89645C8.04882 4.0917 8.04882 4.4083 7.85355 4.60355C7.6583 4.79882 7.3417 4.79882 7.14645 4.60355L4.75 2.20711V15C4.75 15.2761 4.52615 15.5 4.25 15.5Z"/>
<path id="Vector_2" d="M10.75 15C10.75 15.2761 10.5261 15.5 10.25 15.5H6.25C5.97385 15.5 5.75 15.2761 5.75 15C5.75 14.7239 5.97385 14.5 6.25 14.5H10.25C10.5261 14.5 10.75 14.7239 10.75 15Z"/>
<path id="Vector_3" d="M11.75 13C12.0261 13 12.25 12.7761 12.25 12.5C12.25 12.2239 12.0261 12 11.75 12H6.25C5.97385 12 5.75 12.2239 5.75 12.5C5.75 12.7761 5.97385 13 6.25 13H11.75Z"/>
<path id="Vector_4" d="M13.75 10C13.75 10.2761 13.5261 10.5 13.25 10.5H6.25C5.97385 10.5 5.75 10.2761 5.75 10C5.75 9.72385 5.97385 9.5 6.25 9.5H13.25C13.5261 9.5 13.75 9.72385 13.75 10Z"/>
<path id="Vector_5" d="M15 8C15.2761 8 15.5 7.77615 15.5 7.5C15.5 7.22385 15.2761 7 15 7H6.25C5.97385 7 5.75 7.22385 5.75 7.5C5.75 7.77615 5.97385 8 6.25 8H15Z"/>
</g>
</g>
<defs>
<clipPath id="clip0_1935_4995">
<rect width="16" height="16" />
</clipPath>
</defs>
</svg>
