<svg width="20" height="20" viewBox="0 0 20 20" fill="none" xmlns="http://www.w3.org/2000/svg">
<path d="M5.94043 9.99756C5.94043 10.2078 6.02067 10.396 6.18115 10.562L12.7554 16.9868C12.8273 17.0588 12.9076 17.1141 12.9961 17.1528C13.0902 17.1916 13.1898 17.2109 13.2949 17.2109C13.4388 17.2109 13.5688 17.1777 13.6851 17.1113C13.8013 17.0449 13.8926 16.9564 13.959 16.8457C14.0254 16.7295 14.0586 16.5994 14.0586 16.4556C14.0586 16.2453 13.9867 16.0654 13.8428 15.916L7.34326 9.55762L7.34326 10.4458L13.8428 4.0874C13.9867 3.93245 14.0586 3.7526 14.0586 3.54785C14.0586 3.40397 14.0254 3.27669 13.959 3.16602C13.8926 3.0498 13.8013 2.9585 13.6851 2.89209C13.5688 2.82568 13.4388 2.79248 13.2949 2.79248C13.0902 2.79248 12.9131 2.86719 12.7637 3.0166L6.18115 9.44141C6.10368 9.51335 6.04281 9.59912 5.99854 9.69873C5.9598 9.79281 5.94043 9.89242 5.94043 9.99756Z" fill="black"/>
</svg>
