<svg width="15" height="14" viewBox="0 0 15 14" fill="none" xmlns="http://www.w3.org/2000/svg">
<g id="copy">
<path id="Vector" d="M0 2C0 0.89543 0.89543 0 2 0H9.5C10.6046 0 11.5 0.89543 11.5 2V12C11.5 13.1046 10.6046 14 9.5 14H2C0.89543 14 0 13.1046 0 12V6C0 5.72385 0.223857 5.5 0.5 5.5C0.776142 5.5 1 5.72385 1 6V12C1 12.5523 1.44772 13 2 13H9.5C10.0523 13 10.5 12.5523 10.5 12V2C10.5 1.44772 10.0523 1 9.5 1H2C1.44772 1 1 1.44772 1 2V3.5C1 3.77615 0.776142 4 0.5 4C0.223857 4 0 3.77615 0 3.5V2Z" fill="black"/>
<path id="Vector_2" d="M2.75 4C2.75 3.72385 2.97385 3.5 3.25 3.5H8.25C8.52615 3.5 8.75 3.72385 8.75 4C8.75 4.27615 8.52615 4.5 8.25 4.5H3.25C2.97385 4.5 2.75 4.27615 2.75 4Z" fill="black"/>
<path id="Vector_3" d="M2.75 7C2.75 6.72385 2.97385 6.5 3.25 6.5H8.25C8.52615 6.5 8.75 6.72385 8.75 7C8.75 7.27615 8.52615 7.5 8.25 7.5H3.25C2.97385 7.5 2.75 7.27615 2.75 7Z" fill="black"/>
<path id="Vector_4" d="M3.25 9.5C2.97385 9.5 2.75 9.72385 2.75 10C2.75 10.2761 2.97385 10.5 3.25 10.5H5.75C6.02615 10.5 6.25 10.2761 6.25 10C6.25 9.72385 6.02615 9.5 5.75 9.5H3.25Z" fill="black"/>
<path id="Vector_5" d="M12.75 12.25C12.4739 12.25 12.25 12.0261 12.25 11.75V2.25C12.25 1.97385 12.4739 1.75 12.75 1.75C13.0261 1.75 13.25 1.97385 13.25 2.25V11.75C13.25 12.0261 13.0261 12.25 12.75 12.25Z" fill="black"/>
<path id="Vector_6" d="M14.5 10.5C14.2239 10.5 14 10.2761 14 10V4C14 3.72385 14.2239 3.5 14.5 3.5C14.7761 3.5 15 3.72385 15 4V10C15 10.2761 14.7761 10.5 14.5 10.5Z" fill="black"/>
</g>
</svg>
