<svg xmlns="http://www.w3.org/2000/svg">

<symbol id="home" >
 <path fill-rule="evenodd" clip-rule="evenodd" d="M23.25 18.5586C23.25 21.435 20.8902 23.75 18 23.75H6C3.1098 23.75 0.75 21.435 0.75 18.5586V11.0943C0.75 9.49734 1.49295 7.99197 2.76019 7.00925L8.76019 2.35637C10.6624 0.88121 13.3376 0.88121 15.2398 2.35637L21.2398 7.00925C22.507 7.99197 23.25 9.49734 23.25 11.0943V12.5C23.25 12.9142 22.9142 13.25 22.5 13.25C22.0858 13.25 21.75 12.9142 21.75 12.5V11.0943C21.75 9.96541 21.225 8.89591 20.3206 8.19459L14.3206 3.54172C12.9593 2.48609 11.0407 2.48609 9.67942 3.54172L3.67942 8.19459C2.77504 8.89591 2.25 9.96541 2.25 11.0943V18.5586C2.25 20.5881 3.91965 22.25 6 22.25H7.5V17C7.5 14.5147 9.51472 12.5 12 12.5C14.4853 12.5 16.5 14.5147 16.5 17V22.25H18C20.0803 22.25 21.75 20.5881 21.75 18.5586V16.25C21.75 15.8358 22.0858 15.5 22.5 15.5C22.9142 15.5 23.25 15.8358 23.25 16.25V18.5586ZM9 17V22.25H15V17C15 15.3431 13.6569 14 12 14C10.3431 14 9 15.3431 9 17Z"/>
</symbol>

<symbol id="calendar" >
    <path d="M14.875 2.75C14.875 2.33579 14.5392 2 14.125 2H8.125C8.125 1.58579 7.78923 1.25 7.375 1.25C6.96077 1.25 6.625 1.58579 6.625 2V2.04642C3.66527 2.41549 1.375 4.9403 1.375 8V17.75C1.375 21.0637 4.06128 23.75 7.375 23.75H17.125C20.4387 23.75 23.125 21.0637 23.125 17.75V8C23.125 5.20423 21.2128 2.85509 18.625 2.18903V2C18.625 1.58579 18.2892 1.25 17.875 1.25C17.4608 1.25 17.125 1.58579 17.125 2V3.875C17.125 4.28923 17.4608 4.625 17.875 4.625C18.2892 4.625 18.625 4.28923 18.625 3.875V3.75606C20.3728 4.37383 21.625 6.04066 21.625 8V17.75C21.625 20.2353 19.6103 22.25 17.125 22.25H7.375C4.88972 22.25 2.875 20.2353 2.875 17.75V8C2.875 5.77025 4.49673 3.91928 6.625 3.56222V3.875C6.625 4.28923 6.96077 4.625 7.375 4.625C7.78923 4.625 8.125 4.28923 8.125 3.875V3.5H14.125C14.5392 3.5 14.875 3.16421 14.875 2.75Z" />
    <path d="M5.5 8.375C5.5 7.96078 5.83578 7.625 6.25 7.625H18.25C18.6642 7.625 19 7.96078 19 8.375C19 8.78922 18.6642 9.125 18.25 9.125H6.25C5.83578 9.125 5.5 8.78922 5.5 8.375Z" />
    <path d="M8.5 12.875C8.5 13.2892 8.16422 13.625 7.75 13.625C7.33578 13.625 7 13.2892 7 12.875C7 12.4608 7.33578 12.125 7.75 12.125C8.16422 12.125 8.5 12.4608 8.5 12.875Z"/>
    <path d="M13 12.875C13 13.2892 12.6642 13.625 12.25 13.625C11.8358 13.625 11.5 13.2892 11.5 12.875C11.5 12.4608 11.8358 12.125 12.25 12.125C12.6642 12.125 13 12.4608 13 12.875Z" />
    <path d="M17.5 12.875C17.5 13.2892 17.1642 13.625 16.75 13.625C16.3358 13.625 16 13.2892 16 12.875C16 12.4608 16.3358 12.125 16.75 12.125C17.1642 12.125 17.5 12.4608 17.5 12.875Z" />
    <path d="M8.5 17.75C8.5 18.1642 8.16422 18.5 7.75 18.5C7.33578 18.5 7 18.1642 7 17.75C7 17.3358 7.33578 17 7.75 17C8.16422 17 8.5 17.3358 8.5 17.75Z" />
    <path d="M13 17.75C13 18.1642 12.6642 18.5 12.25 18.5C11.8358 18.5 11.5 18.1642 11.5 17.75C11.5 17.3358 11.8358 17 12.25 17C12.6642 17 13 17.3358 13 17.75Z" />
    <path d="M17.5 17.75C17.5 18.1642 17.1642 18.5 16.75 18.5C16.3358 18.5 16 18.1642 16 17.75C16 17.3358 16.3358 17 16.75 17C17.1642 17 17.5 17.3358 17.5 17.75Z"/>
</symbol>

<symbol id="plus">
    <path fill-rule="evenodd" clip-rule="evenodd" d="M10.5 3C10.6658 3 10.8247 3.06585 10.9419 3.18306C11.0592 3.30027 11.125 3.45924 11.125 3.625V9.875H17.375C17.5408 9.875 17.6997 9.94085 17.8169 10.0581C17.9342 10.1753 18 10.3342 18 10.5C18 10.6658 17.9342 10.8247 17.8169 10.9419C17.6997 11.0592 17.5408 11.125 17.375 11.125H11.125V17.375C11.125 17.5408 11.0592 17.6997 10.9419 17.8169C10.8247 17.9342 10.6658 18 10.5 18C10.3342 18 10.1753 17.9342 10.0581 17.8169C9.94085 17.6997 9.875 17.5408 9.875 17.375V11.125H3.625C3.45924 11.125 3.30027 11.0592 3.18306 10.9419C3.06585 10.8247 3 10.6658 3 10.5C3 10.3342 3.06585 10.1753 3.18306 10.0581C3.30027 9.94085 3.45924 9.875 3.625 9.875H9.875V3.625C9.875 3.45924 9.94085 3.30027 10.0581 3.18306C10.1753 3.06585 10.3342 3 10.5 3Z"/>
</symbol>

<symbol id="list">
  <path d="M1.5 8C1.5 4.27209 4.52209 1.25 8.25 1.25H17.25C20.9779 1.25 24 4.27209 24 8V9.125C24 9.53922 23.6642 9.875 23.25 9.875C22.8358 9.875 22.5 9.53922 22.5 9.125V8C22.5 5.1005 20.1495 2.75 17.25 2.75H8.25C5.3505 2.75 3 5.1005 3 8V17C3 19.8995 5.3505 22.25 8.25 22.25H17.25C20.1495 22.25 22.5 19.8995 22.5 17V12.875C22.5 12.4608 22.8358 12.125 23.25 12.125C23.6642 12.125 24 12.4608 24 12.875V17C24 20.7279 20.9779 23.75 17.25 23.75H8.25C4.52209 23.75 1.5 20.7279 1.5 17V8Z" />
  <path d="M7.5 8C7.5 8.41422 7.16422 8.75 6.75 8.75C6.33578 8.75 6 8.41422 6 8C6 7.58578 6.33578 7.25 6.75 7.25C7.16422 7.25 7.5 7.58578 7.5 8Z"/>
  <path d="M8.625 8C8.625 7.58578 8.96078 7.25 9.375 7.25H13.875C14.2892 7.25 14.625 7.58578 14.625 8C14.625 8.41422 14.2892 8.75 13.875 8.75H9.375C8.96078 8.75 8.625 8.41422 8.625 8Z" />
  <path d="M16.875 8C16.875 8.41422 17.2108 8.75 17.625 8.75H18.75C19.1642 8.75 19.5 8.41422 19.5 8C19.5 7.58578 19.1642 7.25 18.75 7.25H17.625C17.2108 7.25 16.875 7.58578 16.875 8Z" />
  <path d="M9.375 11.75C8.96078 11.75 8.625 12.0858 8.625 12.5C8.625 12.9142 8.96078 13.25 9.375 13.25H18.75C19.1642 13.25 19.5 12.9142 19.5 12.5C19.5 12.0858 19.1642 11.75 18.75 11.75H9.375Z" />
  <path d="M9.375 16.25C8.96078 16.25 8.625 16.5858 8.625 17C8.625 17.4142 8.96078 17.75 9.375 17.75H11.625C12.0392 17.75 12.375 17.4142 12.375 17C12.375 16.5858 12.0392 16.25 11.625 16.25H9.375Z"/>
  <path d="M18.75 17.75H15.375C14.9608 17.75 14.625 17.4142 14.625 17C14.625 16.5858 14.9608 16.25 15.375 16.25H18.75C19.1642 16.25 19.5 16.5858 19.5 17C19.5 17.4142 19.1642 17.75 18.75 17.75Z"/>
  <path d="M7.5 12.5C7.5 12.9142 7.16422 13.25 6.75 13.25C6.33578 13.25 6 12.9142 6 12.5C6 12.0858 6.33578 11.75 6.75 11.75C7.16422 11.75 7.5 12.0858 7.5 12.5Z"/>
  <path d="M6.75 17.75C7.16422 17.75 7.5 17.4142 7.5 17C7.5 16.5858 7.16422 16.25 6.75 16.25C6.33578 16.25 6 16.5858 6 17C6 17.4142 6.33578 17.75 6.75 17.75Z"/>
</symbol>

<symbol id="prev" viewBox="0 0 22 40" fill="none">  
    <path fill-rule="evenodd" clip-rule="evenodd" d="M12.0607 16.0607L11 15L6 20L11 25L12.0607 23.9393L8.12132 20L12.0607 16.0607Z" />
</symbol>

<symbol id="next">    
  <mask id="path-1-inside-1_1900_835" fill="white">
    <path d="M11.0001 15L16.0001 20L11.0001 25L9.93945 23.9393L13.8788 20L9.93945 16.0607L11.0001 15Z"/>
  </mask>
  <path d="M11.0001 15L16.0001 20L11.0001 25L9.93945 23.9393L13.8788 20L9.93945 16.0607L11.0001 15Z" fill="white"/>
  <path d="M16.0001 20L17.0608 21.0607L18.1214 20L17.0608 18.9393L16.0001 20ZM11.0001 15L12.0608 13.9393L11.0001 12.8787L9.93945 13.9393L11.0001 15ZM11.0001 25L9.93945 26.0607L11.0001 27.1213L12.0608 26.0607L11.0001 25ZM9.93945 16.0607L8.87879 15L7.81813 16.0607L8.87879 17.1213L9.93945 16.0607ZM9.93945 23.9393L8.87879 22.8787L7.81813 23.9393L8.87879 25L9.93945 23.9393ZM13.8788 20L14.9395 21.0607L16.0001 20L14.9395 18.9393L13.8788 20ZM17.0608 18.9393L12.0608 13.9393L9.93945 16.0607L14.9395 21.0607L17.0608 18.9393ZM12.0608 26.0607L17.0608 21.0607L14.9395 18.9393L9.93945 23.9393L12.0608 26.0607ZM9.93945 13.9393L8.87879 15L11.0001 17.1213L12.0608 16.0607L9.93945 13.9393ZM8.87879 25L9.93945 26.0607L12.0608 23.9393L11.0001 22.8787L8.87879 25ZM12.8181 18.9393L8.87879 22.8787L11.0001 25L14.9395 21.0607L12.8181 18.9393ZM8.87879 17.1213L12.8181 21.0607L14.9395 18.9393L11.0001 15L8.87879 17.1213Z" mask="url(#path-1-inside-1_1900_835)"/>
</symbol>

<symbol id="dote_more" viewBox="0 0 20 20">
  <path d="M10 13.75C10.3315 13.75 10.6495 13.8817 10.8839 14.1161C11.1183 14.3505 11.25 14.6685 11.25 15C11.25 15.3315 11.1183 15.6495 10.8839 15.8839C10.6495 16.1183 10.3315 16.25 10 16.25C9.66848 16.25 9.35054 16.1183 9.11612 15.8839C8.8817 15.6495 8.75 15.3315 8.75 15C8.75 14.6685 8.8817 14.3505 9.11612 14.1161C9.35054 13.8817 9.66848 13.75 10 13.75ZM10 8.75C10.3315 8.75 10.6495 8.8817 10.8839 9.11612C11.1183 9.35054 11.25 9.66848 11.25 10C11.25 10.3315 11.1183 10.6495 10.8839 10.8839C10.6495 11.1183 10.3315 11.25 10 11.25C9.66848 11.25 9.35054 11.1183 9.11612 10.8839C8.8817 10.6495 8.75 10.3315 8.75 10C8.75 9.66848 8.8817 9.35054 9.11612 9.11612C9.35054 8.8817 9.66848 8.75 10 8.75ZM10 3.75C10.3315 3.75 10.6495 3.8817 10.8839 4.11612C11.1183 4.35054 11.25 4.66848 11.25 5C11.25 5.33152 11.1183 5.64946 10.8839 5.88388C10.6495 6.1183 10.3315 6.25 10 6.25C9.66848 6.25 9.35054 6.1183 9.11612 5.88388C8.8817 5.64946 8.75 5.33152 8.75 5C8.75 4.66848 8.8817 4.35054 9.11612 4.11612C9.35054 3.8817 9.66848 3.75 10 3.75Z" fill="black"/>
</symbol>
 <g id="mingcute:more-2-line">
        <g id="Group">
        <path id="Vector" d="M10 13.75C10.3315 13.75 10.6495 13.8817 10.8839 14.1161C11.1183 14.3505 11.25 14.6685 11.25 15C11.25 15.3315 11.1183 15.6495 10.8839 15.8839C10.6495 16.1183 10.3315 16.25 10 16.25C9.66848 16.25 9.35054 16.1183 9.11612 15.8839C8.8817 15.6495 8.75 15.3315 8.75 15C8.75 14.6685 8.8817 14.3505 9.11612 14.1161C9.35054 13.8817 9.66848 13.75 10 13.75ZM10 8.75C10.3315 8.75 10.6495 8.8817 10.8839 9.11612C11.1183 9.35054 11.25 9.66848 11.25 10C11.25 10.3315 11.1183 10.6495 10.8839 10.8839C10.6495 11.1183 10.3315 11.25 10 11.25C9.66848 11.25 9.35054 11.1183 9.11612 10.8839C8.8817 10.6495 8.75 10.3315 8.75 10C8.75 9.66848 8.8817 9.35054 9.11612 9.11612C9.35054 8.8817 9.66848 8.75 10 8.75ZM10 3.75C10.3315 3.75 10.6495 3.8817 10.8839 4.11612C11.1183 4.35054 11.25 4.66848 11.25 5C11.25 5.33152 11.1183 5.64946 10.8839 5.88388C10.6495 6.1183 10.3315 6.25 10 6.25C9.66848 6.25 9.35054 6.1183 9.11612 5.88388C8.8817 5.64946 8.75 5.33152 8.75 5C8.75 4.66848 8.8817 4.35054 9.11612 4.11612C9.35054 3.8817 9.66848 3.75 10 3.75Z"/>
        </g>
    </g>
<symbol id="progress">   
  <path d="M16.3 9.5L11.26 14.54L9.34 11.66L5.5 15.5M16.3 9.5H13.9M16.3 9.5V11.9" stroke="black" stroke-width="1.5" stroke-linecap="round" stroke-linejoin="round"/>
</symbol>
<symbol id="package">  
<g id="package_10478353 1" clip-path="url(#clip0_642_4096)">
<path id="Vector" fill-rule="evenodd" clip-rule="evenodd" d="M4.91105 2.41601C4.9627 2.48717 5.02062 2.55714 5.08281 2.625H2.46875C1.62306 2.625 0.9375 3.31056 0.9375 4.15625C0.9375 4.84991 1.39874 5.43585 2.03125 5.62408V8.53125C2.03125 8.77288 2.22713 8.96875 2.46875 8.96875C2.71038 8.96875 2.90625 8.77288 2.90625 8.53125V5.6875H7.0625V12.6875H3.78125C3.29801 12.6875 2.90625 12.2957 2.90625 11.8125V10.7188C2.90625 10.4771 2.71038 10.2812 2.46875 10.2812C2.22713 10.2812 2.03125 10.4771 2.03125 10.7188V11.8125C2.03125 12.779 2.81475 13.5625 3.78125 13.5625H11.2188C12.1853 13.5625 12.9688 12.779 12.9688 11.8125V5.62408C13.6013 5.43585 14.0625 4.84991 14.0625 4.15625C14.0625 3.31056 13.3769 2.625 12.5312 2.625H9.91719C9.97938 2.55714 10.0373 2.48717 10.089 2.41601C10.2114 2.24739 10.3438 2.01136 10.3438 1.75C10.3438 1.49908 10.2357 1.28945 10.1083 1.13306C9.98122 0.977095 9.8177 0.851574 9.65394 0.754716C9.33409 0.565532 8.92977 0.4375 8.59375 0.4375C8.40337 0.4375 8.24972 0.520446 8.14431 0.600075C8.03681 0.681275 7.94518 0.784488 7.86868 0.886745C7.73076 1.07108 7.60594 1.30136 7.5 1.53351C7.39406 1.30136 7.26924 1.07108 7.13132 0.886745C7.05482 0.784488 6.96319 0.681275 6.85569 0.600075C6.75028 0.520446 6.59663 0.4375 6.40625 0.4375C6.07023 0.4375 5.66591 0.565532 5.34606 0.754716C5.1823 0.851574 5.01878 0.977095 4.89169 1.13306C4.76427 1.28945 4.65625 1.49908 4.65625 1.75C4.65625 2.01136 4.78859 2.24739 4.91105 2.41601ZM5.78927 1.50918C5.70212 1.56071 5.56415 1.64229 5.53221 1.7475L6.625 2.625H6.97294C6.91366 2.41867 6.83021 2.18366 6.73359 1.96303C6.63362 1.73473 6.52763 1.54046 6.43071 1.41094C6.39606 1.36461 6.36814 1.33418 6.34833 1.31548C6.19846 1.32983 5.98093 1.39581 5.7915 1.50785L5.78927 1.50918ZM1.8125 4.15625C1.8125 3.7938 2.10631 3.5 2.46875 3.5H7.0625V4.8125H2.46875C2.10631 4.8125 1.8125 4.5187 1.8125 4.15625ZM12.5312 4.8125H7.9375V3.5H12.5312C12.8937 3.5 13.1875 3.7938 13.1875 4.15625C13.1875 4.5187 12.8937 4.8125 12.5312 4.8125ZM7.9375 5.6875V12.6875H11.2188C11.702 12.6875 12.0938 12.2957 12.0938 11.8125V5.6875H7.9375ZM8.61838 2.53614C8.54801 2.57226 8.47252 2.60833 8.39394 2.62255L8.02706 2.625C8.08634 2.41867 8.16979 2.18366 8.26641 1.96303C8.36638 1.73473 8.47237 1.54046 8.56929 1.41094C8.60394 1.36461 8.63186 1.33418 8.65168 1.31548C8.80154 1.32983 9.01907 1.39581 9.2085 1.50785C9.40109 1.62175 9.52363 1.70538 9.38094 1.90188C9.30187 2.01079 9.18339 2.13376 9.04234 2.25089C8.90208 2.36736 8.75223 2.46746 8.61838 2.53614Z" fill="black"/>
</g>
<defs>
<clipPath id="clip0_642_4096">
<rect width="14" height="14" fill="white" transform="translate(0.5)"/>
</clipPath>
</defs>
</symbol>

</svg>

