<svg width="25" height="24" viewBox="0 0 25 24" fill="none" xmlns="http://www.w3.org/2000/svg">
<g clip-path="url(#clip0_3515_82283)">
<path d="M9.5 4.99951C9.5 4.20386 9.81607 3.4408 10.3787 2.87819C10.9413 2.31558 11.7044 1.99951 12.5 1.99951C13.2956 1.99951 14.0587 2.31558 14.6213 2.87819C15.1839 3.4408 15.5 4.20386 15.5 4.99951V9.99951C15.5 10.7952 15.1839 11.5582 14.6213 12.1208C14.0587 12.6834 13.2956 12.9995 12.5 12.9995C11.7044 12.9995 10.9413 12.6834 10.3787 12.1208C9.81607 11.5582 9.5 10.7952 9.5 9.99951V4.99951Z" stroke="white" stroke-width="1.49646" stroke-linecap="round" stroke-linejoin="round"/>
<path d="M5.5 10C5.5 11.8565 6.2375 13.637 7.55025 14.9497C8.86301 16.2625 10.6435 17 12.5 17C14.3565 17 16.137 16.2625 17.4497 14.9497C18.7625 13.637 19.5 11.8565 19.5 10" stroke="white" stroke-width="1.49646" stroke-linecap="round" stroke-linejoin="round"/>
<path d="M8.5 21H16.5" stroke="white" stroke-width="1.49646" stroke-linecap="round" stroke-linejoin="round"/>
<path d="M12.5 16.9995V20.9995" stroke="white" stroke-width="1.49646" stroke-linecap="round" stroke-linejoin="round"/>
</g>
<defs>
<clipPath id="clip0_3515_82283">
<rect width="24" height="24" fill="white" transform="translate(0.5)"/>
</clipPath>
</defs>
</svg>
