<svg width="16" height="16" viewBox="0 0 16 16" fill="none" xmlns="http://www.w3.org/2000/svg">
<g id="pencil" clip-path="url(#clip0_1987_2989)">
<g id="Group">
<path id="Vector" fill-rule="evenodd" clip-rule="evenodd" d="M11.7773 1.13872C12.6289 0.287092 14.0097 0.287092 14.8613 1.13872C15.7129 1.99036 15.7129 3.37112 14.8613 4.22275L8.23984 10.8442C8.16729 10.9167 8.07421 10.9652 7.97319 10.983L5.08691 11.4924C4.92624 11.5207 4.76184 11.4689 4.64646 11.3535C4.53109 11.2382 4.47926 11.0738 4.50761 10.9131L5.01696 8.02682C5.03479 7.9258 5.08326 7.83272 5.15581 7.76017L11.7773 1.13872ZM14.1542 1.84583C13.6931 1.38472 12.9455 1.38472 12.4844 1.84583L12.3286 2.00162L13.9984 3.67145L14.1542 3.51565C14.6153 3.05455 14.6153 2.30694 14.1542 1.84583ZM13.2913 4.37855L11.6215 2.70872L6.21646 8.11372L7.88629 9.78355L13.2913 4.37855ZM6.85369 10.1651L5.61654 10.3835L5.83486 9.14632L6.85369 10.1651Z" fill="black"/>
<path id="Vector_2" d="M13 11C12.7239 11 12.5 10.7761 12.5 10.5V8C12.5 7.72385 12.7239 7.5 13 7.5C13.2761 7.5 13.5 7.72385 13.5 8V10.5C13.5 10.7761 13.2761 11 13 11Z" fill="black"/>
<path id="Vector_3" d="M13 12.5C12.7239 12.5 12.5 12.7239 12.5 13V14C12.5 14.2761 12.2761 14.5 12 14.5H2C1.72386 14.5 1.5 14.2761 1.5 14V4C1.5 3.72385 1.72386 3.5 2 3.5H8C8.27615 3.5 8.5 3.27615 8.5 3C8.5 2.72385 8.27615 2.5 8 2.5H2C1.17157 2.5 0.5 3.17158 0.5 4V14C0.5 14.8284 1.17157 15.5 2 15.5H12C12.8284 15.5 13.5 14.8284 13.5 14V13C13.5 12.7239 13.2761 12.5 13 12.5Z" fill="black"/>
</g>
</g>
<defs>
<clipPath id="clip0_1987_2989">
<rect width="16" height="16" fill="white"/>
</clipPath>
</defs>
</svg>
