<svg xmlns="http://www.w3.org/2000/svg" width="9" height="8" viewBox="0 0 9 8" fill="none">
<g id="close">
<path d="M0.394219 7.86877C0.3337 7.81157 0.293354 7.74427 0.273181 7.66688C0.25637 7.58948 0.258051 7.51209 0.278224 7.4347C0.298397 7.35731 0.337062 7.29001 0.394219 7.23281L3.62191 3.99748L0.394219 0.767192C0.337062 0.709989 0.298397 0.642692 0.278224 0.5653C0.261413 0.487907 0.261413 0.410515 0.278224 0.333123C0.298397 0.255731 0.337062 0.188433 0.394219 0.13123C0.451376 0.0706625 0.51862 0.0319664 0.59595 0.015142C0.67328 -0.00504732 0.75061 -0.00504732 0.82794 0.015142C0.908633 0.0319664 0.977557 0.0706625 1.03471 0.13123L4.26241 3.36151L7.4901 0.13123C7.54726 0.0706625 7.6145 0.0319664 7.69183 0.015142C7.76916 -0.00504732 7.84649 -0.00504732 7.92382 0.015142C8.00115 0.0319664 8.07007 0.0706625 8.13059 0.13123C8.18775 0.188433 8.22642 0.255731 8.24659 0.333123C8.26676 0.410515 8.26676 0.487907 8.24659 0.5653C8.22642 0.642692 8.18775 0.709989 8.13059 0.767192L4.9029 3.99748L8.13059 7.23281C8.18775 7.29001 8.22473 7.35731 8.24155 7.4347C8.26172 7.51209 8.26172 7.58948 8.24155 7.66688C8.22473 7.74427 8.18775 7.81157 8.13059 7.86877C8.07344 7.92934 8.00451 7.96803 7.92382 7.98486C7.84649 8.00505 7.76916 8.00505 7.69183 7.98486C7.6145 7.96467 7.54726 7.92597 7.4901 7.86877L4.26241 4.63849L1.03471 7.86877C0.977557 7.92597 0.910314 7.96467 0.832984 7.98486C0.755653 8.00505 0.678323 8.00505 0.600993 7.98486C0.523663 7.96467 0.454738 7.92597 0.394219 7.86877Z"/>
</g>
</svg>
