<svg width="25" height="25" id="icon" viewBox="0 0 25 25" xmlns="http://www.w3.org/2000/svg">
<path fill-rule="evenodd" clip-rule="evenodd" d="M12.75 1.25C11.7145 1.25 10.875 2.08947 10.875 3.125C10.875 3.89387 11.3378 4.55465 12 4.844V6.125C12 6.53923 12.3358 6.875 12.75 6.875C13.1642 6.875 13.5 6.53923 13.5 6.125V4.844C14.1622 4.55465 14.625 3.89387 14.625 3.125C14.625 2.08947 13.7855 1.25 12.75 1.25ZM12.375 3.125C12.375 2.91789 12.5429 2.75 12.75 2.75C12.9571 2.75 13.125 2.91789 13.125 3.125C13.125 3.3321 12.9571 3.5 12.75 3.5C12.5429 3.5 12.375 3.3321 12.375 3.125Z" />
<path d="M6.75 4.25C4.67895 4.25 3 5.92895 3 8V18.5C3 20.5711 4.67895 22.25 6.75 22.25H10.125C10.5392 22.25 10.875 22.5858 10.875 23C10.875 23.4142 10.5392 23.75 10.125 23.75H6.75C3.8505 23.75 1.5 21.3995 1.5 18.5V8C1.5 5.1005 3.8505 2.75 6.75 2.75H9C9.41423 2.75 9.75 3.08579 9.75 3.5C9.75 3.91421 9.41423 4.25 9 4.25H6.75Z" />
<path d="M13.875 23.75C13.4608 23.75 13.125 23.4142 13.125 23C13.125 22.5858 13.4608 22.25 13.875 22.25H18.75C20.8211 22.25 22.5 20.5711 22.5 18.5V8C22.5 5.92895 20.8211 4.25 18.75 4.25H16.5C16.0858 4.25 15.75 3.91421 15.75 3.5C15.75 3.08579 16.0858 2.75 16.5 2.75H18.75C21.6495 2.75 24 5.1005 24 8V18.5C24 21.3995 21.6495 23.75 18.75 23.75H13.875Z" />
<path d="M6.75 8.75C6.33578 8.75 6 9.08578 6 9.5C6 9.91422 6.33578 10.25 6.75 10.25H12.75C13.1642 10.25 13.5 9.91422 13.5 9.5C13.5 9.08578 13.1642 8.75 12.75 8.75H6.75Z" />
<path d="M13.5 13.25C13.5 12.8358 13.1642 12.5 12.75 12.5H6.75C6.33578 12.5 6 12.8358 6 13.25C6 13.6642 6.33578 14 6.75 14H12.75C13.1642 14 13.5 13.6642 13.5 13.25Z" />
<path d="M16.5 14C16.0858 14 15.75 13.6642 15.75 13.25C15.75 12.8358 16.0858 12.5 16.5 12.5H18.75C19.1642 12.5 19.5 12.8358 19.5 13.25C19.5 13.6642 19.1642 14 18.75 14H16.5Z" />
<path d="M6.75 16.25C6.33578 16.25 6 16.5858 6 17C6 17.4142 6.33578 17.75 6.75 17.75H18.75C19.1642 17.75 19.5 17.4142 19.5 17C19.5 16.5858 19.1642 16.25 18.75 16.25H6.75Z" />
</svg>
