<svg width="24" height="24" viewBox="0 0 24 24" fill="none" xmlns="http://www.w3.org/2000/svg">
<g id="List Icon" clip-path="url(#clip0_2908_2781)">
<g id="List Icon_2">
<path id="Vector" d="M0.75 7.5C0.75 3.77209 3.77209 0.75 7.5 0.75H16.5C20.2279 0.75 23.25 3.77209 23.25 7.5V8.625C23.25 9.03922 22.9142 9.375 22.5 9.375C22.0858 9.375 21.75 9.03922 21.75 8.625V7.5C21.75 4.6005 19.3995 2.25 16.5 2.25H7.5C4.6005 2.25 2.25 4.6005 2.25 7.5V16.5C2.25 19.3995 4.6005 21.75 7.5 21.75H16.5C19.3995 21.75 21.75 19.3995 21.75 16.5V12.375C21.75 11.9608 22.0858 11.625 22.5 11.625C22.9142 11.625 23.25 11.9608 23.25 12.375V16.5C23.25 20.2279 20.2279 23.25 16.5 23.25H7.5C3.77209 23.25 0.75 20.2279 0.75 16.5V7.5Z" fill="white"/>
<path id="Vector_2" d="M6.75 7.5C6.75 7.91422 6.41422 8.25 6 8.25C5.58578 8.25 5.25 7.91422 5.25 7.5C5.25 7.08578 5.58578 6.75 6 6.75C6.41422 6.75 6.75 7.08578 6.75 7.5Z" fill="white"/>
<path id="Vector_3" d="M7.875 7.5C7.875 7.08578 8.21078 6.75 8.625 6.75H13.125C13.5392 6.75 13.875 7.08578 13.875 7.5C13.875 7.91422 13.5392 8.25 13.125 8.25H8.625C8.21078 8.25 7.875 7.91422 7.875 7.5Z" fill="white"/>
<path id="Vector_4" d="M16.125 7.5C16.125 7.91422 16.4608 8.25 16.875 8.25H18C18.4142 8.25 18.75 7.91422 18.75 7.5C18.75 7.08578 18.4142 6.75 18 6.75H16.875C16.4608 6.75 16.125 7.08578 16.125 7.5Z" fill="white"/>
<path id="Vector_5" d="M8.625 11.25C8.21078 11.25 7.875 11.5858 7.875 12C7.875 12.4142 8.21078 12.75 8.625 12.75H18C18.4142 12.75 18.75 12.4142 18.75 12C18.75 11.5858 18.4142 11.25 18 11.25H8.625Z" fill="white"/>
<path id="Vector_6" d="M8.625 15.75C8.21078 15.75 7.875 16.0858 7.875 16.5C7.875 16.9142 8.21078 17.25 8.625 17.25H10.875C11.2892 17.25 11.625 16.9142 11.625 16.5C11.625 16.0858 11.2892 15.75 10.875 15.75H8.625Z" fill="white"/>
<path id="Vector_7" d="M18 17.25H14.625C14.2108 17.25 13.875 16.9142 13.875 16.5C13.875 16.0858 14.2108 15.75 14.625 15.75H18C18.4142 15.75 18.75 16.0858 18.75 16.5C18.75 16.9142 18.4142 17.25 18 17.25Z" fill="white"/>
<path id="Vector_8" d="M6.75 12C6.75 12.4142 6.41422 12.75 6 12.75C5.58578 12.75 5.25 12.4142 5.25 12C5.25 11.5858 5.58578 11.25 6 11.25C6.41422 11.25 6.75 11.5858 6.75 12Z" fill="white"/>
<path id="Vector_9" d="M6 17.25C6.41422 17.25 6.75 16.9142 6.75 16.5C6.75 16.0858 6.41422 15.75 6 15.75C5.58578 15.75 5.25 16.0858 5.25 16.5C5.25 16.9142 5.58578 17.25 6 17.25Z" fill="white"/>
</g>
</g>
<defs>
<clipPath id="clip0_2908_2781">
<rect width="24" height="24" fill="white"/>
</clipPath>
</defs>
</svg>
