<svg width="40" height="40" viewBox="0 0 40 40" id="filter" xmlns="http://www.w3.org/2000/svg">
<path fill-rule="evenodd" clip-rule="evenodd" d="M13.9973 12.5C13.1889 12.5 12.7266 13.4073 13.1754 14.065L15.1626 16.9779C15.31 17.194 15.5991 17.2599 15.8256 17.1291C16.0776 16.9837 16.1526 16.6547 15.9887 16.4144L14.0014 13.5015L14.0007 13.5003L14.0008 13.5H25.9997L25.9998 13.5003L25.9991 13.5015L21.163 20.5903C21.0493 20.7569 20.9887 20.9539 20.9887 21.1553V26.5H19.0118V21.1553C19.0118 20.9539 18.9512 20.7569 18.8375 20.5903L17.4015 18.4854C17.2541 18.2693 16.965 18.2034 16.7385 18.3341C16.4866 18.4796 16.4115 18.8086 16.5755 19.049L18.0114 21.1538L18.0116 21.1543L18.0118 21.1553V26.5C18.0118 27.0486 18.4541 27.5 19.0079 27.5H20.9926C21.5464 27.5 21.9887 27.0486 21.9887 26.5V21.1553C21.9887 21.1544 21.9891 21.1538 21.9891 21.1538L26.8251 14.065C27.2739 13.4073 26.8116 12.5 26.0032 12.5H13.9973ZM13.9973 13.4996C13.9981 13.4993 13.9989 13.4989 13.9997 13.4986L14.0001 13.5H13.9973C13.9959 13.5 13.9953 13.5001 13.9953 13.5001C13.9953 13.5001 13.9959 13.5 13.9966 13.4998L13.9973 13.4996Z" />
</svg>
