<svg xmlns="http://www.w3.org/2000/svg" id="sort" width="16" height="16" viewBox="0 0 16 16">
<g clip-path="url(#clip0_1935_6542)">
<path d="M4.25 0.5C3.97385 0.5 3.75 0.723857 3.75 1V13.7929L1.35355 11.3965C1.15829 11.2012 0.841707 11.2012 0.646447 11.3965C0.451184 11.5917 0.451184 11.9083 0.646447 12.1035L3.89645 15.3535C4.0917 15.5488 4.4083 15.5488 4.60355 15.3535L7.85355 12.1035C8.04882 11.9083 8.04882 11.5917 7.85355 11.3965C7.6583 11.2012 7.3417 11.2012 7.14645 11.3965L4.75 13.7929V1C4.75 0.723857 4.52615 0.5 4.25 0.5Z" />
<path d="M10.75 8.5C10.75 8.77615 10.5261 9 10.25 9H6.25C5.97385 9 5.75 8.77615 5.75 8.5C5.75 8.22385 5.97385 8 6.25 8H10.25C10.5261 8 10.75 8.22385 10.75 8.5Z" />
<path d="M11.75 6.5C12.0261 6.5 12.25 6.27615 12.25 6C12.25 5.72385 12.0261 5.5 11.75 5.5H6.25C5.97385 5.5 5.75 5.72385 5.75 6C5.75 6.27615 5.97385 6.5 6.25 6.5H11.75Z" />
<path d="M13.75 3.5C13.75 3.77615 13.5261 4 13.25 4H6.25C5.97385 4 5.75 3.77615 5.75 3.5C5.75 3.22385 5.97385 3 6.25 3H13.25C13.5261 3 13.75 3.22385 13.75 3.5Z" />
<path d="M15 1.5C15.2761 1.5 15.5 1.27614 15.5 1C15.5 0.723857 15.2761 0.5 15 0.5H6.25C5.97385 0.5 5.75 0.723857 5.75 1C5.75 1.27614 5.97385 1.5 6.25 1.5H15Z" />
</g>
<defs>
<clipPath id="clip0_1935_6542">
<rect width="16" height="16" />
</clipPath>
</defs>
</svg>