<svg width="21" height="20" viewBox="0 0 21 20" fill="none" xmlns="http://www.w3.org/2000/svg">
<g id="Eye">
<path id="&#244;&#128;&#155;&#191;" d="M10.9609 19.9219C9.58724 19.9219 8.29818 19.6615 7.09375 19.1406C5.88932 18.6263 4.83138 17.9134 3.91992 17.002C3.00846 16.0905 2.29232 15.0326 1.77148 13.8281C1.25716 12.6237 1 11.3346 1 9.96094C1 8.58724 1.25716 7.29818 1.77148 6.09375C2.29232 4.88932 3.00846 3.83138 3.91992 2.91992C4.83138 2.00195 5.88932 1.28581 7.09375 0.771484C8.29818 0.257161 9.58724 0 10.9609 0C12.3346 0 13.6237 0.257161 14.8281 0.771484C16.0326 1.28581 17.0905 2.00195 18.002 2.91992C18.9134 3.83138 19.6263 4.88932 20.1406 6.09375C20.6615 7.29818 20.9219 8.58724 20.9219 9.96094C20.9219 11.3346 20.6615 12.6237 20.1406 13.8281C19.6263 15.0326 18.9134 16.0905 18.002 17.002C17.0905 17.9134 16.0326 18.6263 14.8281 19.1406C13.6237 19.6615 12.3346 19.9219 10.9609 19.9219ZM10.9609 18.2617C12.1068 18.2617 13.181 18.0469 14.1836 17.6172C15.1862 17.1875 16.0684 16.5918 16.8301 15.8301C17.5918 15.0684 18.1875 14.1862 18.6172 13.1836C19.0469 12.181 19.2617 11.1068 19.2617 9.96094C19.2617 8.8151 19.0469 7.74089 18.6172 6.73828C18.1875 5.72917 17.5918 4.84701 16.8301 4.0918C16.0684 3.33008 15.1862 2.73438 14.1836 2.30469C13.181 1.875 12.1068 1.66016 10.9609 1.66016C9.8151 1.66016 8.74089 1.875 7.73828 2.30469C6.73568 2.73438 5.85352 3.33008 5.0918 4.0918C4.33008 4.84701 3.73438 5.72917 3.30469 6.73828C2.875 7.74089 2.66016 8.8151 2.66016 9.96094C2.66016 11.1068 2.875 12.181 3.30469 13.1836C3.73438 14.1862 4.33008 15.0684 5.0918 15.8301C5.85352 16.5918 6.73568 17.1875 7.73828 17.6172C8.74089 18.0469 9.8151 18.2617 10.9609 18.2617ZM10.9512 14.082C10.1829 14.082 9.46354 13.9746 8.79297 13.7598C8.1224 13.5384 7.51367 13.2585 6.9668 12.9199C6.42643 12.5749 5.96094 12.2135 5.57031 11.8359C5.1862 11.4518 4.88997 11.0938 4.68164 10.7617C4.47331 10.4232 4.36914 10.1562 4.36914 9.96094C4.36914 9.76562 4.47331 9.50195 4.68164 9.16992C4.88997 8.83138 5.1862 8.47331 5.57031 8.0957C5.96094 7.71159 6.42643 7.35026 6.9668 7.01172C7.50716 6.66667 8.11263 6.38672 8.7832 6.17188C9.45378 5.95052 10.1764 5.83984 10.9512 5.83984C11.7259 5.83984 12.4486 5.95052 13.1191 6.17188C13.7897 6.38672 14.3952 6.66667 14.9355 7.01172C15.4759 7.35026 15.9382 7.71159 16.3223 8.0957C16.7064 8.47331 17.0026 8.83138 17.2109 9.16992C17.4193 9.50195 17.5234 9.76562 17.5234 9.96094C17.5234 10.1562 17.4193 10.4232 17.2109 10.7617C17.0026 11.0938 16.7064 11.4518 16.3223 11.8359C15.9382 12.2135 15.4759 12.5749 14.9355 12.9199C14.3952 13.2585 13.7897 13.5384 13.1191 13.7598C12.4486 13.9746 11.7259 14.082 10.9512 14.082ZM10.9512 12.6562C11.446 12.6562 11.8984 12.5358 12.3086 12.2949C12.7188 12.0475 13.0443 11.7188 13.2852 11.3086C13.526 10.8984 13.6465 10.4492 13.6465 9.96094C13.6465 9.45964 13.526 9.00716 13.2852 8.60352C13.0443 8.19336 12.7188 7.86784 12.3086 7.62695C11.8984 7.38607 11.446 7.26562 10.9512 7.26562C10.4499 7.26562 9.99414 7.38607 9.58398 7.62695C9.17383 7.86784 8.84505 8.19336 8.59766 8.60352C8.35677 9.00716 8.23633 9.45964 8.23633 9.96094C8.23633 10.4492 8.35677 10.8984 8.59766 11.3086C8.84505 11.7188 9.17383 12.0475 9.58398 12.2949C9.99414 12.5358 10.4499 12.6562 10.9512 12.6562ZM10.9609 11.1523C10.6354 11.1523 10.3522 11.0319 10.1113 10.791C9.87695 10.5501 9.75977 10.2734 9.75977 9.96094C9.75977 9.64844 9.87695 9.37175 10.1113 9.13086C10.3522 8.88997 10.6354 8.76953 10.9609 8.76953C11.2734 8.76953 11.5469 8.88997 11.7812 9.13086C12.0221 9.37175 12.1426 9.64844 12.1426 9.96094C12.1426 10.2734 12.0221 10.5501 11.7812 10.791C11.5469 11.0319 11.2734 11.1523 10.9609 11.1523Z" fill="#9F9F9F"/>
<line id="Line 4" x1="1.27543" y1="0.490197" x2="19.5215" y2="18.7363" stroke="#9F9F9F"/>
</g>
</svg>
