<svg width="25" height="25" viewBox="0 0 25 25" fill="none" xmlns="http://www.w3.org/2000/svg">
<g id="audio_16362692 1">
<g id="Group">
<path id="Vector" d="M12.5 4.625C12.9142 4.625 13.25 4.96078 13.25 5.375V19.625C13.25 20.0392 12.9142 20.375 12.5 20.375C12.0858 20.375 11.75 20.0392 11.75 19.625V5.375C11.75 4.96078 12.0858 4.625 12.5 4.625Z" fill="black"/>
<path id="Vector_2" d="M2 6.125C2.41421 6.125 2.75 6.46078 2.75 6.875V18.125C2.75 18.5392 2.41421 18.875 2 18.875C1.58579 18.875 1.25 18.5392 1.25 18.125V6.875C1.25 6.46078 1.58579 6.125 2 6.125Z" fill="black"/>
<path id="Vector_3" d="M5 9.875C5.41422 9.875 5.75 10.2108 5.75 10.625V14.375C5.75 14.7892 5.41422 15.125 5 15.125C4.58578 15.125 4.25 14.7892 4.25 14.375V10.625C4.25 10.2108 4.58578 9.875 5 9.875Z" fill="black"/>
<path id="Vector_4" d="M9.5 8C9.5 7.58578 9.16422 7.25 8.75 7.25C8.33578 7.25 8 7.58578 8 8V17C8 17.4142 8.33578 17.75 8.75 17.75C9.16422 17.75 9.5 17.4142 9.5 17V8Z" fill="black"/>
<path id="Vector_5" d="M17 8C17 7.58578 16.6642 7.25 16.25 7.25C15.8358 7.25 15.5 7.58578 15.5 8V17C15.5 17.4142 15.8358 17.75 16.25 17.75C16.6642 17.75 17 17.4142 17 17V8Z" fill="black"/>
<path id="Vector_6" d="M20 9.875C20.4142 9.875 20.75 10.2108 20.75 10.625V14.375C20.75 14.7892 20.4142 15.125 20 15.125C19.5858 15.125 19.25 14.7892 19.25 14.375V10.625C19.25 10.2108 19.5858 9.875 20 9.875Z" fill="black"/>
<path id="Vector_7" d="M23.75 6.875C23.75 6.46078 23.4142 6.125 23 6.125C22.5858 6.125 22.25 6.46078 22.25 6.875V18.125C22.25 18.5392 22.5858 18.875 23 18.875C23.4142 18.875 23.75 18.5392 23.75 18.125V6.875Z" fill="black"/>
</g>
</g>
</svg>
