<svg width="16" height="16" viewBox="0 0 16 16" fill="none" xmlns="http://www.w3.org/2000/svg">
<g clip-path="url(#clip0_1944_4790)">
<g clip-path="url(#clip1_1944_4790)">
<path fill-rule="evenodd" clip-rule="evenodd" d="M0.5 4.5C0.5 2.29086 2.29086 0.5 4.5 0.5H11.5C13.7092 0.5 15.5 2.29086 15.5 4.5V11.5C15.5 13.7092 13.7092 15.5 11.5 15.5H4.5C2.29086 15.5 0.5 13.7092 0.5 11.5V4.5ZM11.6353 5.8187C11.8113 5.60595 11.7815 5.29077 11.5687 5.11475C11.3559 4.93872 11.0408 4.96852 10.8647 5.1813L7.12313 9.70413L5.14275 7.19058C4.97185 6.97365 4.65747 6.93635 4.44058 7.10725C4.22365 7.27815 4.18635 7.59253 4.35725 7.80942L6.7209 10.8094C6.8144 10.9281 6.95657 10.9982 7.10768 11C7.25878 11.0018 7.40258 10.9352 7.4989 10.8187L11.6353 5.8187Z" fill="#9360F0"/>
</g>
</g>
<defs>
<clipPath id="clip0_1944_4790">
<rect width="16" height="16" fill="white"/>
</clipPath>
<clipPath id="clip1_1944_4790">
<rect width="16" height="16" fill="white"/>
</clipPath>
</defs>
</svg>
