<svg  width="12" height="12" viewBox="0 0 12 12" fill="none" xmlns="http://www.w3.org/2000/svg">
<g id="search-eye">
<g  clip-path="url(#clip0_2185_31084)">
<path d="M9.414 1.77704C7.52813 -0.0923455 4.47187 -0.0923457 2.586 1.77704L0.486002 3.85868C0.414962 3.9291 0.375 4.02497 0.375 4.125C0.375 4.22503 0.414962 4.3209 0.486002 4.39132L2.586 6.47297C3.41529 7.29501 4.47092 7.75556 5.55381 7.85464C5.62281 7.60196 5.7225 7.35591 5.85289 7.12239C4.85783 7.08705 3.87336 6.69302 3.114 5.94032L1.28267 4.125L3.114 2.30968C4.70753 0.730102 7.29247 0.730102 8.886 2.30968L10.7173 4.125L9.33551 5.49473C9.61046 5.54663 9.88007 5.63379 10.137 5.75623L11.514 4.39132C11.585 4.3209 11.625 4.22503 11.625 4.125C11.625 4.02497 11.585 3.9291 11.514 3.85868L9.414 1.77704Z" fill="black"/>
<path fill-rule="evenodd" clip-rule="evenodd" d="M6.47816 6.32409C6.83843 5.98654 7.25619 5.74537 7.6986 5.60061C8.04206 5.20556 8.25 4.68956 8.25 4.125C8.25 2.88236 7.24264 1.875 6 1.875C4.75736 1.875 3.75 2.88236 3.75 4.125C3.75 5.36764 4.75736 6.375 6 6.375C6.16408 6.375 6.32406 6.35743 6.47816 6.32409ZM6 2.625C6.82843 2.625 7.5 3.29657 7.5 4.125C7.5 4.95343 6.82843 5.625 6 5.625C5.17157 5.625 4.5 4.95343 4.5 4.125C4.5 3.29657 5.17157 2.625 6 2.625Z" fill="black"/>
<path d="M6.79761 6.79761C7.86111 5.73413 9.58536 5.73413 10.6488 6.79761C11.6224 7.77115 11.7047 9.29837 10.8959 10.3656L11.5152 10.9848C11.6616 11.1313 11.6616 11.3687 11.5152 11.5152C11.3687 11.6616 11.1313 11.6616 10.9848 11.5152L10.3656 10.8959C9.50114 11.5511 8.33489 11.6215 7.40556 11.1072C7.20407 10.9958 7.18832 10.7248 7.35115 10.562C7.48367 10.4295 7.69109 10.416 7.85959 10.498C8.59532 10.8561 9.50745 10.7296 10.1185 10.1185C10.8891 9.34793 10.8891 8.09854 10.1185 7.32796C9.34793 6.55735 8.09854 6.55735 7.32795 7.32796C6.82292 7.83297 6.64889 8.54365 6.8058 9.19041C6.8431 9.34407 6.8115 9.51064 6.6997 9.62245C6.51021 9.81194 6.19112 9.76264 6.11434 9.5059C5.83679 8.57774 6.06454 7.5307 6.79761 6.79761Z" fill="black"/>
</g>
<defs>
<clipPath id="clip0_2185_31084">
<rect width="12" height="12" fill="white"/>
</clipPath>
</defs>
</g>
</svg>
