<svg width="20" height="20" viewBox="0 0 20 20" fill="none" xmlns="http://www.w3.org/2000/svg">
<g id="export">
<path id="Vector" d="M10.6313 1.25005C11.1588 1.2463 11.6862 1.46255 12.0887 1.89505L14.5263 4.45755C14.7925 4.74255 14.7925 5.20755 14.5263 5.49255C14.4653 5.55986 14.391 5.61366 14.308 5.65048C14.225 5.6873 14.1352 5.70632 14.0444 5.70632C13.9536 5.70632 13.8638 5.6873 13.7808 5.65048C13.6978 5.61366 13.6234 5.55986 13.5625 5.49255L11.25 3.0638V13.055C11.25 13.4388 10.97 13.75 10.625 13.75C10.28 13.75 10 13.4388 10 13.055V3.10505L7.725 5.49255C7.66407 5.55966 7.58979 5.61328 7.50691 5.64998C7.42403 5.68667 7.33439 5.70563 7.24375 5.70563C7.15311 5.70563 7.06347 5.68667 6.98059 5.64998C6.89771 5.61328 6.82343 5.55966 6.7625 5.49255C6.63382 5.35066 6.56254 5.16597 6.56254 4.97442C6.56254 4.78288 6.63382 4.59818 6.7625 4.4563L9.2 1.8938C9.3812 1.69515 9.60105 1.53559 9.84608 1.42489C10.0911 1.3142 10.3562 1.2547 10.625 1.25005H10.6313ZM5.225 8.75005C4.63375 8.75005 4.125 9.11755 4.01 9.6288L2.52375 16.1913C2.50964 16.2621 2.50169 16.3341 2.5 16.4063C2.5 17.01 3.055 17.5 3.7375 17.5H17.5125C17.5942 17.5 17.675 17.493 17.755 17.4788C18.4263 17.36 18.8612 16.7838 18.7275 16.1913L17.24 9.6288C17.125 9.11755 16.6162 8.75005 16.0275 8.75005H5.225ZM7.5 7.50005V8.75005H13.75V7.50005H16.0312C17.2137 7.50005 18.2313 8.25755 18.4637 9.3088L19.9513 16.0588C20.22 17.2775 19.3487 18.4625 18.0063 18.7063C17.8456 18.7368 17.6823 18.7514 17.5188 18.75H3.73125C2.36 18.75 1.25 17.7425 1.25 16.5C1.25 16.3509 1.26625 16.2038 1.29875 16.0588L2.78625 9.3088C3.0175 8.25755 4.03625 7.50005 5.2175 7.50005H7.5Z" fill="black"/>
</g>
</svg>
