<svg width="16" height="14" viewBox="0 0 16 14" fill="none" xmlns="http://www.w3.org/2000/svg">
<g id="copy">
<path id="Vector" d="M0.5 2C0.5 0.89543 1.39543 0 2.5 0H10C11.1046 0 12 0.89543 12 2V12C12 13.1046 11.1046 14 10 14H2.5C1.39543 14 0.5 13.1046 0.5 12V6C0.5 5.72385 0.723857 5.5 1 5.5C1.27614 5.5 1.5 5.72385 1.5 6V12C1.5 12.5523 1.94772 13 2.5 13H10C10.5523 13 11 12.5523 11 12V2C11 1.44772 10.5523 1 10 1H2.5C1.94772 1 1.5 1.44772 1.5 2V3.5C1.5 3.77615 1.27614 4 1 4C0.723857 4 0.5 3.77615 0.5 3.5V2Z" fill="white"/>
<path id="Vector_2" d="M3.25 4C3.25 3.72385 3.47385 3.5 3.75 3.5H8.75C9.02615 3.5 9.25 3.72385 9.25 4C9.25 4.27615 9.02615 4.5 8.75 4.5H3.75C3.47385 4.5 3.25 4.27615 3.25 4Z" fill="white"/>
<path id="Vector_3" d="M3.25 7C3.25 6.72385 3.47385 6.5 3.75 6.5H8.75C9.02615 6.5 9.25 6.72385 9.25 7C9.25 7.27615 9.02615 7.5 8.75 7.5H3.75C3.47385 7.5 3.25 7.27615 3.25 7Z" fill="white"/>
<path id="Vector_4" d="M3.75 9.5C3.47385 9.5 3.25 9.72385 3.25 10C3.25 10.2761 3.47385 10.5 3.75 10.5H6.25C6.52615 10.5 6.75 10.2761 6.75 10C6.75 9.72385 6.52615 9.5 6.25 9.5H3.75Z" fill="white"/>
<path id="Vector_5" d="M13.25 12.25C12.9739 12.25 12.75 12.0261 12.75 11.75V2.25C12.75 1.97385 12.9739 1.75 13.25 1.75C13.5261 1.75 13.75 1.97385 13.75 2.25V11.75C13.75 12.0261 13.5261 12.25 13.25 12.25Z" fill="white"/>
<path id="Vector_6" d="M15 10.5C14.7239 10.5 14.5 10.2761 14.5 10V4C14.5 3.72385 14.7239 3.5 15 3.5C15.2761 3.5 15.5 3.72385 15.5 4V10C15.5 10.2761 15.2761 10.5 15 10.5Z" fill="white"/>
</g>
</svg>
