<svg id="calendar" width="17" height="16" viewBox="0 0 17 16" xmlns="http://www.w3.org/2000/svg">
<path d="M10.25 1.5C10.25 1.22386 10.0261 1 9.75 1H5.75C5.75 0.723857 5.52615 0.5 5.25 0.5C4.97385 0.5 4.75 0.723857 4.75 1V1.03095C2.77684 1.27699 1.25 2.9602 1.25 5V11.5C1.25 13.7092 3.04085 15.5 5.25 15.5H11.75C13.9592 15.5 15.75 13.7092 15.75 11.5V5C15.75 3.13615 14.4752 1.57006 12.75 1.12602V1C12.75 0.723857 12.5261 0.5 12.25 0.5C11.9739 0.5 11.75 0.723857 11.75 1V2.25C11.75 2.52615 11.9739 2.75 12.25 2.75C12.5261 2.75 12.75 2.52615 12.75 2.25V2.17071C13.9152 2.58255 14.75 3.69378 14.75 5V11.5C14.75 13.1568 13.4068 14.5 11.75 14.5H5.25C3.59315 14.5 2.25 13.1568 2.25 11.5V5C2.25 3.5135 3.33115 2.27952 4.75 2.04148V2.25C4.75 2.52615 4.97385 2.75 5.25 2.75C5.52615 2.75 5.75 2.52615 5.75 2.25V2H9.75C10.0261 2 10.25 1.77614 10.25 1.5Z" fill="black"/>
<path d="M4 5.25C4 4.97385 4.22385 4.75 4.5 4.75H12.5C12.7761 4.75 13 4.97385 13 5.25C13 5.52615 12.7761 5.75 12.5 5.75H4.5C4.22385 5.75 4 5.52615 4 5.25Z" fill="black"/>
<path d="M6 8.25C6 8.52615 5.77615 8.75 5.5 8.75C5.22385 8.75 5 8.52615 5 8.25C5 7.97385 5.22385 7.75 5.5 7.75C5.77615 7.75 6 7.97385 6 8.25Z" fill="black"/>
<path d="M9 8.25C9 8.52615 8.77615 8.75 8.5 8.75C8.22385 8.75 8 8.52615 8 8.25C8 7.97385 8.22385 7.75 8.5 7.75C8.77615 7.75 9 7.97385 9 8.25Z" fill="black"/>
<path d="M12 8.25C12 8.52615 11.7761 8.75 11.5 8.75C11.2239 8.75 11 8.52615 11 8.25C11 7.97385 11.2239 7.75 11.5 7.75C11.7761 7.75 12 7.97385 12 8.25Z" fill="black"/>
<path d="M6 11.5C6 11.7761 5.77615 12 5.5 12C5.22385 12 5 11.7761 5 11.5C5 11.2239 5.22385 11 5.5 11C5.77615 11 6 11.2239 6 11.5Z" fill="black"/>
<path d="M9 11.5C9 11.7761 8.77615 12 8.5 12C8.22385 12 8 11.7761 8 11.5C8 11.2239 8.22385 11 8.5 11C8.77615 11 9 11.2239 9 11.5Z" fill="black"/>
<path d="M12 11.5C12 11.7761 11.7761 12 11.5 12C11.2239 12 11 11.7761 11 11.5C11 11.2239 11.2239 11 11.5 11C11.7761 11 12 11.2239 12 11.5Z" fill="black"/>
</svg>
