<svg  width="20" height="20" viewBox="0 0 20 20" fill="none" xmlns="http://www.w3.org/2000/svg">
<g id="import">
<path id="Vector" d="M11.002 12.3925L13.3145 9.96375C13.3754 9.89664 13.4497 9.84302 13.5326 9.80632C13.6154 9.76963 13.7051 9.75067 13.7957 9.75067C13.8864 9.75067 13.976 9.76963 14.0589 9.80632C14.1418 9.84302 14.216 9.89664 14.277 9.96375C14.5445 10.2487 14.5445 10.7137 14.277 11L11.8395 13.5625C11.6577 13.7656 11.4352 13.928 11.1864 14.0392C10.9377 14.1504 10.6682 14.2079 10.3957 14.2079C10.1232 14.2079 9.85378 14.1504 9.605 14.0392C9.35622 13.928 9.1337 13.7656 8.95197 13.5625L6.51447 11C6.38579 10.8581 6.31451 10.6734 6.31451 10.4819C6.31451 10.2903 6.38579 10.1056 6.51447 9.96375C6.5754 9.89664 6.64968 9.84302 6.73256 9.80632C6.81544 9.76963 6.90508 9.75067 6.99572 9.75067C7.08636 9.75067 7.176 9.76963 7.25888 9.80632C7.34176 9.84302 7.41604 9.89664 7.47697 9.96375L9.75197 12.3525V1.695C9.75197 1.31125 10.032 1 10.377 1C10.722 1 11.002 1.31125 11.002 1.695V12.3925ZM4.97697 7.25C4.68919 7.25011 4.41044 7.35051 4.18868 7.53394C3.96693 7.71736 3.81604 7.97234 3.76197 8.255L2.27572 15.755C2.25989 15.835 2.25197 15.9167 2.25197 16C2.25197 16.69 2.80697 17.25 3.48947 17.25H17.2645C17.3461 17.25 17.427 17.2417 17.507 17.225C17.8304 17.1581 18.1142 16.966 18.2964 16.6906C18.4786 16.4151 18.5444 16.0788 18.4795 15.755L16.992 8.255C16.938 7.97276 16.7875 7.71811 16.5662 7.53473C16.345 7.35136 16.0668 7.25069 15.7795 7.25H4.97697ZM7.25197 6V7.25H13.502V6H15.7832C16.9657 6 17.9832 6.84125 18.2157 8.01L19.7032 15.51C19.7754 15.871 19.7669 16.2435 19.6785 16.6009C19.59 16.9582 19.4237 17.2917 19.1914 17.5773C18.9592 17.8629 18.6667 18.0938 18.3349 18.2533C18.0031 18.4128 17.6401 18.497 17.272 18.5H3.48197C3.11324 18.4988 2.74938 18.4157 2.41667 18.2568C2.08396 18.0979 1.7907 17.867 1.55807 17.5809C1.32544 17.2948 1.15926 16.9606 1.07152 16.6025C0.98378 16.2444 0.976676 15.8712 1.05072 15.51L2.53822 8.01C2.76947 6.84125 3.78822 6 4.96947 6H7.25197Z" fill="black"/>
</g>
</svg>
