<svg width="16" height="16" viewBox="0 0 16 16" fill="none" xmlns="http://www.w3.org/2000/svg">
<g id="Group">
<path id="Vector" d="M0.5 4.5C0.5 2.29086 2.29086 0.5 4.5 0.5H11.5C13.7092 0.5 15.5 2.29086 15.5 4.5V11.5C15.5 13.7092 13.7092 15.5 11.5 15.5H4.5C2.29086 15.5 0.5 13.7092 0.5 11.5V7.5C0.5 7.22385 0.723857 7 1 7C1.27614 7 1.5 7.22385 1.5 7.5V11.5C1.5 13.1568 2.84315 14.5 4.5 14.5H11.5C13.1568 14.5 14.5 13.1568 14.5 11.5V4.5C14.5 2.84315 13.1568 1.5 11.5 1.5H4.5C2.84315 1.5 1.5 2.84315 1.5 4.5V5C1.5 5.27615 1.27614 5.5 1 5.5C0.723857 5.5 0.5 5.27615 0.5 5V4.5Z" fill="black"/>
</g>
</svg>
