<svg width="14" height="14" viewBox="0 0 14 14" fill="none" xmlns="http://www.w3.org/2000/svg">
<g clip-path="url(#clip0_2048_14270)">
<rect width="14" height="14" fill="white" fill-opacity="0.01"/>
<g clip-path="url(#clip1_2048_14270)">
<rect width="15.75" height="15.75" transform="translate(-0.875 -0.875)" fill="white" fill-opacity="0.01"/>
<path fill-rule="evenodd" clip-rule="evenodd" d="M7.125 1.5625C4.05292 1.5625 1.5625 4.05292 1.5625 7.125C1.5625 10.1971 4.05292 12.6875 7.125 12.6875C10.1971 12.6875 12.6875 10.1971 12.6875 7.125C12.6875 4.05292 10.1971 1.5625 7.125 1.5625ZM0.6875 7.125C0.6875 3.56967 3.56967 0.6875 7.125 0.6875C10.6803 0.6875 13.5625 3.56967 13.5625 7.125C13.5625 10.6803 10.6803 13.5625 7.125 13.5625C3.56967 13.5625 0.6875 10.6803 0.6875 7.125ZM6.53851 3.62647C6.62125 3.53783 6.73707 3.4875 6.85833 3.4875H7.39167C7.51293 3.4875 7.62875 3.53783 7.71149 3.62647C7.79423 3.71512 7.83647 3.83413 7.82813 3.9551L7.56146 7.82177C7.54564 8.05116 7.35494 8.22917 7.125 8.22917C6.89506 8.22917 6.70436 8.05116 6.68854 7.82177L6.42187 3.9551C6.41353 3.83413 6.45577 3.71512 6.53851 3.62647ZM7.925 10.0583C7.925 10.5002 7.56683 10.8583 7.125 10.8583C6.68317 10.8583 6.325 10.5002 6.325 10.0583C6.325 9.6165 6.68317 9.25833 7.125 9.25833C7.56683 9.25833 7.925 9.6165 7.925 10.0583Z" fill="#DC3545"/>
</g>
</g>
<defs>
<clipPath id="clip0_2048_14270">
<rect width="14" height="14" fill="white"/>
</clipPath>
<clipPath id="clip1_2048_14270">
<rect width="15.75" height="15.75" fill="white" transform="translate(-0.875 -0.875)"/>
</clipPath>
</defs>
</svg>
