<svg width="20" height="20" viewBox="0 0 20 20" fill="none" xmlns="http://www.w3.org/2000/svg">
<g id="date_10325376 (1) 1" clip-path="url(#clip0_1900_816)">
<g id="Group">
<path id="Vector" d="M12.1875 1.875C12.1875 1.52982 11.9077 1.25 11.5625 1.25H6.5625C6.5625 0.904822 6.28269 0.625 5.9375 0.625C5.59231 0.625 5.3125 0.904822 5.3125 1.25V1.28868C2.84606 1.59624 0.9375 3.70025 0.9375 6.25V14.375C0.9375 17.1364 3.17606 19.375 5.9375 19.375H14.0625C16.8239 19.375 19.0625 17.1364 19.0625 14.375V6.25C19.0625 3.92019 17.469 1.96257 15.3125 1.40752V1.25C15.3125 0.904822 15.0327 0.625 14.6875 0.625C14.3423 0.625 14.0625 0.904822 14.0625 1.25V2.8125C14.0625 3.15769 14.3423 3.4375 14.6875 3.4375C15.0327 3.4375 15.3125 3.15769 15.3125 2.8125V2.71338C16.769 3.22819 17.8125 4.61722 17.8125 6.25V14.375C17.8125 16.4461 16.1336 18.125 14.0625 18.125H5.9375C3.86644 18.125 2.1875 16.4461 2.1875 14.375V6.25C2.1875 4.39188 3.53894 2.8494 5.3125 2.55185V2.8125C5.3125 3.15769 5.59231 3.4375 5.9375 3.4375C6.28269 3.4375 6.5625 3.15769 6.5625 2.8125V2.5H11.5625C11.9077 2.5 12.1875 2.22018 12.1875 1.875Z" fill="black"/>
<path id="Vector_2" d="M4.375 6.5625C4.375 6.21731 4.65481 5.9375 5 5.9375H15C15.3452 5.9375 15.625 6.21731 15.625 6.5625C15.625 6.90769 15.3452 7.1875 15 7.1875H5C4.65481 7.1875 4.375 6.90769 4.375 6.5625Z" fill="black"/>
<path id="Vector_3" d="M6.875 10.3125C6.875 10.6577 6.59519 10.9375 6.25 10.9375C5.90481 10.9375 5.625 10.6577 5.625 10.3125C5.625 9.96731 5.90481 9.6875 6.25 9.6875C6.59519 9.6875 6.875 9.96731 6.875 10.3125Z" fill="black"/>
<path id="Vector_4" d="M10.625 10.3125C10.625 10.6577 10.3452 10.9375 10 10.9375C9.65481 10.9375 9.375 10.6577 9.375 10.3125C9.375 9.96731 9.65481 9.6875 10 9.6875C10.3452 9.6875 10.625 9.96731 10.625 10.3125Z" fill="black"/>
<path id="Vector_5" d="M14.375 10.3125C14.375 10.6577 14.0952 10.9375 13.75 10.9375C13.4048 10.9375 13.125 10.6577 13.125 10.3125C13.125 9.96731 13.4048 9.6875 13.75 9.6875C14.0952 9.6875 14.375 9.96731 14.375 10.3125Z" fill="black"/>
<path id="Vector_6" d="M6.875 14.375C6.875 14.7202 6.59519 15 6.25 15C5.90481 15 5.625 14.7202 5.625 14.375C5.625 14.0298 5.90481 13.75 6.25 13.75C6.59519 13.75 6.875 14.0298 6.875 14.375Z" fill="black"/>
<path id="Vector_7" d="M10.625 14.375C10.625 14.7202 10.3452 15 10 15C9.65481 15 9.375 14.7202 9.375 14.375C9.375 14.0298 9.65481 13.75 10 13.75C10.3452 13.75 10.625 14.0298 10.625 14.375Z" fill="black"/>
<path id="Vector_8" d="M14.375 14.375C14.375 14.7202 14.0952 15 13.75 15C13.4048 15 13.125 14.7202 13.125 14.375C13.125 14.0298 13.4048 13.75 13.75 13.75C14.0952 13.75 14.375 14.0298 14.375 14.375Z" fill="black"/>
</g>
</g>
<defs>
<clipPath id="clip0_1900_816">
<rect width="20" height="20" fill="white"/>
</clipPath>
</defs>
</svg>
