<svg width="25" height="24" viewBox="0 0 25 24" fill="none" xmlns="http://www.w3.org/2000/svg">
<g id="setting_16800666 1">
<g id="Group">
<path id="Vector" d="M11.2519 9.16136C10.8687 8.77819 10.9633 8.13206 11.4888 7.99972C11.8122 7.91827 12.1508 7.875 12.4995 7.875C14.7777 7.875 16.6245 9.72184 16.6245 12C16.6245 14.2782 14.7777 16.125 12.4995 16.125C10.2213 16.125 8.37451 14.2782 8.37451 12C8.37451 11.6513 8.41779 11.3127 8.49924 10.9893C8.63157 10.4638 9.2777 10.3692 9.66087 10.7523C9.88411 10.9756 9.94745 11.3063 9.902 11.6187C9.88389 11.7432 9.87451 11.8705 9.87451 12C9.87451 13.4497 11.0498 14.625 12.4995 14.625C13.9493 14.625 15.1245 13.4497 15.1245 12C15.1245 10.5503 13.9493 9.375 12.4995 9.375C12.37 9.375 12.2427 9.38437 12.1182 9.40249C11.8059 9.44794 11.4751 9.3846 11.2519 9.16136Z" fill="#8044EE"/>
<path id="Vector_2" fill-rule="evenodd" clip-rule="evenodd" d="M9.24786 2.48466C9.487 1.4683 10.3939 0.75 11.4381 0.75H13.562C14.6061 0.75 15.5131 1.4683 15.7522 2.48466L15.9384 3.27579C16.8084 3.61894 17.6144 4.08825 18.3339 4.66087L19.1144 4.42583C20.1142 4.12478 21.1897 4.55104 21.7118 5.45528L22.7737 7.29465C23.2958 8.19889 23.1272 9.34346 22.3666 10.0587L21.7735 10.6164C21.8404 11.0683 21.875 11.5303 21.875 12C21.875 12.4697 21.8404 12.9317 21.7735 13.3835L22.3666 13.9412C23.1272 14.6565 23.2958 15.801 22.7737 16.7053L21.7118 18.5447C21.1897 19.4489 20.1142 19.8752 19.1144 19.5741L18.334 19.3391C17.6145 19.9117 16.8084 20.3811 15.9384 20.7242L15.7522 21.5153C15.5131 22.5317 14.6061 23.25 13.562 23.25H11.4381C10.3939 23.25 9.487 22.5317 9.24786 21.5153L9.06171 20.7242C8.19164 20.3811 7.38561 19.9117 6.66607 19.3391L5.88565 19.5741C4.8859 19.8752 3.81035 19.4489 3.2883 18.5447L2.22632 16.7053C1.70426 15.801 1.87286 14.6565 2.63348 13.9412L3.2265 13.3835C3.15962 12.9317 3.12503 12.4697 3.12503 12C3.12503 11.5303 3.15963 11.0683 3.22651 10.6164L2.63348 10.0587C1.87286 9.34346 1.70426 8.19889 2.22632 7.29465L3.2883 5.45528C3.81035 4.55104 4.8859 4.12478 5.88565 4.42583L6.66614 4.66087C7.38565 4.08825 8.19168 3.61894 9.06171 3.27579L9.24786 2.48466ZM11.4381 2.25C11.09 2.25 10.7877 2.48943 10.708 2.82822L10.4295 4.01164C10.3705 4.26255 10.1867 4.46557 9.94289 4.54924C8.9725 4.8822 8.08705 5.39981 7.32873 6.06071C7.13437 6.2301 6.86658 6.28778 6.61972 6.21345L5.45313 5.86211C5.11986 5.76176 4.76136 5.90385 4.58733 6.20527L3.52536 8.04465C3.35134 8.34608 3.40754 8.7276 3.66108 8.96603L4.54731 9.79943C4.73485 9.97579 4.81881 10.2361 4.76973 10.4888C4.67485 10.9773 4.62501 11.4825 4.62501 12C4.62501 12.5175 4.67485 13.0227 4.76973 13.5111C4.81881 13.7639 4.73485 14.0241 4.54728 14.2005L3.66108 15.0339C3.40754 15.2723 3.35134 15.6539 3.52536 15.9553L4.58733 17.7947C4.76136 18.0961 5.11986 18.2382 5.45313 18.1378L6.61964 17.7865C6.86654 17.7121 7.13429 17.7699 7.32865 17.9393C8.08701 18.6002 8.9725 19.1178 9.94289 19.4508C10.1867 19.5344 10.3705 19.7374 10.4295 19.9884L10.708 21.1718C10.7877 21.5106 11.09 21.75 11.4381 21.75H13.562C13.9101 21.75 14.2123 21.5106 14.2921 21.1718L14.5705 19.9884C14.6296 19.7374 14.8134 19.5344 15.0572 19.4508C16.0276 19.1178 16.913 18.6002 17.6714 17.9393C17.8658 17.7698 18.1335 17.7121 18.3804 17.7865L19.5469 18.1378C19.8802 18.2382 20.2387 18.0961 20.4127 17.7947L21.4747 15.9553C21.6487 15.6539 21.5925 15.2723 21.339 15.0339L20.4528 14.2005C20.2652 14.0241 20.1813 13.7639 20.2303 13.5111C20.3252 13.0227 20.375 12.5175 20.375 12C20.375 11.4825 20.3252 10.9773 20.2303 10.4888C20.1812 10.2361 20.2652 9.97579 20.4528 9.79943L21.339 8.96603C21.5925 8.7276 21.6487 8.34608 21.4747 8.04465L20.4127 6.20527C20.2387 5.90385 19.8802 5.76176 19.5469 5.86211L18.3804 6.21345C18.1335 6.28778 17.8657 6.2301 17.6713 6.06071C16.913 5.39981 16.0276 4.8822 15.0572 4.54924C14.8134 4.46557 14.6296 4.26255 14.5705 4.01164L14.2921 2.82822C14.2123 2.48943 13.9101 2.25 13.562 2.25H11.4381Z" fill="#8044EE"/>
</g>
</g>
</svg>
