<svg width="16" height="16" viewBox="0 0 16 16" xmlns="http://www.w3.org/2000/svg">
<path id="icon" d="M12.0938 12C11.7251 12 11.4282 11.7031 11.4282 11.3344V4.66875C11.4282 2.82812 9.9376 1.33438 8.09385 1.33438C6.2501 1.33438 4.75947 2.82812 4.75947 4.66875V12.6688C4.75947 13.7719 5.65322 14.6688 6.75947 14.6688C7.86572 14.6688 8.75947 13.7719 8.75947 12.6688V6C8.75947 5.63125 8.45947 5.33438 8.09385 5.33438C7.72822 5.33438 7.42822 5.63125 7.42822 6V11.3344C7.42822 11.7031 7.12822 12 6.7626 12C6.39385 12 6.09697 11.7031 6.09697 11.3344V6C6.09697 4.89375 6.99072 4 8.09697 4C9.20322 4 10.097 4.89375 10.097 6V12.6656C10.0938 14.5063 8.6001 16 6.75947 16C4.91885 16 3.42822 14.5063 3.42822 12.6656V4.66562C3.42822 2.0875 5.51885 0 8.09385 0C10.6688 0 12.7595 2.09062 12.7595 4.66562V11.3344C12.7595 11.7031 12.4626 12 12.0938 12Z"/>
</svg>
