<svg width="24" height="24" viewBox="0 0 24 24" fill="none" xmlns="http://www.w3.org/2000/svg">
<g clip-path="url(#clip0_2219_58388)">
<path d="M0.75 12C0.75 5.78681 5.78681 0.75 12 0.75C18.2132 0.75 23.25 5.78681 23.25 12C23.25 14.4016 22.4974 16.6274 21.2153 18.4546C20.9585 18.8206 20.4365 18.8455 20.1203 18.5293C19.8489 18.2578 19.8268 17.8278 20.044 17.5113C21.1202 15.9435 21.75 14.0453 21.75 12C21.75 6.61522 17.3848 2.25 12 2.25C6.61522 2.25 2.25 6.61522 2.25 12C2.25 17.3848 6.61522 21.75 12 21.75C14.0453 21.75 15.9435 21.1202 17.5113 20.044C17.8278 19.8268 18.2578 19.8489 18.5293 20.1203C18.8455 20.4365 18.8206 20.9585 18.4546 21.2153C16.6275 22.4974 14.4016 23.25 12 23.25C5.78681 23.25 0.75 18.2132 0.75 12Z" fill="#DC6B37"/>
<path d="M7.34468 7.34468C7.63756 7.05177 8.11246 7.05177 8.40533 7.34468L12 10.9394L15.5947 7.34468C15.8876 7.05177 16.3625 7.05177 16.6553 7.34468C16.9482 7.63756 16.9482 8.11246 16.6553 8.40533L13.0607 12L16.6553 15.5947C16.9482 15.8876 16.9482 16.3625 16.6553 16.6553C16.3625 16.9482 15.8876 16.9482 15.5947 16.6553L12 13.0607L8.40533 16.6553C8.11246 16.9482 7.63756 16.9482 7.34468 16.6553C7.05177 16.3625 7.05177 15.8876 7.34468 15.5947L10.9394 12L7.34468 8.40533C7.05177 8.11246 7.05177 7.63756 7.34468 7.34468Z" fill="#DC6B37"/>
</g>
<defs>
<clipPath id="clip0_2219_58388">
<rect width="24" height="24" fill="white"/>
</clipPath>
</defs>
</svg>
