<svg id="icon" width="16" height="14" viewBox="0 0 16 14" fill="none" xmlns="http://www.w3.org/2000/svg">
<path d="M6.81155 0.75C5.80508 0.75 4.91192 1.35097 4.52007 2.25H3C1.61929 2.25 0.5 3.3693 0.5 4.75V5.25C0.5 5.52615 0.723857 5.75 1 5.75C1.27614 5.75 1.5 5.52615 1.5 5.25V4.75C1.5 3.92158 2.17157 3.25 3 3.25H4.87505C5.10308 3.25 5.3022 3.09575 5.3592 2.87495C5.53 2.21322 6.12713 1.75 6.81155 1.75H9.18845C9.87288 1.75 10.47 2.21322 10.6408 2.87495C10.6978 3.09575 10.8969 3.25 11.125 3.25H13C13.8284 3.25 14.5 3.92158 14.5 4.75V10.75C14.5 11.5784 13.8284 12.25 13 12.25H12C11.7239 12.25 11.5 12.4739 11.5 12.75C11.5 13.0261 11.7239 13.25 12 13.25H13C14.3807 13.25 15.5 12.1307 15.5 10.75V4.75C15.5 3.3693 14.3807 2.25 13 2.25H11.4799C11.0881 1.35097 10.1949 0.75 9.18845 0.75H6.81155Z" fill="black"/>
<path d="M9.5 13.25C9.77615 13.25 10 13.0261 10 12.75C10 12.4739 9.77615 12.25 9.5 12.25H3C2.17157 12.25 1.5 11.5784 1.5 10.75V7.75C1.5 7.47385 1.27614 7.25 1 7.25C0.723857 7.25 0.5 7.47385 0.5 7.75V10.75C0.5 12.1307 1.61929 13.25 3 13.25H9.5Z" fill="black"/>
<path fill-rule="evenodd" clip-rule="evenodd" d="M8 4.25C6.20508 4.25 4.75 5.70508 4.75 7.5C4.75 9.29492 6.20508 10.75 8 10.75C9.79492 10.75 11.25 9.29492 11.25 7.5C11.25 5.70508 9.79492 4.25 8 4.25ZM5.75 7.5C5.75 6.25735 6.75735 5.25 8 5.25C9.24265 5.25 10.25 6.25735 10.25 7.5C10.25 8.74265 9.24265 9.75 8 9.75C6.75735 9.75 5.75 8.74265 5.75 7.5Z" fill="black"/>
</svg>
