<svg width="16" height="16" viewBox="0 0 16 16" fill="none" xmlns="http://www.w3.org/2000/svg">
<g clip-path="url(#clip0_1892_18131)">
<mask id="mask0_1892_18131" style="mask-type:luminance" maskUnits="userSpaceOnUse" x="0" y="0" width="16" height="16">
<path d="M0 9.53674e-07H16V16H0V9.53674e-07Z" fill="white"/>
</mask>
<g mask="url(#mask0_1892_18131)">
<path d="M13.7734 10.2003C13.7734 11.4447 13.3491 12.5938 12.6319 13.5206C11.77 14.6353 10.4847 15.4288 9.00466 15.6803C8.67594 15.7366 8.3375 15.7656 7.99219 15.7656C6.09219 15.7656 4.40625 14.8831 3.3525 13.5209C2.63531 12.5941 2.21094 11.445 2.21094 10.2003C2.21094 8.29 2.70063 6.64719 3.39563 5.27844C5.08687 1.94438 7.99219 0.234689 7.99219 0.234689C7.99219 0.234689 8.05094 0.269376 8.15656 0.338126C8.79372 0.753751 11.1378 2.41844 12.5887 5.27844C13.2837 6.64719 13.7734 8.29 13.7734 10.2003Z" fill="url(#paint0_linear_1892_18131)"/>
<path d="M13.7731 10.1997C13.7731 11.4441 13.3488 12.5931 12.6316 13.52C11.7697 14.6347 10.4844 15.4281 9.00434 15.6797C11.0212 15.05 12.81 12.8525 12.81 10.215C12.81 4.61219 9.20997 1.21281 8.15625 0.337501C8.79341 0.753125 11.1375 2.41781 12.5884 5.27781C13.2834 6.64656 13.7731 8.28938 13.7731 10.1997Z" fill="#19BD89"/>
<path d="M13.7753 10.2031C13.7753 11.4475 13.351 12.5966 12.6338 13.5234L12.1091 12.9988L10.3828 11.2725V7.48906L12.5907 5.28125C13.2857 6.65 13.7753 8.29281 13.7753 10.2031Z" fill="url(#paint1_linear_1892_18131)"/>
<path d="M7.99125 13.3322V15.7656C6.09125 15.7656 4.40531 14.8831 3.35156 13.5209L5.13563 11.7369L7.99125 13.3322Z" fill="#15AA78"/>
<path d="M7.99109 0.235313V5.91094L4.99825 6.88281L3.39453 5.27906C5.08578 1.945 7.99109 0.235313 7.99109 0.235313Z" fill="#15AA78"/>
<path d="M13.773 10.2031C13.773 11.4475 13.3486 12.5966 12.6314 13.5234L12.1067 12.9988C12.5458 12.1794 12.8098 11.2313 12.8098 10.2184C12.8098 8.565 12.4964 7.10344 12.0273 5.84219L12.5883 5.28125C13.2833 6.65 13.773 8.29281 13.773 10.2031Z" fill="#15AA78"/>
<path d="M11.3256 12.2113C9.87731 12.7717 8.70944 13.4758 7.99297 13.9609C7.2765 13.4758 6.10863 12.7717 4.66038 12.2113C4.8835 9.91153 4.76237 7.75409 4.65234 6.53981C6.1045 5.97891 7.27509 5.27312 7.99297 4.78703C8.71084 5.27312 9.88144 5.97891 11.3336 6.53981C11.2236 7.75409 11.1025 9.91153 11.3256 12.2113Z" fill="#4EE9B8"/>
<path d="M13.5514 11.7344C13.6967 11.2463 13.7745 10.7308 13.7745 10.1978C13.7745 3.63438 7.99325 0.232125 7.99325 0.232125C7.99325 0.232125 6.56284 1.07394 5.125 2.72787" stroke="black" stroke-width="0.722657" stroke-miterlimit="10" stroke-linecap="round" stroke-linejoin="round"/>
<path d="M2.32812 11.3217C2.86719 13.8578 5.19812 15.7656 7.99191 15.7656C10.2566 15.7656 12.2172 14.512 13.1656 12.6863" stroke="black" stroke-width="0.722657" stroke-miterlimit="10" stroke-linecap="round" stroke-linejoin="round"/>
<path d="M4.45541 3.55925C3.25481 5.18816 2.21094 7.40631 2.21094 10.1953" stroke="black" stroke-width="0.722657" stroke-miterlimit="10" stroke-linecap="round" stroke-linejoin="round"/>
<path d="M9.90863 5.90772C10.3435 6.12578 10.821 6.34181 11.3337 6.53981C11.2236 7.75409 11.1025 9.91153 11.3256 12.2113C9.87734 12.7717 8.70947 13.4758 7.993 13.9609C7.2765 13.4758 6.10866 12.7717 4.66041 12.2113C4.8835 9.91153 4.76238 7.75409 4.65234 6.53981C6.10453 5.97891 7.27513 5.27312 7.993 4.78703C8.25663 4.96556 8.58128 5.17369 8.95856 5.39341" stroke="black" stroke-width="0.722657" stroke-miterlimit="10" stroke-linecap="round" stroke-linejoin="round"/>
<path d="M11.3242 12.2134L12.6343 13.5234" stroke="black" stroke-width="0.722657" stroke-miterlimit="10" stroke-linejoin="round"/>
<path d="M4.66166 12.2134L3.35156 13.5234" stroke="black" stroke-width="0.722657" stroke-miterlimit="10" stroke-linejoin="round"/>
<path d="M11.3242 6.53906L12.5885 5.27481" stroke="black" stroke-width="0.722657" stroke-miterlimit="10" stroke-linejoin="round"/>
<path d="M4.66269 6.53906L3.39844 5.27481" stroke="black" stroke-width="0.722657" stroke-miterlimit="10" stroke-linejoin="round"/>
<path d="M7.99219 13.9633V15.7656" stroke="black" stroke-width="0.722657" stroke-miterlimit="10" stroke-linejoin="round"/>
<path d="M7.99219 4.78906V0.234032" stroke="black" stroke-width="0.722657" stroke-miterlimit="10" stroke-linejoin="round"/>
</g>
</g>
<defs>
<linearGradient id="paint0_linear_1892_18131" x1="7.99219" y1="15.7656" x2="7.99219" y2="0.234689" gradientUnits="userSpaceOnUse">
<stop stop-color="#1EE3A5"/>
<stop offset="1" stop-color="#1EE3A5"/>
</linearGradient>
<linearGradient id="paint1_linear_1892_18131" x1="13.6667" y1="9.33594" x2="11.3333" y2="9.33594" gradientUnits="userSpaceOnUse">
<stop stop-color="#1CE19F"/>
<stop offset="1" stop-color="#1CE19F"/>
</linearGradient>
<clipPath id="clip0_1892_18131">
<rect width="16" height="16" fill="white"/>
</clipPath>
</defs>
</svg>
