<svg width="12" height="12" viewBox="0 0 12 12" fill="none" xmlns="http://www.w3.org/2000/svg">
<mask id="mask0_2048_35224" style="mask-type:alpha" maskUnits="userSpaceOnUse" x="0" y="0" width="12" height="12">
<rect width="12" height="12" fill="#D9D9D9"/>
</mask>
<g mask="url(#mask0_2048_35224)">
<path d="M4.77681 7.575L9.01431 3.3375C9.11431 3.2375 9.23306 3.1875 9.37056 3.1875C9.50806 3.1875 9.62681 3.2375 9.72681 3.3375C9.82681 3.4375 9.87681 3.55625 9.87681 3.69375C9.87681 3.83125 9.82681 3.95 9.72681 4.05L5.12681 8.65C5.02681 8.75 4.91015 8.8 4.77681 8.8C4.64348 8.8 4.52681 8.75 4.42681 8.65L2.27681 6.5C2.17681 6.4 2.1289 6.28125 2.13306 6.14375C2.13723 6.00625 2.18931 5.8875 2.28931 5.7875C2.38931 5.6875 2.50806 5.6375 2.64556 5.6375C2.78306 5.6375 2.90181 5.6875 3.00181 5.7875L4.77681 7.575Z" fill="white"/>
</g>
</svg>
