<svg width="18" height="18" id="mic" viewBox="0 0 18 18" fill="none" xmlns="http://www.w3.org/2000/svg">
<g clip-path="url(#clip0_2486_61268)">
<path d="M9.00018 0.818359C6.13834 0.818359 3.81836 3.13834 3.81836 6.00018V8.72745C3.81836 11.5893 6.13834 13.9093 9.00018 13.9093C11.862 13.9093 14.182 11.5893 14.182 8.72745V6.00018C14.182 5.48292 14.1062 4.98334 13.9651 4.51199C13.8704 4.19535 13.5014 4.07494 13.2151 4.24021C12.9766 4.37797 12.8796 4.66932 12.9512 4.9354C13.0424 5.27489 13.0911 5.63186 13.0911 6.00018V8.72745C13.0911 10.9868 11.2595 12.8184 9.00018 12.8184C6.74082 12.8184 4.90927 10.9868 4.90927 8.72745V6.00018C4.90927 3.74082 6.74082 1.90927 9.00018 1.90927C9.97698 1.90927 10.8738 2.25162 11.5773 2.82289C11.7746 2.98314 12.0503 3.02322 12.2704 2.89613C12.5785 2.71826 12.6456 2.30048 12.3758 2.06862C11.469 1.28933 10.2896 0.818359 9.00018 0.818359Z" fill="white"/>
<path d="M3.27279 8.18217C3.27279 7.88092 3.02859 7.63672 2.72734 7.63672C2.42609 7.63672 2.18188 7.88092 2.18188 8.18217V8.72763C2.18188 12.3096 4.94407 15.2464 8.45461 15.5243V16.6367C8.45461 16.938 8.69881 17.1822 9.00007 17.1822C9.30132 17.1822 9.54552 16.938 9.54552 16.6367V15.5243C13.0561 15.2464 15.8182 12.3096 15.8182 8.72763V8.18217C15.8182 7.88092 15.574 7.63672 15.2728 7.63672C14.9715 7.63672 14.7273 7.88092 14.7273 8.18217V8.72763C14.7273 11.8907 12.1632 14.4549 9.00007 14.4549C5.83698 14.4549 3.27279 11.8907 3.27279 8.72763V8.18217Z" fill="white"/>
</g>
<defs>
<clipPath id="clip0_2486_61268">
<rect width="17.4545" height="17.4545" fill="white" transform="translate(0.272705 0.272949)"/>
</clipPath>
</defs>
</svg>
