<svg width="40" height="38" viewBox="0 0 40 38" fill="none" xmlns="http://www.w3.org/2000/svg">
<g id="User Icon" clip-path="url(#clip0_1936_10390)">
<g id="User">
<path id="Vector" d="M20 17.5C24.8325 17.5 28.75 13.5825 28.75 8.75C28.75 3.91751 24.8325 0 20 0C15.1675 0 11.25 3.91751 11.25 8.75C11.25 13.5825 15.1675 17.5 20 17.5Z" fill="#B38FF5"/>
<path id="Vector_2" d="M36.1909 33.4406C35.5291 29.6424 33.5364 26.2039 30.57 23.7413C27.6035 21.2787 23.857 19.9528 20.0019 20.0013C16.1467 19.9528 12.4003 21.2787 9.43384 23.7413C6.46736 26.2039 4.47472 29.6424 3.81293 33.4406C3.69617 34.239 3.75307 35.0532 3.97975 35.8277C4.20643 36.6021 4.59755 37.3185 5.12641 37.9279C5.69597 38.583 6.40027 39.1074 7.19116 39.4652C7.98204 39.8231 8.84087 40.0059 9.70893 40.0013H30.2949C31.1629 40.0059 32.0217 39.8231 32.8126 39.4652C33.6035 39.1074 34.3078 38.583 34.8774 37.9279C35.4062 37.3185 35.7973 36.6021 36.024 35.8277C36.2507 35.0532 36.3076 34.239 36.1909 33.4406Z" fill="#A67CF3"/>
</g>
</g>
<defs>
<clipPath id="clip0_1936_10390">
<rect width="40" height="40" fill="white"/>
</clipPath>
</defs>
</svg>
