<svg width="16" height="16" id="send" viewBox="0 0 16 16" fill="none" xmlns="http://www.w3.org/2000/svg">
<g clip-path="url(#clip0_2486_61264)">
<path d="M1.56145 2.46583C1.30886 1.87673 1.92843 1.29156 2.50308 1.57876L7.27663 3.96443C7.609 4.13053 8 3.88883 8 3.51725C8 3.32788 7.89298 3.15475 7.72358 3.0701L2.95013 0.684483C1.54334 -0.0185806 0.0223956 1.41361 0.642465 2.85978L2.84645 8L0.642463 13.1402C0.022393 14.5864 1.54335 16.0186 2.95013 15.3155L14.5663 9.51015C15.8112 8.88797 15.8112 7.11202 14.5663 6.48985L10.2234 4.3194C9.891 4.1533 9.5 4.395 9.5 4.76657C9.5 4.95595 9.60703 5.12905 9.77643 5.21372L14.1193 7.38412C14.6271 7.63792 14.6271 8.36207 14.1193 8.61587L2.5031 14.4212C1.92843 14.7084 1.30886 14.1233 1.56145 13.5342L3.72003 8.49987H7.75093C8.02703 8.49987 8.25085 8.27607 8.25085 8C8.25085 7.72392 8.02703 7.50012 7.75093 7.50012H3.72003L1.56145 2.46583Z" fill="white"/>
</g>
<defs>
<clipPath id="clip0_2486_61264">
<rect width="16" height="16" fill="white"/>
</clipPath>
</defs>
</svg>
