<svg width="32" height="32" viewBox="0 0 32 32" fill="none" xmlns="http://www.w3.org/2000/svg">
<g clip-path="url(#clip0_1135_16363)">
<mask id="mask0_1135_16363" style="mask-type:luminance" maskUnits="userSpaceOnUse" x="0" y="-1" width="32" height="33">
<path d="M0 -0.00781059H32V31.9922H0V-0.00781059Z" fill="white"/>
</mask>
<g mask="url(#mask0_1135_16363)">
<path d="M27.5469 20.3928C27.5469 22.8816 26.6981 25.1797 25.2638 27.0334C23.54 29.2628 20.9694 30.8497 18.0093 31.3528C17.3519 31.4653 16.675 31.5234 15.9844 31.5234C12.1844 31.5234 8.8125 29.7584 6.705 27.0341C5.27062 25.1803 4.42188 22.8822 4.42188 20.3928C4.42188 16.5722 5.40125 13.2866 6.79125 10.5491C10.1737 3.88094 15.9844 0.461565 15.9844 0.461565C15.9844 0.461565 16.1019 0.530939 16.3131 0.66844C17.5874 1.49969 22.2756 4.82907 25.1775 10.5491C26.5675 13.2866 27.5469 16.5722 27.5469 20.3928Z" fill="url(#paint0_linear_1135_16363)"/>
<path d="M27.5462 20.3916C27.5462 22.8803 26.6975 25.1784 25.2631 27.0322C23.5394 29.2616 20.9688 30.8484 18.0087 31.3516C22.0424 30.0922 25.62 25.6972 25.62 20.4222C25.62 9.21656 18.4199 2.41781 16.3125 0.667189C17.5868 1.49844 22.2749 4.82782 25.1769 10.5478C26.5669 13.2853 27.5462 16.5709 27.5462 20.3916Z" fill="#19BD89"/>
<path d="M27.5507 20.3906C27.5507 22.8794 26.7019 25.1775 25.2676 27.0312L24.2182 25.9819L20.7656 22.5294V14.9625L25.1813 10.5469C26.5713 13.2844 27.5507 16.57 27.5507 20.3906Z" fill="url(#paint1_linear_1135_16363)"/>
<path d="M15.9825 26.6566V31.5234C12.1825 31.5234 8.81062 29.7584 6.70312 27.0341L10.2712 23.4659L15.9825 26.6566Z" fill="#15AA78"/>
<path d="M15.9822 0.462814V11.8141L9.9965 13.7578L6.78906 10.5503C10.1716 3.88219 15.9822 0.462814 15.9822 0.462814Z" fill="#15AA78"/>
<path d="M27.5498 20.3906C27.5498 22.8794 26.7011 25.1775 25.2667 27.0312L24.2173 25.9819C25.0954 24.3431 25.6236 22.4469 25.6236 20.4213C25.6236 17.1144 24.9967 14.1913 24.0586 11.6688L25.1805 10.5469C26.5705 13.2844 27.5498 16.57 27.5498 20.3906Z" fill="#15AA78"/>
<path d="M22.6511 24.4226C19.7546 25.5433 17.4189 26.9516 15.9859 27.9219C14.553 26.9516 12.2173 25.5433 9.32075 24.4226C9.767 19.8231 9.52475 15.5082 9.30469 13.0796C12.209 11.9578 14.5502 10.5463 15.9859 9.57406C17.4217 10.5463 19.7629 11.9578 22.6672 13.0796C22.4471 15.5082 22.2049 19.8231 22.6511 24.4226Z" fill="#4EE9B8"/>
<path d="M27.0988 23.4688C27.3894 22.4926 27.5452 21.4616 27.5452 20.3956C27.5452 7.26875 15.9826 0.464251 15.9826 0.464251C15.9826 0.464251 13.1218 2.14787 10.2461 5.45575" stroke="black" stroke-width="0.722657" stroke-miterlimit="10" stroke-linecap="round" stroke-linejoin="round"/>
<path d="M4.66016 22.6278C5.73828 27.7001 10.4002 31.5156 15.9877 31.5156C20.5171 31.5156 24.4382 29.0084 26.3352 25.3571" stroke="black" stroke-width="0.722657" stroke-miterlimit="10" stroke-linecap="round" stroke-linejoin="round"/>
<path d="M8.91081 7.1185C6.50962 10.3763 4.42188 14.8126 4.42188 20.3906" stroke="black" stroke-width="0.722657" stroke-miterlimit="10" stroke-linecap="round" stroke-linejoin="round"/>
<path d="M19.8173 11.8154C20.6871 12.2516 21.6421 12.6836 22.6673 13.0796C22.4472 15.5082 22.205 19.8231 22.6512 24.4226C19.7547 25.5433 17.4189 26.9516 15.986 27.9219C14.553 26.9516 12.2173 25.5433 9.32081 24.4226C9.767 19.8231 9.52475 15.5082 9.30469 13.0796C12.2091 11.9578 14.5503 10.5463 15.986 9.57406C16.5133 9.93113 17.1626 10.3474 17.9171 10.7868" stroke="black" stroke-width="0.722657" stroke-miterlimit="10" stroke-linecap="round" stroke-linejoin="round"/>
<path d="M22.6484 24.4189L25.2686 27.0391" stroke="black" stroke-width="0.722657" stroke-miterlimit="10" stroke-linejoin="round"/>
<path d="M9.31941 24.4189L6.69922 27.0391" stroke="black" stroke-width="0.722657" stroke-miterlimit="10" stroke-linejoin="round"/>
<path d="M22.6484 13.0781L25.1769 10.5496" stroke="black" stroke-width="0.722657" stroke-miterlimit="10" stroke-linejoin="round"/>
<path d="M9.32147 13.0781L6.79297 10.5496" stroke="black" stroke-width="0.722657" stroke-miterlimit="10" stroke-linejoin="round"/>
<path d="M15.9844 27.911V31.5156" stroke="black" stroke-width="0.722657" stroke-miterlimit="10" stroke-linejoin="round"/>
<path d="M15.9844 9.57031V0.460251" stroke="black" stroke-width="0.722657" stroke-miterlimit="10" stroke-linejoin="round"/>
</g>
</g>
<defs>
<linearGradient id="paint0_linear_1135_16363" x1="15.9844" y1="31.5234" x2="15.9844" y2="0.461565" gradientUnits="userSpaceOnUse">
<stop stop-color="#1EE3A5"/>
<stop offset="1" stop-color="#1EE3A5"/>
</linearGradient>
<linearGradient id="paint1_linear_1135_16363" x1="27.3333" y1="18.6563" x2="22.6667" y2="18.6563" gradientUnits="userSpaceOnUse">
<stop stop-color="#1CE19F"/>
<stop offset="1" stop-color="#1CE19F"/>
</linearGradient>
<clipPath id="clip0_1135_16363">
<rect width="32" height="32" fill="white"/>
</clipPath>
</defs>
</svg>
