<svg width="18" height="18" viewBox="0 0 18 18" fill="none" xmlns="http://www.w3.org/2000/svg">
<g clip-path="url(#clip0_1919_24811)">
<path d="M10.9688 1.6875C10.9688 1.37684 10.7169 1.125 10.4062 1.125H5.90625C5.90625 0.81434 5.65442 0.5625 5.34375 0.5625C5.03308 0.5625 4.78125 0.81434 4.78125 1.125V1.15982C2.56145 1.43662 0.84375 3.33023 0.84375 5.625V12.9375C0.84375 15.4228 2.85846 17.4375 5.34375 17.4375H12.6562C15.1415 17.4375 17.1562 15.4228 17.1562 12.9375V5.625C17.1562 3.52817 15.7221 1.76632 13.7812 1.26677V1.125C13.7812 0.81434 13.5294 0.5625 13.2188 0.5625C12.9081 0.5625 12.6562 0.81434 12.6562 1.125V2.53125C12.6562 2.84192 12.9081 3.09375 13.2188 3.09375C13.5294 3.09375 13.7812 2.84192 13.7812 2.53125V2.44204C15.0921 2.90537 16.0312 4.1555 16.0312 5.625V12.9375C16.0312 14.8015 14.5202 16.3125 12.6562 16.3125H5.34375C3.47979 16.3125 1.96875 14.8015 1.96875 12.9375V5.625C1.96875 3.95269 3.18504 2.56446 4.78125 2.29667V2.53125C4.78125 2.84192 5.03308 3.09375 5.34375 3.09375C5.65442 3.09375 5.90625 2.84192 5.90625 2.53125V2.25H10.4062C10.7169 2.25 10.9688 1.99816 10.9688 1.6875Z" fill="#9F9F9F"/>
<path d="M3.9375 5.90625C3.9375 5.59558 4.18933 5.34375 4.5 5.34375H13.5C13.8107 5.34375 14.0625 5.59558 14.0625 5.90625C14.0625 6.21692 13.8107 6.46875 13.5 6.46875H4.5C4.18933 6.46875 3.9375 6.21692 3.9375 5.90625Z" fill="#9F9F9F"/>
<path d="M6.1875 9.28125C6.1875 9.59192 5.93567 9.84375 5.625 9.84375C5.31433 9.84375 5.0625 9.59192 5.0625 9.28125C5.0625 8.97058 5.31433 8.71875 5.625 8.71875C5.93567 8.71875 6.1875 8.97058 6.1875 9.28125Z" fill="#9F9F9F"/>
<path d="M9.5625 9.28125C9.5625 9.59192 9.31067 9.84375 9 9.84375C8.68933 9.84375 8.4375 9.59192 8.4375 9.28125C8.4375 8.97058 8.68933 8.71875 9 8.71875C9.31067 8.71875 9.5625 8.97058 9.5625 9.28125Z" fill="#9F9F9F"/>
<path d="M12.9375 9.28125C12.9375 9.59192 12.6857 9.84375 12.375 9.84375C12.0643 9.84375 11.8125 9.59192 11.8125 9.28125C11.8125 8.97058 12.0643 8.71875 12.375 8.71875C12.6857 8.71875 12.9375 8.97058 12.9375 9.28125Z" fill="#9F9F9F"/>
<path d="M6.1875 12.9375C6.1875 13.2482 5.93567 13.5 5.625 13.5C5.31433 13.5 5.0625 13.2482 5.0625 12.9375C5.0625 12.6268 5.31433 12.375 5.625 12.375C5.93567 12.375 6.1875 12.6268 6.1875 12.9375Z" fill="#9F9F9F"/>
<path d="M9.5625 12.9375C9.5625 13.2482 9.31067 13.5 9 13.5C8.68933 13.5 8.4375 13.2482 8.4375 12.9375C8.4375 12.6268 8.68933 12.375 9 12.375C9.31067 12.375 9.5625 12.6268 9.5625 12.9375Z" fill="#9F9F9F"/>
<path d="M12.9375 12.9375C12.9375 13.2482 12.6857 13.5 12.375 13.5C12.0643 13.5 11.8125 13.2482 11.8125 12.9375C11.8125 12.6268 12.0643 12.375 12.375 12.375C12.6857 12.375 12.9375 12.6268 12.9375 12.9375Z" fill="#9F9F9F"/>
</g>
<defs>
<clipPath id="clip0_1919_24811">
<rect width="18" height="18" fill="white"/>
</clipPath>
</defs>
</svg>
