<svg width="20" height="21" viewBox="0 0 20 21" fill="none" xmlns="http://www.w3.org/2000/svg">
<path d="M3.23188 17.2593C3.12597 17.1593 3.05536 17.0416 3.02006 16.9063C2.99064 16.7709 2.99358 16.6356 3.02888 16.5003C3.06419 16.365 3.13185 16.2473 3.23188 16.1473L8.88034 10.49L3.23188 4.84151C3.13185 4.74148 3.06419 4.62381 3.02888 4.48848C2.99947 4.35315 2.99947 4.21783 3.02888 4.0825C3.06419 3.94717 3.13185 3.82949 3.23188 3.72947C3.3319 3.62356 3.44958 3.5559 3.5849 3.52648C3.72023 3.49117 3.85556 3.49117 3.99089 3.52648C4.1321 3.5559 4.25272 3.62356 4.35274 3.72947L10.0012 9.37793L15.6497 3.72947C15.7497 3.62356 15.8674 3.5559 16.0027 3.52648C16.138 3.49117 16.2733 3.49117 16.4087 3.52648C16.544 3.5559 16.6646 3.62356 16.7705 3.72947C16.8706 3.82949 16.9382 3.94717 16.9735 4.0825C17.0088 4.21783 17.0088 4.35315 16.9735 4.48848C16.9382 4.62381 16.8706 4.74148 16.7705 4.84151L11.1221 10.49L16.7705 16.1473C16.8706 16.2473 16.9353 16.365 16.9647 16.5003C17 16.6356 17 16.7709 16.9647 16.9063C16.9353 17.0416 16.8706 17.1593 16.7705 17.2593C16.6705 17.3652 16.5499 17.4329 16.4087 17.4623C16.2733 17.4976 16.138 17.4976 16.0027 17.4623C15.8674 17.427 15.7497 17.3593 15.6497 17.2593L10.0012 11.6108L4.35274 17.2593C4.25272 17.3593 4.13504 17.427 3.99971 17.4623C3.86439 17.4976 3.72906 17.4976 3.59373 17.4623C3.4584 17.427 3.33778 17.3593 3.23188 17.2593Z" fill="#666666"/>
</svg>
