<svg width="24" height="24" viewBox="0 0 24 24" fill="none" xmlns="http://www.w3.org/2000/svg">
<path d="M9.0602 3.89107C10.4265 1.70298 13.572 1.70297 14.9383 3.89107L22.7042 16.3275C24.1592 18.6576 22.5331 21.75 19.7652 21.75H18.3751C17.9609 21.75 17.6251 21.4142 17.6251 21C17.6251 20.5858 17.9609 20.25 18.3751 20.25H19.7652C21.3051 20.25 22.2898 18.4957 21.4319 17.122L13.666 4.68555C12.8871 3.43815 11.1115 3.43815 10.3325 4.68555L8.0777 8.29646C7.86365 8.63921 7.4165 8.75077 7.06655 8.54872C6.69902 8.33655 6.58059 7.86191 6.80537 7.50195L9.0602 3.89107Z" fill="#EFA52A"/>
<path d="M15.375 21.0041C15.375 20.5899 15.0392 20.2541 14.625 20.2541H4.23326C2.69333 20.2541 1.70868 18.4999 2.56652 17.1261L6.09019 11.4833C6.31496 11.1233 6.19654 10.6487 5.82904 10.4365C5.47905 10.2345 5.0319 10.346 4.81789 10.6888L1.2942 16.3317C-0.160777 18.6617 1.46531 21.7541 4.23326 21.7541H14.625C15.0392 21.7541 15.375 21.4184 15.375 21.0041Z" fill="#EFA52A"/>
<path d="M12.75 10.125C12.75 9.71078 12.4142 9.375 12 9.375C11.5858 9.375 11.25 9.71078 11.25 10.125V14.625C11.25 15.0392 11.5858 15.375 12 15.375C12.4142 15.375 12.75 15.0392 12.75 14.625V10.125Z" fill="#EFA52A"/>
<path d="M12.75 16.5C12.75 16.9142 12.4142 17.25 12 17.25C11.5858 17.25 11.25 16.9142 11.25 16.5C11.25 16.0858 11.5858 15.75 12 15.75C12.4142 15.75 12.75 16.0858 12.75 16.5Z" fill="#EFA52A"/>
</svg>
