<svg id="icon" width="16" height="16" viewBox="0 0 16 16" fill="none" xmlns="http://www.w3.org/2000/svg">
<g clip-path="url(#clip0_3533_33558)">
<path fill-rule="evenodd" clip-rule="evenodd" d="M8 3.75C8 2.92158 8.67158 2.25 9.5 2.25C10.3284 2.25 11 2.92158 11 3.75C11 4.57842 10.3284 5.25 9.5 5.25C8.67158 5.25 8 4.57842 8 3.75ZM9.5 3.25C9.22385 3.25 9 3.47385 9 3.75C9 4.02615 9.22385 4.25 9.5 4.25C9.77615 4.25 10 4.02615 10 3.75C10 3.47385 9.77615 3.25 9.5 3.25Z" fill="black"/>
<path fill-rule="evenodd" clip-rule="evenodd" d="M3.23387 12.8967C1.87672 12.5594 0.804487 11.4278 0.6631 9.96303C0.445025 7.7037 0.445552 5.82385 0.66518 3.54177C0.83457 1.7817 2.34618 0.5 4.08397 0.5H9.42173C11.0133 0.5 12.4129 1.57463 12.7705 3.10402C14.1352 3.4444 15.2095 4.58795 15.3444 6.06128C15.5513 8.32057 15.552 10.191 15.3456 12.4417C15.1836 14.2089 13.6688 15.5 11.9244 15.5H6.57975C4.9905 15.5 3.58905 14.4279 3.23387 12.8967ZM9.42445 13C11.1688 13 12.6836 11.7089 12.8456 9.94172C13.0324 7.90543 13.0496 6.18042 12.8979 4.19707C13.6895 4.5324 14.2673 5.26465 14.3486 6.15245C14.5499 8.35145 14.5506 10.1608 14.3498 12.3504C14.2377 13.573 13.1824 14.5 11.9244 14.5H6.57975C5.5567 14.5 4.66725 13.887 4.31212 13H9.42445ZM8.9383 12C7.91897 8.9358 4.70278 7.1502 1.52357 7.93445C1.54861 8.55803 1.59359 9.1947 1.65847 9.86695C1.77575 11.082 2.82772 12 4.07975 12H8.9383ZM1.50036 6.91362C1.49505 5.85725 1.54841 4.80305 1.66058 3.63757C1.77773 2.42029 2.83065 1.5 4.08397 1.5H9.42173C10.6806 1.5 11.7365 2.42836 11.8486 3.65245C11.9917 5.21543 12.0334 6.58155 11.9735 8.02728C10.598 7.52513 9.02765 7.64532 7.72785 8.4796C6.06375 7.06242 3.78192 6.42265 1.50036 6.91362ZM11.9141 9.06732C11.8957 9.32365 11.8742 9.58422 11.8498 9.85042C11.7543 10.8921 10.9742 11.7191 9.96737 11.9411C9.66212 10.8963 9.1403 9.972 8.464 9.20368C9.50342 8.62285 10.7347 8.58515 11.8062 9.03557C11.8417 9.05045 11.8778 9.06095 11.9141 9.06732Z" fill="black"/>
</g>
<defs>
<clipPath id="clip0_3533_33558">
<rect width="16" height="16" fill="white"/>
</clipPath>
</defs>
</svg>
