<svg id="sort" width="40" height="40" viewBox="0 0 40 40" xmlns="http://www.w3.org/2000/svg">
<g clip-path="url(#clip0_781_72041)">
<path d="M16.25 12.5C15.9738 12.5 15.75 12.7239 15.75 13V25.7929L13.3536 23.3965C13.1583 23.2012 12.8417 23.2012 12.6464 23.3965C12.4512 23.5917 12.4512 23.9083 12.6464 24.1035L15.8964 27.3535C16.0917 27.5488 16.4083 27.5488 16.6035 27.3535L19.8535 24.1035C20.0488 23.9083 20.0488 23.5917 19.8535 23.3965C19.6583 23.2012 19.3417 23.2012 19.1464 23.3965L16.75 25.7929V13C16.75 12.7239 16.5261 12.5 16.25 12.5Z" />
<path d="M22.75 20.5C22.75 20.7761 22.5261 21 22.25 21H18.25C17.9739 21 17.75 20.7761 17.75 20.5C17.75 20.2239 17.9739 20 18.25 20H22.25C22.5261 20 22.75 20.2239 22.75 20.5Z" />
<path d="M23.75 18.5C24.0261 18.5 24.25 18.2761 24.25 18C24.25 17.7239 24.0261 17.5 23.75 17.5H18.25C17.9739 17.5 17.75 17.7239 17.75 18C17.75 18.2761 17.9739 18.5 18.25 18.5H23.75Z" />
<path d="M25.75 15.5C25.75 15.7761 25.5261 16 25.25 16H18.25C17.9739 16 17.75 15.7761 17.75 15.5C17.75 15.2239 17.9739 15 18.25 15H25.25C25.5261 15 25.75 15.2239 25.75 15.5Z" />
<path d="M27 13.5C27.2761 13.5 27.5 13.2761 27.5 13C27.5 12.7239 27.2761 12.5 27 12.5H18.25C17.9739 12.5 17.75 12.7239 17.75 13C17.75 13.2761 17.9739 13.5 18.25 13.5H27Z" />
</g>
<defs>
<clipPath id="clip0_781_72041">
<rect width="16" height="16"  transform="translate(12 12)"/>
</clipPath>
</defs>
</svg>
