<svg width="24" height="24" viewBox="0 0 24 24" fill="none" xmlns="http://www.w3.org/2000/svg">
<g id="notification_15104420 1">
<g id="Group">
<path id="Vector" d="M12 0.75C12.6986 0.75 13.3785 0.829583 14.0313 0.980175C13.6511 1.36929 13.3408 1.82708 13.1209 2.33319C12.7552 2.2784 12.3809 2.25 12 2.25C7.85786 2.25 4.5 5.60786 4.5 9.75V17.25C4.5 17.3306 4.48699 17.4107 4.46152 17.4872L4.04059 18.75H19.9594L19.5385 17.4872C19.513 17.4107 19.5 17.3306 19.5 17.25V9.75C19.5 9.19039 19.4387 8.64506 19.3225 8.1204C19.8106 7.86667 20.2464 7.5261 20.6094 7.11915C20.8633 7.95135 21 8.8347 21 9.75V17.1283L21.5406 18.75H21.75C22.1642 18.75 22.5 19.0858 22.5 19.5C22.5 19.9142 22.1642 20.25 21.75 20.25H2.25C1.83579 20.25 1.5 19.9142 1.5 19.5C1.5 19.0858 1.83579 18.75 2.25 18.75H2.45943L3 17.1283V9.75C3 4.77945 7.02945 0.75 12 0.75Z" fill="#939393"/>
<path id="Vector_2" d="M13.125 20.625C13.125 21.2463 12.6213 21.75 12 21.75C11.3787 21.75 10.875 21.2463 10.875 20.625H9.375C9.375 22.0747 10.5503 23.25 12 23.25C13.4497 23.25 14.625 22.0747 14.625 20.625H13.125Z" fill="#939393"/>
<path id="Vector_3" fill-rule="evenodd" clip-rule="evenodd" d="M20.625 4.125C20.625 2.26104 19.114 0.75 17.25 0.75C15.386 0.75 13.875 2.26104 13.875 4.125C13.875 5.98898 15.386 7.5 17.25 7.5C19.114 7.5 20.625 5.98898 20.625 4.125ZM17.25 2.25C18.2855 2.25 19.125 3.08947 19.125 4.125C19.125 5.16052 18.2855 6 17.25 6C16.2145 6 15.375 5.16052 15.375 4.125C15.375 3.08947 16.2145 2.25 17.25 2.25Z" fill="#939393"/>
</g>
</g>
</svg>
