<svg width="22" height="22" viewBox="0 0 22 22" fill="none" xmlns="http://www.w3.org/2000/svg">
<g id="g2217">
<g id="g2219">
<g id="Clip path group">
<mask id="mask0_2908_2369" style="mask-type:luminance" maskUnits="userSpaceOnUse" x="0" y="0" width="22" height="22">
<g id="clipPath2225">
<path id="path2223" d="M0.67749 0.672224H21.3226V21.3174H0.67749V0.672224Z" fill="white"/>
</g>
</mask>
<g mask="url(#mask0_2908_2369)">
<g id="g2221">
<g id="g2255">
<path id="path2257" d="M18.1618 15.8174C18.3493 15.1876 18.4497 14.5225 18.4497 13.8347C18.4497 5.36577 10.99 0.975771 10.99 0.975771C10.99 0.975771 9.14434 2.06198 7.28906 4.19609" stroke="#1C5E2F" stroke-miterlimit="10" stroke-linecap="round" stroke-linejoin="round"/>
</g>
<g id="g2259">
<path id="path2261" d="M3.68433 15.2796C4.37989 18.552 7.38755 21.0137 10.9924 21.0137C13.9146 21.0137 16.4444 19.3961 17.6682 17.0404" stroke="#1C5E2F" stroke-miterlimit="10" stroke-linecap="round" stroke-linejoin="round"/>
</g>
<g id="g2263">
<path id="path2265" d="M6.42758 5.27132C4.87843 7.37314 3.53149 10.2353 3.53149 13.834" stroke="#1C5E2F" stroke-miterlimit="10" stroke-linecap="round" stroke-linejoin="round"/>
</g>
<g id="g2267">
<path id="path2269" d="M13.4637 8.29918C14.0249 8.58055 14.641 8.8593 15.3024 9.11479C15.1604 10.6816 15.0042 13.4654 15.292 16.4328C13.4233 17.1559 11.9164 18.0644 10.9919 18.6904C10.0674 18.0644 8.56051 17.1559 6.6918 16.4328C6.97966 13.4654 6.82337 10.6816 6.6814 9.11479C8.55519 8.39104 10.0656 7.48035 10.9919 6.85313C11.3321 7.0835 11.751 7.35204 12.2378 7.63555" stroke="#1C5E2F" stroke-miterlimit="10" stroke-linecap="round" stroke-linejoin="round"/>
</g>
<g id="g2271">
<path id="path2273" d="M15.291 16.4307L16.9815 18.1211" stroke="#1C5E2F" stroke-miterlimit="10" stroke-linejoin="round"/>
</g>
<g id="g2275">
<path id="path2277" d="M6.69215 16.4307L5.00171 18.1211" stroke="#1C5E2F" stroke-miterlimit="10" stroke-linejoin="round"/>
</g>
<g id="g2279">
<path id="path2281" d="M15.291 9.11523L16.9223 7.48394" stroke="#1C5E2F" stroke-miterlimit="10" stroke-linejoin="round"/>
</g>
<g id="g2283">
<path id="path2285" d="M6.69257 9.11523L5.06128 7.48394" stroke="#1C5E2F" stroke-miterlimit="10" stroke-linejoin="round"/>
</g>
<g id="g2287">
<path id="path2289" d="M10.9902 18.6881V21.0137" stroke="#1C5E2F" stroke-miterlimit="10" stroke-linejoin="round"/>
</g>
<g id="g2291">
<path id="path2293" d="M10.9902 6.85059V0.973127" stroke="#1C5E2F" stroke-miterlimit="10" stroke-linejoin="round"/>
</g>
</g>
</g>
</g>
</g>
</g>
</svg>
