<svg xmlns="http://www.w3.org/2000/svg">
  <g id="task">
  <g clip-path="url(#clip0_1892_5008)">
    <path d="M0.375 3.75C0.375 1.88604 1.88604 0.375 3.75 0.375H8.25C10.114 0.375 11.625 1.88604 11.625 3.75V4.3125C11.625 4.51961 11.4571 4.6875 11.25 4.6875C11.0429 4.6875 10.875 4.51961 10.875 4.3125V3.75C10.875 2.30025 9.69975 1.125 8.25 1.125H3.75C2.30025 1.125 1.125 2.30025 1.125 3.75V8.25C1.125 9.69975 2.30025 10.875 3.75 10.875H8.25C9.69975 10.875 10.875 9.69975 10.875 8.25V6.1875C10.875 5.98039 11.0429 5.8125 11.25 5.8125C11.4571 5.8125 11.625 5.98039 11.625 6.1875V8.25C11.625 10.114 10.114 11.625 8.25 11.625H3.75C1.88604 11.625 0.375 10.114 0.375 8.25V3.75Z" fill="black"/>
    <path d="M3.375 3.75C3.375 3.95711 3.20711 4.125 3 4.125C2.79289 4.125 2.625 3.95711 2.625 3.75C2.625 3.54289 2.79289 3.375 3 3.375C3.20711 3.375 3.375 3.54289 3.375 3.75Z" fill="black"/>
    <path d="M3.9375 3.75C3.9375 3.54289 4.10539 3.375 4.3125 3.375H6.5625C6.76961 3.375 6.9375 3.54289 6.9375 3.75C6.9375 3.95711 6.76961 4.125 6.5625 4.125H4.3125C4.10539 4.125 3.9375 3.95711 3.9375 3.75Z" fill="black"/>
    <path d="M8.0625 3.75C8.0625 3.95711 8.23039 4.125 8.4375 4.125H9C9.20711 4.125 9.375 3.95711 9.375 3.75C9.375 3.54289 9.20711 3.375 9 3.375H8.4375C8.23039 3.375 8.0625 3.54289 8.0625 3.75Z" fill="black"/>
    <path d="M4.3125 5.625C4.10539 5.625 3.9375 5.79289 3.9375 6C3.9375 6.20711 4.10539 6.375 4.3125 6.375H9C9.20711 6.375 9.375 6.20711 9.375 6C9.375 5.79289 9.20711 5.625 9 5.625H4.3125Z" fill="black"/>
    <path d="M4.3125 7.875C4.10539 7.875 3.9375 8.04289 3.9375 8.25C3.9375 8.45711 4.10539 8.625 4.3125 8.625H5.4375C5.64461 8.625 5.8125 8.45711 5.8125 8.25C5.8125 8.04289 5.64461 7.875 5.4375 7.875H4.3125Z" fill="black"/>
    <path d="M9 8.625H7.3125C7.10539 8.625 6.9375 8.45711 6.9375 8.25C6.9375 8.04289 7.10539 7.875 7.3125 7.875H9C9.20711 7.875 9.375 8.04289 9.375 8.25C9.375 8.45711 9.20711 8.625 9 8.625Z" fill="black"/>
    <path d="M3.375 6C3.375 6.20711 3.20711 6.375 3 6.375C2.79289 6.375 2.625 6.20711 2.625 6C2.625 5.79289 2.79289 5.625 3 5.625C3.20711 5.625 3.375 5.79289 3.375 6Z" fill="black"/>
    <path d="M3 8.625C3.20711 8.625 3.375 8.45711 3.375 8.25C3.375 8.04289 3.20711 7.875 3 7.875C2.79289 7.875 2.625 8.04289 2.625 8.25C2.625 8.45711 2.79289 8.625 3 8.625Z" fill="black"/>
  </g>
  <defs>
    <clipPath id="clip0_1892_5008">
      <rect width="12" height="12" fill="white"/>
    </clipPath>
  </defs>
  </g>

  <g id="calendar" width="12" height="12" viewBox="0 0 12 12" fill="none">
  <g clip-path="url(#clip0_1892_5201)">
    <path d="M7.3125 1.125C7.3125 0.917893 7.14461 0.75 6.9375 0.75H3.9375C3.9375 0.542893 3.76961 0.375 3.5625 0.375C3.35539 0.375 3.1875 0.542893 3.1875 0.75V0.773211C1.70763 0.957746 0.5625 2.22015 0.5625 3.75V8.625C0.5625 10.2819 1.90564 11.625 3.5625 11.625H8.4375C10.0944 11.625 11.4375 10.2819 11.4375 8.625V3.75C11.4375 2.35211 10.4814 1.17754 9.1875 0.844513V0.75C9.1875 0.542893 9.01961 0.375 8.8125 0.375C8.60539 0.375 8.4375 0.542893 8.4375 0.75V1.6875C8.4375 1.89461 8.60539 2.0625 8.8125 2.0625C9.01961 2.0625 9.1875 1.89461 9.1875 1.6875V1.62803C10.0614 1.93691 10.6875 2.77033 10.6875 3.75V8.625C10.6875 9.86764 9.68014 10.875 8.4375 10.875H3.5625C2.31986 10.875 1.3125 9.86764 1.3125 8.625V3.75C1.3125 2.63512 2.12336 1.70964 3.1875 1.53111V1.6875C3.1875 1.89461 3.35539 2.0625 3.5625 2.0625C3.76961 2.0625 3.9375 1.89461 3.9375 1.6875V1.5H6.9375C7.14461 1.5 7.3125 1.33211 7.3125 1.125Z" fill="black"/>
    <path d="M2.625 3.9375C2.625 3.73039 2.79289 3.5625 3 3.5625H9C9.20711 3.5625 9.375 3.73039 9.375 3.9375C9.375 4.14461 9.20711 4.3125 9 4.3125H3C2.79289 4.3125 2.625 4.14461 2.625 3.9375Z" fill="black"/>
    <path d="M4.125 6.1875C4.125 6.39461 3.95711 6.5625 3.75 6.5625C3.54289 6.5625 3.375 6.39461 3.375 6.1875C3.375 5.98039 3.54289 5.8125 3.75 5.8125C3.95711 5.8125 4.125 5.98039 4.125 6.1875Z" fill="black"/>
    <path d="M6.375 6.1875C6.375 6.39461 6.20711 6.5625 6 6.5625C5.79289 6.5625 5.625 6.39461 5.625 6.1875C5.625 5.98039 5.79289 5.8125 6 5.8125C6.20711 5.8125 6.375 5.98039 6.375 6.1875Z" fill="black"/>
    <path d="M8.625 6.1875C8.625 6.39461 8.45711 6.5625 8.25 6.5625C8.04289 6.5625 7.875 6.39461 7.875 6.1875C7.875 5.98039 8.04289 5.8125 8.25 5.8125C8.45711 5.8125 8.625 5.98039 8.625 6.1875Z" fill="black"/>
    <path d="M4.125 8.625C4.125 8.83211 3.95711 9 3.75 9C3.54289 9 3.375 8.83211 3.375 8.625C3.375 8.41789 3.54289 8.25 3.75 8.25C3.95711 8.25 4.125 8.41789 4.125 8.625Z" fill="black"/>
    <path d="M6.375 8.625C6.375 8.83211 6.20711 9 6 9C5.79289 9 5.625 8.83211 5.625 8.625C5.625 8.41789 5.79289 8.25 6 8.25C6.20711 8.25 6.375 8.41789 6.375 8.625Z" fill="black"/>
    <path d="M8.625 8.625C8.625 8.83211 8.45711 9 8.25 9C8.04289 9 7.875 8.83211 7.875 8.625C7.875 8.41789 8.04289 8.25 8.25 8.25C8.45711 8.25 8.625 8.41789 8.625 8.625Z" fill="black"/>
  </g>
  <defs>
    <clipPath id="clip0_1892_5201">
      <rect width="12" height="12" fill="white"/>
    </clipPath>
  </defs>
</g>
</svg>


