<svg id="delete" width="20" height="20" viewBox="0 0 20 20" xmlns="http://www.w3.org/2000/svg">
<g clip-path="url(#clip0_823_10917)">
<path fill-rule="evenodd" clip-rule="evenodd" d="M7.96003 0.625C7.24984 0.625 6.60059 1.02625 6.283 1.66147L5.55122 3.125H1.25C0.904822 3.125 0.625 3.40481 0.625 3.75C0.625 4.09519 0.904822 4.375 1.25 4.375H1.63577L1.76264 5.39003C1.80174 5.70278 2.06761 5.9375 2.38282 5.9375C2.75875 5.9375 3.04962 5.608 3.00299 5.23497L2.89549 4.375H17.1045L15.5226 17.03C15.4444 17.6556 14.9127 18.125 14.2823 18.125H5.71772C5.08731 18.125 4.55556 17.6556 4.47737 17.03L3.39363 8.35997C3.35453 8.04722 3.08864 7.8125 2.77344 7.8125C2.39751 7.8125 2.10664 8.142 2.15327 8.51503L3.23703 17.1851C3.39341 18.4362 4.45691 19.375 5.71772 19.375H14.2823C15.5431 19.375 16.6066 18.4362 16.763 17.1851L18.3643 4.375H18.75C19.0952 4.375 19.375 4.09519 19.375 3.75C19.375 3.40481 19.0952 3.125 18.75 3.125H14.4488L13.717 1.66147C13.3994 1.02625 12.7502 0.625 12.04 0.625H7.96003ZM13.0512 3.125H6.94878L7.40103 2.22049C7.50691 2.00875 7.72331 1.875 7.96003 1.875H12.04C12.2767 1.875 12.4931 2.00875 12.599 2.22049L13.0512 3.125Z" fill="white"/>
<path d="M7.1875 15.9375C6.84231 15.9375 6.5625 15.6577 6.5625 15.3125V7.1875C6.5625 6.84231 6.84231 6.5625 7.1875 6.5625C7.53269 6.5625 7.8125 6.84231 7.8125 7.1875V15.3125C7.8125 15.6577 7.53269 15.9375 7.1875 15.9375Z" fill="white"/>
<path d="M13.4375 7.1875C13.4375 6.84231 13.1577 6.5625 12.8125 6.5625C12.4673 6.5625 12.1875 6.84231 12.1875 7.1875V12.8125C12.1875 13.1577 12.4673 13.4375 12.8125 13.4375C13.1577 13.4375 13.4375 13.1577 13.4375 12.8125V7.1875Z" fill="white"/>
</g>
<defs>
<clipPath id="clip0_823_10917">
<rect width="20" height="20" fill="white"/>
</clipPath>
</defs>
</svg>
