<svg width="16" height="14" viewBox="0 0 16 14" fill="none" xmlns="http://www.w3.org/2000/svg">
<g id="cut">
<path id="Vector" fill-rule="evenodd" clip-rule="evenodd" d="M0.5 3.25C0.5 1.8693 1.61929 0.75 3 0.75C4.19925 0.75 5.2013 1.59442 5.44395 2.72115L9.70588 6.34377L11.4233 4.88395C11.6218 4.71525 11.9165 4.72717 12.1007 4.91138C12.3073 5.1179 12.2935 5.45673 12.071 5.64587L10.4779 7L15.3238 11.119C15.5342 11.2979 15.5598 11.6134 15.381 11.8238C15.2021 12.0342 14.8866 12.0598 14.6762 11.881L9.70588 7.65623L8.7595 8.46065C8.56102 8.62935 8.2663 8.61742 8.08212 8.43322C7.87557 8.2267 7.8893 7.88787 8.11185 7.69872L8.93385 7L5.3895 3.9873C5.07488 5.00812 4.12407 5.75 3 5.75C1.61929 5.75 0.5 4.6307 0.5 3.25ZM3 1.75C2.17157 1.75 1.5 2.42158 1.5 3.25C1.5 4.07842 2.17157 4.75 3 4.75C3.82842 4.75 4.5 4.07842 4.5 3.25C4.5 2.42158 3.82842 1.75 3 1.75Z" fill="black"/>
<path id="Vector_2" d="M13.3066 3.99403C13.4908 4.17823 13.7855 4.19015 13.984 4.02145L15.3257 2.88098C15.5361 2.70213 15.5617 2.38658 15.3829 2.17618C15.204 1.96578 14.8885 1.9402 14.6781 2.11903L13.3363 3.25953C13.1138 3.44868 13.1001 3.78751 13.3066 3.99403Z" fill="black"/>
<path id="Vector_3" fill-rule="evenodd" clip-rule="evenodd" d="M6.20075 9.32315C6.3992 9.15445 6.69395 9.16638 6.87813 9.35058C7.08465 9.5571 7.07093 9.89593 6.8484 10.0851L5.44395 11.2788C5.2013 12.4056 4.19925 13.25 3 13.25C1.61929 13.25 0.5 12.1307 0.5 10.75C0.5 9.3693 1.61929 8.25 3 8.25C4.12407 8.25 5.07488 8.99188 5.3895 10.0127L6.20075 9.32315ZM3 9.25C2.17157 9.25 1.5 9.92158 1.5 10.75C1.5 11.5784 2.17157 12.25 3 12.25C3.82842 12.25 4.5 11.5784 4.5 10.75C4.5 9.92158 3.82842 9.25 3 9.25Z" fill="black"/>
</g>
</svg>
