<svg width="8" height="13" viewBox="0 0 8 13" fill="none" xmlns="http://www.w3.org/2000/svg">
<path d="M0.329217 6.49668C0.329217 6.67325 0.396595 6.83124 0.53135 6.97064L6.05169 12.3655C6.11209 12.4259 6.17947 12.4724 6.25382 12.5049C6.33282 12.5374 6.41646 12.5537 6.50474 12.5537C6.62556 12.5537 6.73476 12.5258 6.83234 12.4701C6.92992 12.4143 7.00659 12.34 7.06235 12.247C7.11812 12.1494 7.146 12.0402 7.146 11.9194C7.146 11.7429 7.08559 11.5918 6.96477 11.4664L1.50717 6.12726V6.87306L6.96477 1.53395C7.08559 1.40384 7.146 1.25282 7.146 1.08089C7.146 0.960075 7.11812 0.8532 7.06235 0.760265C7.00659 0.662683 6.92992 0.586012 6.83234 0.530251C6.73476 0.47449 6.62556 0.446609 6.50474 0.446609C6.33282 0.446609 6.18412 0.50934 6.05866 0.634803L0.53135 6.02968C0.466296 6.09008 0.415182 6.16211 0.378008 6.24575C0.345481 6.32475 0.329217 6.40839 0.329217 6.49668Z" fill="#B3B3B3"/>
</svg>
