<svg width="25" height="25" viewBox="0 0 25 25" fill="none" xmlns="http://www.w3.org/2000/svg">
<g id="Task Icon">
<g id="Task Icon_2">
<path id="Vector" d="M1.5 8C1.5 4.27209 4.52209 1.25 8.25 1.25H17.25C20.9779 1.25 24 4.27209 24 8V9.125C24 9.53922 23.6642 9.875 23.25 9.875C22.8358 9.875 22.5 9.53922 22.5 9.125V8C22.5 5.1005 20.1495 2.75 17.25 2.75H8.25C5.3505 2.75 3 5.1005 3 8V17C3 19.8995 5.3505 22.25 8.25 22.25H17.25C20.1495 22.25 22.5 19.8995 22.5 17V12.875C22.5 12.4608 22.8358 12.125 23.25 12.125C23.6642 12.125 24 12.4608 24 12.875V17C24 20.7279 20.9779 23.75 17.25 23.75H8.25C4.52209 23.75 1.5 20.7279 1.5 17V8Z" fill="black"/>
<path id="Vector_2" d="M7.5 8C7.5 8.41422 7.16422 8.75 6.75 8.75C6.33578 8.75 6 8.41422 6 8C6 7.58578 6.33578 7.25 6.75 7.25C7.16422 7.25 7.5 7.58578 7.5 8Z" fill="black"/>
<path id="Vector_3" d="M8.625 8C8.625 7.58578 8.96078 7.25 9.375 7.25H13.875C14.2892 7.25 14.625 7.58578 14.625 8C14.625 8.41422 14.2892 8.75 13.875 8.75H9.375C8.96078 8.75 8.625 8.41422 8.625 8Z" fill="black"/>
<path id="Vector_4" d="M16.875 8C16.875 8.41422 17.2108 8.75 17.625 8.75H18.75C19.1642 8.75 19.5 8.41422 19.5 8C19.5 7.58578 19.1642 7.25 18.75 7.25H17.625C17.2108 7.25 16.875 7.58578 16.875 8Z" fill="black"/>
<path id="Vector_5" d="M9.375 11.75C8.96078 11.75 8.625 12.0858 8.625 12.5C8.625 12.9142 8.96078 13.25 9.375 13.25H18.75C19.1642 13.25 19.5 12.9142 19.5 12.5C19.5 12.0858 19.1642 11.75 18.75 11.75H9.375Z" fill="black"/>
<path id="Vector_6" d="M9.375 16.25C8.96078 16.25 8.625 16.5858 8.625 17C8.625 17.4142 8.96078 17.75 9.375 17.75H11.625C12.0392 17.75 12.375 17.4142 12.375 17C12.375 16.5858 12.0392 16.25 11.625 16.25H9.375Z" fill="black"/>
<path id="Vector_7" d="M18.75 17.75H15.375C14.9608 17.75 14.625 17.4142 14.625 17C14.625 16.5858 14.9608 16.25 15.375 16.25H18.75C19.1642 16.25 19.5 16.5858 19.5 17C19.5 17.4142 19.1642 17.75 18.75 17.75Z" fill="black"/>
<path id="Vector_8" d="M7.5 12.5C7.5 12.9142 7.16422 13.25 6.75 13.25C6.33578 13.25 6 12.9142 6 12.5C6 12.0858 6.33578 11.75 6.75 11.75C7.16422 11.75 7.5 12.0858 7.5 12.5Z" fill="black"/>
<path id="Vector_9" d="M6.75 17.75C7.16422 17.75 7.5 17.4142 7.5 17C7.5 16.5858 7.16422 16.25 6.75 16.25C6.33578 16.25 6 16.5858 6 17C6 17.4142 6.33578 17.75 6.75 17.75Z" fill="black"/>
</g>
</g>
</svg>
