<svg width="16" height="16" viewBox="0 0 16 16" fill="none" xmlns="http://www.w3.org/2000/svg">
<g id="material-symbols:info-outline-rounded">
<path id="Vector" d="M7.9987 11.3281C8.18759 11.3281 8.34603 11.2641 8.47403 11.1361C8.60203 11.0081 8.66581 10.8499 8.66537 10.6615V7.99479C8.66537 7.8059 8.60137 7.64768 8.47337 7.52012C8.34537 7.39257 8.18714 7.32857 7.9987 7.32812C7.81025 7.32768 7.65203 7.39168 7.52403 7.52012C7.39603 7.64857 7.33203 7.80679 7.33203 7.99479V10.6615C7.33203 10.8503 7.39603 11.0088 7.52403 11.1368C7.65203 11.2648 7.81025 11.3286 7.9987 11.3281ZM7.9987 5.99479C8.18759 5.99479 8.34603 5.93079 8.47403 5.80279C8.60203 5.67479 8.66581 5.51657 8.66537 5.32812C8.66492 5.13968 8.60092 4.98146 8.47337 4.85346C8.34581 4.72546 8.18759 4.66146 7.9987 4.66146C7.80981 4.66146 7.65159 4.72546 7.52403 4.85346C7.39648 4.98146 7.33248 5.13968 7.33203 5.32812C7.33159 5.51657 7.39559 5.67501 7.52403 5.80346C7.65248 5.9319 7.8107 5.99568 7.9987 5.99479ZM7.9987 14.6615C7.07648 14.6615 6.20981 14.4863 5.3987 14.1361C4.58759 13.7859 3.88203 13.311 3.28203 12.7115C2.68203 12.1119 2.20714 11.4063 1.85737 10.5948C1.50759 9.78324 1.33248 8.91657 1.33203 7.99479C1.33159 7.07301 1.5067 6.20635 1.85737 5.39479C2.20803 4.58324 2.68292 3.87768 3.28203 3.27813C3.88114 2.67857 4.5867 2.20368 5.3987 1.85346C6.2107 1.50324 7.07737 1.32813 7.9987 1.32812C8.92003 1.32812 9.7867 1.50324 10.5987 1.85346C11.4107 2.20368 12.1163 2.67857 12.7154 3.27813C13.3145 3.87768 13.7896 4.58324 14.1407 5.39479C14.4918 6.20635 14.6667 7.07301 14.6654 7.99479C14.664 8.91657 14.4889 9.78324 14.14 10.5948C13.7911 11.4063 13.3163 12.1119 12.7154 12.7115C12.1145 13.311 11.4089 13.7861 10.5987 14.1368C9.78848 14.4875 8.92181 14.6623 7.9987 14.6615ZM7.9987 13.3281C9.48759 13.3281 10.7487 12.8115 11.782 11.7781C12.8154 10.7448 13.332 9.48368 13.332 7.99479C13.332 6.5059 12.8154 5.24479 11.782 4.21146C10.7487 3.17812 9.48759 2.66146 7.9987 2.66146C6.50981 2.66146 5.2487 3.17812 4.21537 4.21146C3.18203 5.24479 2.66537 6.5059 2.66537 7.99479C2.66537 9.48368 3.18203 10.7448 4.21537 11.7781C5.2487 12.8115 6.50981 13.3281 7.9987 13.3281Z" fill="#9F9F9F"/>
</g>
</svg>
