<svg xmlns="http://www.w3.org/2000/svg" width="40" height="40" viewBox="0 0 40 40" fill="none">
<path fill-rule="evenodd" clip-rule="evenodd" d="M11 13.8462C11 12.8266 11.8266 12 12.8462 12C13.8658 12 14.6923 12.8266 14.6923 13.8462C14.6923 14.8658 13.8658 15.6923 12.8462 15.6923C11.8266 15.6923 11 14.8658 11 13.8462ZM12.8462 13.2308C12.5063 13.2308 12.2308 13.5063 12.2308 13.8462C12.2308 14.186 12.5063 14.4615 12.8462 14.4615C13.186 14.4615 13.4615 14.186 13.4615 13.8462C13.4615 13.5063 13.186 13.2308 12.8462 13.2308ZM16.5385 13.8462C16.5385 13.5063 16.814 13.2308 17.1538 13.2308H28.8462C29.186 13.2308 29.4615 13.5063 29.4615 13.8462C29.4615 14.186 29.186 14.4615 28.8462 14.4615H17.1538C16.814 14.4615 16.5385 14.186 16.5385 13.8462ZM11 20C11 18.9804 11.8266 18.1538 12.8462 18.1538C13.8658 18.1538 14.6923 18.9804 14.6923 20C14.6923 21.0196 13.8658 21.8462 12.8462 21.8462C11.8266 21.8462 11 21.0196 11 20ZM12.8462 19.3846C12.5063 19.3846 12.2308 19.6601 12.2308 20C12.2308 20.3399 12.5063 20.6154 12.8462 20.6154C13.186 20.6154 13.4615 20.3399 13.4615 20C13.4615 19.6601 13.186 19.3846 12.8462 19.3846ZM16.5385 20C16.5385 19.6601 16.814 19.3846 17.1538 19.3846H28.8462C29.186 19.3846 29.4615 19.6601 29.4615 20C29.4615 20.3399 29.186 20.6154 28.8462 20.6154H17.1538C16.814 20.6154 16.5385 20.3399 16.5385 20ZM11 26.1538C11 25.1342 11.8266 24.3077 12.8462 24.3077C13.8658 24.3077 14.6923 25.1342 14.6923 26.1538C14.6923 27.1734 13.8658 28 12.8462 28C11.8266 28 11 27.1734 11 26.1538ZM12.8462 25.5385C12.5063 25.5385 12.2308 25.814 12.2308 26.1538C12.2308 26.4937 12.5063 26.7692 12.8462 26.7692C13.186 26.7692 13.4615 26.4937 13.4615 26.1538C13.4615 25.814 13.186 25.5385 12.8462 25.5385ZM16.5385 26.1538C16.5385 25.814 16.814 25.5385 17.1538 25.5385H28.8462C29.186 25.5385 29.4615 25.814 29.4615 26.1538C29.4615 26.4937 29.186 26.7692 28.8462 26.7692H17.1538C16.814 26.7692 16.5385 26.4937 16.5385 26.1538Z" fill="white"/>
</svg>