<svg width="12" height="12" viewBox="0 0 12 12" fill="none" xmlns="http://www.w3.org/2000/svg">
<g id="list" clip-path="url(#clip0_1925_55)">
<g id="Group">
<path id="Vector" d="M0.375 3.75C0.375 1.88604 1.88604 0.375 3.75 0.375H8.25C10.114 0.375 11.625 1.88604 11.625 3.75V4.3125C11.625 4.51961 11.4571 4.6875 11.25 4.6875C11.0429 4.6875 10.875 4.51961 10.875 4.3125V3.75C10.875 2.30025 9.69975 1.125 8.25 1.125H3.75C2.30025 1.125 1.125 2.30025 1.125 3.75V8.25C1.125 9.69975 2.30025 10.875 3.75 10.875H8.25C9.69975 10.875 10.875 9.69975 10.875 8.25V6.1875C10.875 5.98039 11.0429 5.8125 11.25 5.8125C11.4571 5.8125 11.625 5.98039 11.625 6.1875V8.25C11.625 10.114 10.114 11.625 8.25 11.625H3.75C1.88604 11.625 0.375 10.114 0.375 8.25V3.75Z" fill="black"/>
<path id="Vector_2" d="M3.375 3.75C3.375 3.95711 3.20711 4.125 3 4.125C2.79289 4.125 2.625 3.95711 2.625 3.75C2.625 3.54289 2.79289 3.375 3 3.375C3.20711 3.375 3.375 3.54289 3.375 3.75Z" fill="black"/>
<path id="Vector_3" d="M3.9375 3.75C3.9375 3.54289 4.10539 3.375 4.3125 3.375H6.5625C6.76961 3.375 6.9375 3.54289 6.9375 3.75C6.9375 3.95711 6.76961 4.125 6.5625 4.125H4.3125C4.10539 4.125 3.9375 3.95711 3.9375 3.75Z" fill="black"/>
<path id="Vector_4" d="M8.0625 3.75C8.0625 3.95711 8.23039 4.125 8.4375 4.125H9C9.20711 4.125 9.375 3.95711 9.375 3.75C9.375 3.54289 9.20711 3.375 9 3.375H8.4375C8.23039 3.375 8.0625 3.54289 8.0625 3.75Z" fill="black"/>
<path id="Vector_5" d="M4.3125 5.625C4.10539 5.625 3.9375 5.79289 3.9375 6C3.9375 6.20711 4.10539 6.375 4.3125 6.375H9C9.20711 6.375 9.375 6.20711 9.375 6C9.375 5.79289 9.20711 5.625 9 5.625H4.3125Z" fill="black"/>
<path id="Vector_6" d="M4.3125 7.875C4.10539 7.875 3.9375 8.04289 3.9375 8.25C3.9375 8.45711 4.10539 8.625 4.3125 8.625H5.4375C5.64461 8.625 5.8125 8.45711 5.8125 8.25C5.8125 8.04289 5.64461 7.875 5.4375 7.875H4.3125Z" fill="black"/>
<path id="Vector_7" d="M9 8.625H7.3125C7.10539 8.625 6.9375 8.45711 6.9375 8.25C6.9375 8.04289 7.10539 7.875 7.3125 7.875H9C9.20711 7.875 9.375 8.04289 9.375 8.25C9.375 8.45711 9.20711 8.625 9 8.625Z" fill="black"/>
<path id="Vector_8" d="M3.375 6C3.375 6.20711 3.20711 6.375 3 6.375C2.79289 6.375 2.625 6.20711 2.625 6C2.625 5.79289 2.79289 5.625 3 5.625C3.20711 5.625 3.375 5.79289 3.375 6Z" fill="black"/>
<path id="Vector_9" d="M3 8.625C3.20711 8.625 3.375 8.45711 3.375 8.25C3.375 8.04289 3.20711 7.875 3 7.875C2.79289 7.875 2.625 8.04289 2.625 8.25C2.625 8.45711 2.79289 8.625 3 8.625Z" fill="black"/>
</g>
</g>
<defs>
<clipPath id="clip0_1925_55">
<rect width="12" height="12" fill="white"/>
</clipPath>
</defs>
</svg>
