<svg width="15" height="14" viewBox="0 0 15 14" fill="none" xmlns="http://www.w3.org/2000/svg">
<g id="package_10478353 1" clip-path="url(#clip0_642_4096)">
<path id="Vector" fill-rule="evenodd" clip-rule="evenodd" d="M4.91105 2.41601C4.9627 2.48717 5.02062 2.55714 5.08281 2.625H2.46875C1.62306 2.625 0.9375 3.31056 0.9375 4.15625C0.9375 4.84991 1.39874 5.43585 2.03125 5.62408V8.53125C2.03125 8.77288 2.22713 8.96875 2.46875 8.96875C2.71038 8.96875 2.90625 8.77288 2.90625 8.53125V5.6875H7.0625V12.6875H3.78125C3.29801 12.6875 2.90625 12.2957 2.90625 11.8125V10.7188C2.90625 10.4771 2.71038 10.2812 2.46875 10.2812C2.22713 10.2812 2.03125 10.4771 2.03125 10.7188V11.8125C2.03125 12.779 2.81475 13.5625 3.78125 13.5625H11.2188C12.1853 13.5625 12.9688 12.779 12.9688 11.8125V5.62408C13.6013 5.43585 14.0625 4.84991 14.0625 4.15625C14.0625 3.31056 13.3769 2.625 12.5312 2.625H9.91719C9.97938 2.55714 10.0373 2.48717 10.089 2.41601C10.2114 2.24739 10.3438 2.01136 10.3438 1.75C10.3438 1.49908 10.2357 1.28945 10.1083 1.13306C9.98122 0.977095 9.8177 0.851574 9.65394 0.754716C9.33409 0.565532 8.92977 0.4375 8.59375 0.4375C8.40337 0.4375 8.24972 0.520446 8.14431 0.600075C8.03681 0.681275 7.94518 0.784488 7.86868 0.886745C7.73076 1.07108 7.60594 1.30136 7.5 1.53351C7.39406 1.30136 7.26924 1.07108 7.13132 0.886745C7.05482 0.784488 6.96319 0.681275 6.85569 0.600075C6.75028 0.520446 6.59663 0.4375 6.40625 0.4375C6.07023 0.4375 5.66591 0.565532 5.34606 0.754716C5.1823 0.851574 5.01878 0.977095 4.89169 1.13306C4.76427 1.28945 4.65625 1.49908 4.65625 1.75C4.65625 2.01136 4.78859 2.24739 4.91105 2.41601ZM5.78927 1.50918C5.70212 1.56071 5.56415 1.64229 5.53221 1.7475L6.625 2.625H6.97294C6.91366 2.41867 6.83021 2.18366 6.73359 1.96303C6.63362 1.73473 6.52763 1.54046 6.43071 1.41094C6.39606 1.36461 6.36814 1.33418 6.34833 1.31548C6.19846 1.32983 5.98093 1.39581 5.7915 1.50785L5.78927 1.50918ZM1.8125 4.15625C1.8125 3.7938 2.10631 3.5 2.46875 3.5H7.0625V4.8125H2.46875C2.10631 4.8125 1.8125 4.5187 1.8125 4.15625ZM12.5312 4.8125H7.9375V3.5H12.5312C12.8937 3.5 13.1875 3.7938 13.1875 4.15625C13.1875 4.5187 12.8937 4.8125 12.5312 4.8125ZM7.9375 5.6875V12.6875H11.2188C11.702 12.6875 12.0938 12.2957 12.0938 11.8125V5.6875H7.9375ZM8.61838 2.53614C8.54801 2.57226 8.47252 2.60833 8.39394 2.62255L8.02706 2.625C8.08634 2.41867 8.16979 2.18366 8.26641 1.96303C8.36638 1.73473 8.47237 1.54046 8.56929 1.41094C8.60394 1.36461 8.63186 1.33418 8.65168 1.31548C8.80154 1.32983 9.01907 1.39581 9.2085 1.50785C9.40109 1.62175 9.52363 1.70538 9.38094 1.90188C9.30187 2.01079 9.18339 2.13376 9.04234 2.25089C8.90208 2.36736 8.75223 2.46746 8.61838 2.53614Z" fill="black"/>
</g>
<defs>
<clipPath id="clip0_642_4096">
<rect width="14" height="14" fill="white" transform="translate(0.5)"/>
</clipPath>
</defs>
</svg>
