<svg width="155" height="155" viewBox="0 0 155 155" fill="none" xmlns="http://www.w3.org/2000/svg">
<rect width="155" height="155" fill="#5D5A5A"/>
<g id="DESIGN - 2 SPRINT">
<path d="M-857 -8927C-857 -8982.23 -812.228 -9027 -757 -9027H7592C7647.23 -9027 7692 -8982.23 7692 -8927V6665C7692 6720.23 7647.23 6765 7592 6765H-757C-812.228 6765 -857 6720.23 -857 6665V-8927Z" fill="#DFDFDF"/>
<path d="M-757 -9026H7592V-9028H-757V-9026ZM7691 -8927V6665H7693V-8927H7691ZM7592 6764H-757V6766H7592V6764ZM-856 6665V-8927H-858V6665H-856ZM-757 6764C-811.676 6764 -856 6719.68 -856 6665H-858C-858 6720.78 -812.781 6766 -757 6766V6764ZM7691 6665C7691 6719.68 7646.68 6764 7592 6764V6766C7647.78 6766 7693 6720.78 7693 6665H7691ZM7592 -9026C7646.68 -9026 7691 -8981.68 7691 -8927H7693C7693 -8982.78 7647.78 -9028 7592 -9028V-9026ZM-757 -9028C-812.781 -9028 -858 -8982.78 -858 -8927H-856C-856 -8981.68 -811.676 -9026 -757 -9026V-9028Z" fill="black" fill-opacity="0.1"/>
<g id="ADD MEMBERS - TAB QR code" clip-path="url(#clip0_0_1)">
<rect width="393" height="852" transform="translate(-119 -322)" fill="#DCCDFA"/>
<g id="gradient" filter="url(#filter0_f_0_1)">
</g>
<g id="gradient_2" filter="url(#filter1_f_0_1)">
<ellipse id="Ellipse 1379" cx="6.3277" cy="456.38" rx="522.328" ry="400.599" fill="#C1BCFF"/>
</g>
<g id="Frame 1321315960" filter="url(#filter2_b_0_1)">
<rect x="-103" y="-164" width="361" height="579" rx="20" fill="white" fill-opacity="0.5"/>
<g id="Content">
<rect x="-19.8164" y="-20" width="194.633" height="245" rx="12" fill="white" fill-opacity="0.8"/>
<g id="Vector">
<path d="M5.51578 0H0.183594V5.33219H5.51578V0Z" fill="black"/>
<path d="M10.848 0H5.51578V5.33219H10.848V0Z" fill="black"/>
<path d="M16.1802 0H10.848V5.33219H16.1802V0Z" fill="black"/>
<path d="M21.5123 0H16.1802V5.33219H21.5123V0Z" fill="black"/>
<path d="M26.8445 0H21.5123V5.33219H26.8445V0Z" fill="black"/>
<path d="M32.1767 0H26.8445V5.33219H32.1767V0Z" fill="black"/>
<path d="M37.5089 0H32.1767V5.33219H37.5089V0Z" fill="black"/>
<path d="M48.1733 0H42.8411V5.33219H48.1733V0Z" fill="black"/>
<path d="M58.8377 0H53.5055V5.33219H58.8377V0Z" fill="black"/>
<path d="M85.4986 0H80.1664V5.33219H85.4986V0Z" fill="black"/>
<path d="M90.8308 0H85.4986V5.33219H90.8308V0Z" fill="black"/>
<path d="M101.495 0H96.163V5.33219H101.495V0Z" fill="black"/>
<path d="M112.16 0H106.827V5.33219H112.16V0Z" fill="black"/>
<path d="M122.824 0H117.492V5.33219H122.824V0Z" fill="black"/>
<path d="M128.156 0H122.824V5.33219H128.156V0Z" fill="black"/>
<path d="M133.488 0H128.156V5.33219H133.488V0Z" fill="black"/>
<path d="M138.82 0H133.488V5.33219H138.82V0Z" fill="black"/>
<path d="M144.153 0H138.82V5.33219H144.153V0Z" fill="black"/>
<path d="M149.485 0H144.153V5.33219H149.485V0Z" fill="black"/>
<path d="M154.817 0H149.485V5.33219H154.817V0Z" fill="black"/>
<path d="M5.51578 5.33219H0.183594V10.6644H5.51578V5.33219Z" fill="black"/>
<path d="M37.5089 5.33219H32.1767V10.6644H37.5089V5.33219Z" fill="black"/>
<path d="M53.5055 5.33219H48.1733V10.6644H53.5055V5.33219Z" fill="black"/>
<path d="M58.8377 5.33219H53.5055V10.6644H58.8377V5.33219Z" fill="black"/>
<path d="M64.1699 5.33219H58.8377V10.6644H64.1699V5.33219Z" fill="black"/>
<path d="M69.502 5.33219H64.1699V10.6644H69.502V5.33219Z" fill="black"/>
<path d="M80.1664 5.33219H74.8342V10.6644H80.1664V5.33219Z" fill="black"/>
<path d="M85.4986 5.33219H80.1664V10.6644H85.4986V5.33219Z" fill="black"/>
<path d="M122.824 5.33219H117.492V10.6644H122.824V5.33219Z" fill="black"/>
<path d="M154.817 5.33219H149.485V10.6644H154.817V5.33219Z" fill="black"/>
<path d="M5.51578 10.6644H0.183594V15.9966H5.51578V10.6644Z" fill="black"/>
<path d="M16.1802 10.6644H10.848V15.9966H16.1802V10.6644Z" fill="black"/>
<path d="M21.5123 10.6644H16.1802V15.9966H21.5123V10.6644Z" fill="black"/>
<path d="M26.8445 10.6644H21.5123V15.9966H26.8445V10.6644Z" fill="black"/>
<path d="M37.5089 10.6644H32.1767V15.9966H37.5089V10.6644Z" fill="black"/>
<path d="M58.8377 10.6644H53.5055V15.9966H58.8377V10.6644Z" fill="black"/>
<path d="M64.1699 10.6644H58.8377V15.9966H64.1699V10.6644Z" fill="black"/>
<path d="M69.502 10.6644H64.1699V15.9966H69.502V10.6644Z" fill="black"/>
<path d="M74.8342 10.6644H69.502V15.9966H74.8342V10.6644Z" fill="black"/>
<path d="M85.4986 10.6644H80.1664V15.9966H85.4986V10.6644Z" fill="black"/>
<path d="M90.8308 10.6644H85.4986V15.9966H90.8308V10.6644Z" fill="black"/>
<path d="M106.827 10.6644H101.495V15.9966H106.827V10.6644Z" fill="black"/>
<path d="M112.16 10.6644H106.827V15.9966H112.16V10.6644Z" fill="black"/>
<path d="M122.824 10.6644H117.492V15.9966H122.824V10.6644Z" fill="black"/>
<path d="M133.488 10.6644H128.156V15.9966H133.488V10.6644Z" fill="black"/>
<path d="M138.82 10.6644H133.488V15.9966H138.82V10.6644Z" fill="black"/>
<path d="M144.153 10.6644H138.82V15.9966H144.153V10.6644Z" fill="black"/>
<path d="M154.817 10.6644H149.485V15.9966H154.817V10.6644Z" fill="black"/>
<path d="M5.51578 15.9966H0.183594V21.3288H5.51578V15.9966Z" fill="black"/>
<path d="M16.1802 15.9966H10.848V21.3288H16.1802V15.9966Z" fill="black"/>
<path d="M21.5123 15.9966H16.1802V21.3288H21.5123V15.9966Z" fill="black"/>
<path d="M26.8445 15.9966H21.5123V21.3288H26.8445V15.9966Z" fill="black"/>
<path d="M37.5089 15.9966H32.1767V21.3288H37.5089V15.9966Z" fill="black"/>
<path d="M48.1733 15.9966H42.8411V21.3288H48.1733V15.9966Z" fill="black"/>
<path d="M53.5055 15.9966H48.1733V21.3288H53.5055V15.9966Z" fill="black"/>
<path d="M58.8377 15.9966H53.5055V21.3288H58.8377V15.9966Z" fill="black"/>
<path d="M64.1699 15.9966H58.8377V21.3288H64.1699V15.9966Z" fill="black"/>
<path d="M74.8342 15.9966H69.502V21.3288H74.8342V15.9966Z" fill="black"/>
<path d="M90.8308 15.9966H85.4986V21.3288H90.8308V15.9966Z" fill="black"/>
<path d="M106.827 15.9966H101.495V21.3288H106.827V15.9966Z" fill="black"/>
<path d="M122.824 15.9966H117.492V21.3288H122.824V15.9966Z" fill="black"/>
<path d="M133.488 15.9966H128.156V21.3288H133.488V15.9966Z" fill="black"/>
<path d="M138.82 15.9966H133.488V21.3288H138.82V15.9966Z" fill="black"/>
<path d="M144.153 15.9966H138.82V21.3288H144.153V15.9966Z" fill="black"/>
<path d="M154.817 15.9966H149.485V21.3288H154.817V15.9966Z" fill="black"/>
<path d="M5.51578 21.3288H0.183594V26.6609H5.51578V21.3288Z" fill="black"/>
<path d="M16.1802 21.3288H10.848V26.6609H16.1802V21.3288Z" fill="black"/>
<path d="M21.5123 21.3288H16.1802V26.6609H21.5123V21.3288Z" fill="black"/>
<path d="M26.8445 21.3288H21.5123V26.6609H26.8445V21.3288Z" fill="black"/>
<path d="M37.5089 21.3288H32.1767V26.6609H37.5089V21.3288Z" fill="black"/>
<path d="M74.8342 21.3288H69.502V26.6609H74.8342V21.3288Z" fill="black"/>
<path d="M80.1664 21.3288H74.8342V26.6609H80.1664V21.3288Z" fill="black"/>
<path d="M85.4986 21.3288H80.1664V26.6609H85.4986V21.3288Z" fill="black"/>
<path d="M96.163 21.3288H90.8308V26.6609H96.163V21.3288Z" fill="black"/>
<path d="M122.824 21.3288H117.492V26.6609H122.824V21.3288Z" fill="black"/>
<path d="M133.488 21.3288H128.156V26.6609H133.488V21.3288Z" fill="black"/>
<path d="M138.82 21.3288H133.488V26.6609H138.82V21.3288Z" fill="black"/>
<path d="M144.153 21.3288H138.82V26.6609H144.153V21.3288Z" fill="black"/>
<path d="M154.817 21.3288H149.485V26.6609H154.817V21.3288Z" fill="black"/>
<path d="M5.51578 26.6609H0.183594V31.9931H5.51578V26.6609Z" fill="black"/>
<path d="M37.5089 26.6609H32.1767V31.9931H37.5089V26.6609Z" fill="black"/>
<path d="M48.1733 26.6609H42.8411V31.9931H48.1733V26.6609Z" fill="black"/>
<path d="M53.5055 26.6609H48.1733V31.9931H53.5055V26.6609Z" fill="black"/>
<path d="M58.8377 26.6609H53.5055V31.9931H58.8377V26.6609Z" fill="black"/>
<path d="M64.1699 26.6609H58.8377V31.9931H64.1699V26.6609Z" fill="black"/>
<path d="M69.502 26.6609H64.1699V31.9931H69.502V26.6609Z" fill="black"/>
<path d="M74.8342 26.6609H69.502V31.9931H74.8342V26.6609Z" fill="black"/>
<path d="M85.4986 26.6609H80.1664V31.9931H85.4986V26.6609Z" fill="black"/>
<path d="M90.8308 26.6609H85.4986V31.9931H90.8308V26.6609Z" fill="black"/>
<path d="M122.824 26.6609H117.492V31.9931H122.824V26.6609Z" fill="black"/>
<path d="M154.817 26.6609H149.485V31.9931H154.817V26.6609Z" fill="black"/>
<path d="M5.51578 31.9931H0.183594V37.3253H5.51578V31.9931Z" fill="black"/>
<path d="M10.848 31.9931H5.51578V37.3253H10.848V31.9931Z" fill="black"/>
<path d="M16.1802 31.9931H10.848V37.3253H16.1802V31.9931Z" fill="black"/>
<path d="M21.5123 31.9931H16.1802V37.3253H21.5123V31.9931Z" fill="black"/>
<path d="M26.8445 31.9931H21.5123V37.3253H26.8445V31.9931Z" fill="black"/>
<path d="M32.1767 31.9931H26.8445V37.3253H32.1767V31.9931Z" fill="black"/>
<path d="M37.5089 31.9931H32.1767V37.3253H37.5089V31.9931Z" fill="black"/>
<path d="M48.1733 31.9931H42.8411V37.3253H48.1733V31.9931Z" fill="black"/>
<path d="M58.8377 31.9931H53.5055V37.3253H58.8377V31.9931Z" fill="black"/>
<path d="M69.502 31.9931H64.1699V37.3253H69.502V31.9931Z" fill="black"/>
<path d="M80.1664 31.9931H74.8342V37.3253H80.1664V31.9931Z" fill="black"/>
<path d="M90.8308 31.9931H85.4986V37.3253H90.8308V31.9931Z" fill="black"/>
<path d="M101.495 31.9931H96.163V37.3253H101.495V31.9931Z" fill="black"/>
<path d="M112.16 31.9931H106.827V37.3253H112.16V31.9931Z" fill="black"/>
<path d="M122.824 31.9931H117.492V37.3253H122.824V31.9931Z" fill="black"/>
<path d="M128.156 31.9931H122.824V37.3253H128.156V31.9931Z" fill="black"/>
<path d="M133.488 31.9931H128.156V37.3253H133.488V31.9931Z" fill="black"/>
<path d="M138.82 31.9931H133.488V37.3253H138.82V31.9931Z" fill="black"/>
<path d="M144.153 31.9931H138.82V37.3253H144.153V31.9931Z" fill="black"/>
<path d="M149.485 31.9931H144.153V37.3253H149.485V31.9931Z" fill="black"/>
<path d="M154.817 31.9931H149.485V37.3253H154.817V31.9931Z" fill="black"/>
<path d="M53.5055 37.3253H48.1733V42.6575H53.5055V37.3253Z" fill="black"/>
<path d="M80.1664 37.3253H74.8342V42.6575H80.1664V37.3253Z" fill="black"/>
<path d="M96.163 37.3253H90.8308V42.6575H96.163V37.3253Z" fill="black"/>
<path d="M101.495 37.3253H96.163V42.6575H101.495V37.3253Z" fill="black"/>
<path d="M106.827 37.3253H101.495V42.6575H106.827V37.3253Z" fill="black"/>
<path d="M112.16 37.3253H106.827V42.6575H112.16V37.3253Z" fill="black"/>
<path d="M32.1767 42.6575H26.8445V47.9897H32.1767V42.6575Z" fill="black"/>
<path d="M37.5089 42.6575H32.1767V47.9897H37.5089V42.6575Z" fill="black"/>
<path d="M48.1733 42.6575H42.8411V47.9897H48.1733V42.6575Z" fill="black"/>
<path d="M53.5055 42.6575H48.1733V47.9897H53.5055V42.6575Z" fill="black"/>
<path d="M64.1699 42.6575H58.8377V47.9897H64.1699V42.6575Z" fill="black"/>
<path d="M69.502 42.6575H64.1699V47.9897H69.502V42.6575Z" fill="black"/>
<path d="M80.1664 42.6575H74.8342V47.9897H80.1664V42.6575Z" fill="black"/>
<path d="M85.4986 42.6575H80.1664V47.9897H85.4986V42.6575Z" fill="black"/>
<path d="M90.8308 42.6575H85.4986V47.9897H90.8308V42.6575Z" fill="black"/>
<path d="M96.163 42.6575H90.8308V47.9897H96.163V42.6575Z" fill="black"/>
<path d="M117.492 42.6575H112.16V47.9897H117.492V42.6575Z" fill="black"/>
<path d="M128.156 42.6575H122.824V47.9897H128.156V42.6575Z" fill="black"/>
<path d="M138.82 42.6575H133.488V47.9897H138.82V42.6575Z" fill="black"/>
<path d="M154.817 42.6575H149.485V47.9897H154.817V42.6575Z" fill="black"/>
<path d="M5.51578 47.9897H0.183594V53.3219H5.51578V47.9897Z" fill="black"/>
<path d="M21.5123 47.9897H16.1802V53.3219H21.5123V47.9897Z" fill="black"/>
<path d="M42.8411 47.9897H37.5089V53.3219H42.8411V47.9897Z" fill="black"/>
<path d="M48.1733 47.9897H42.8411V53.3219H48.1733V47.9897Z" fill="black"/>
<path d="M53.5055 47.9897H48.1733V53.3219H53.5055V47.9897Z" fill="black"/>
<path d="M85.4986 47.9897H80.1664V53.3219H85.4986V47.9897Z" fill="black"/>
<path d="M96.163 47.9897H90.8308V53.3219H96.163V47.9897Z" fill="black"/>
<path d="M106.827 47.9897H101.495V53.3219H106.827V47.9897Z" fill="black"/>
<path d="M117.492 47.9897H112.16V53.3219H117.492V47.9897Z" fill="black"/>
<path d="M5.51578 53.3219H0.183594V58.6541H5.51578V53.3219Z" fill="black"/>
<path d="M21.5123 53.3219H16.1802V58.6541H21.5123V53.3219Z" fill="black"/>
<path d="M26.8445 53.3219H21.5123V58.6541H26.8445V53.3219Z" fill="black"/>
<path d="M37.5089 53.3219H32.1767V58.6541H37.5089V53.3219Z" fill="black"/>
<path d="M42.8411 53.3219H37.5089V58.6541H42.8411V53.3219Z" fill="black"/>
<path d="M48.1733 53.3219H42.8411V58.6541H48.1733V53.3219Z" fill="black"/>
<path d="M58.8377 53.3219H53.5055V58.6541H58.8377V53.3219Z" fill="black"/>
<path d="M69.502 53.3219H64.1699V58.6541H69.502V53.3219Z" fill="black"/>
<path d="M85.4986 53.3219H80.1664V58.6541H85.4986V53.3219Z" fill="black"/>
<path d="M101.495 53.3219H96.163V58.6541H101.495V53.3219Z" fill="black"/>
<path d="M112.16 53.3219H106.827V58.6541H112.16V53.3219Z" fill="black"/>
<path d="M122.824 53.3219H117.492V58.6541H122.824V53.3219Z" fill="black"/>
<path d="M133.488 53.3219H128.156V58.6541H133.488V53.3219Z" fill="black"/>
<path d="M144.153 53.3219H138.82V58.6541H144.153V53.3219Z" fill="black"/>
<path d="M154.817 53.3219H149.485V58.6541H154.817V53.3219Z" fill="black"/>
<path d="M32.1767 58.6541H26.8445V63.9863H32.1767V58.6541Z" fill="black"/>
<path d="M58.8377 58.6541H53.5055V63.9863H58.8377V58.6541Z" fill="black"/>
<path d="M74.8342 58.6541H69.502V63.9863H74.8342V58.6541Z" fill="black"/>
<path d="M80.1664 58.6541H74.8342V63.9863H80.1664V58.6541Z" fill="black"/>
<path d="M90.8308 58.6541H85.4986V63.9863H90.8308V58.6541Z" fill="black"/>
<path d="M101.495 58.6541H96.163V63.9863H101.495V58.6541Z" fill="black"/>
<path d="M106.827 58.6541H101.495V63.9863H106.827V58.6541Z" fill="black"/>
<path d="M112.16 58.6541H106.827V63.9863H112.16V58.6541Z" fill="black"/>
<path d="M117.492 58.6541H112.16V63.9863H117.492V58.6541Z" fill="black"/>
<path d="M128.156 58.6541H122.824V63.9863H128.156V58.6541Z" fill="black"/>
<path d="M133.488 58.6541H128.156V63.9863H133.488V58.6541Z" fill="black"/>
<path d="M16.1802 63.9863H10.848V69.3184H16.1802V63.9863Z" fill="black"/>
<path d="M37.5089 63.9863H32.1767V69.3184H37.5089V63.9863Z" fill="black"/>
<path d="M48.1733 63.9863H42.8411V69.3184H48.1733V63.9863Z" fill="black"/>
<path d="M53.5055 63.9863H48.1733V69.3184H53.5055V63.9863Z" fill="black"/>
<path d="M58.8377 63.9863H53.5055V69.3184H58.8377V63.9863Z" fill="black"/>
<path d="M64.1699 63.9863H58.8377V69.3184H64.1699V63.9863Z" fill="black"/>
<path d="M69.502 63.9863H64.1699V69.3184H69.502V63.9863Z" fill="black"/>
<path d="M80.1664 63.9863H74.8342V69.3184H80.1664V63.9863Z" fill="black"/>
<path d="M85.4986 63.9863H80.1664V69.3184H85.4986V63.9863Z" fill="black"/>
<path d="M101.495 63.9863H96.163V69.3184H101.495V63.9863Z" fill="black"/>
<path d="M106.827 63.9863H101.495V69.3184H106.827V63.9863Z" fill="black"/>
<path d="M122.824 63.9863H117.492V69.3184H122.824V63.9863Z" fill="black"/>
<path d="M133.488 63.9863H128.156V69.3184H133.488V63.9863Z" fill="black"/>
<path d="M144.153 63.9863H138.82V69.3184H144.153V63.9863Z" fill="black"/>
<path d="M154.817 63.9863H149.485V69.3184H154.817V63.9863Z" fill="black"/>
<path d="M5.51578 69.3184H0.183594V74.6506H5.51578V69.3184Z" fill="black"/>
<path d="M10.848 69.3184H5.51578V74.6506H10.848V69.3184Z" fill="black"/>
<path d="M16.1802 69.3184H10.848V74.6506H16.1802V69.3184Z" fill="black"/>
<path d="M21.5123 69.3184H16.1802V74.6506H21.5123V69.3184Z" fill="black"/>
<path d="M26.8445 69.3184H21.5123V74.6506H26.8445V69.3184Z" fill="black"/>
<path d="M32.1767 69.3184H26.8445V74.6506H32.1767V69.3184Z" fill="black"/>
<path d="M85.4986 69.3184H80.1664V74.6506H85.4986V69.3184Z" fill="black"/>
<path d="M90.8308 69.3184H85.4986V74.6506H90.8308V69.3184Z" fill="black"/>
<path d="M101.495 69.3184H96.163V74.6506H101.495V69.3184Z" fill="black"/>
<path d="M106.827 69.3184H101.495V74.6506H106.827V69.3184Z" fill="black"/>
<path d="M117.492 69.3184H112.16V74.6506H117.492V69.3184Z" fill="black"/>
<path d="M122.824 69.3184H117.492V74.6506H122.824V69.3184Z" fill="black"/>
<path d="M128.156 69.3184H122.824V74.6506H128.156V69.3184Z" fill="black"/>
<path d="M149.485 69.3184H144.153V74.6506H149.485V69.3184Z" fill="black"/>
<path d="M154.817 69.3184H149.485V74.6506H154.817V69.3184Z" fill="black"/>
<path d="M10.848 74.6506H5.51578V79.9828H10.848V74.6506Z" fill="black"/>
<path d="M21.5123 74.6506H16.1802V79.9828H21.5123V74.6506Z" fill="black"/>
<path d="M26.8445 74.6506H21.5123V79.9828H26.8445V74.6506Z" fill="black"/>
<path d="M32.1767 74.6506H26.8445V79.9828H32.1767V74.6506Z" fill="black"/>
<path d="M37.5089 74.6506H32.1767V79.9828H37.5089V74.6506Z" fill="black"/>
<path d="M42.8411 74.6506H37.5089V79.9828H42.8411V74.6506Z" fill="black"/>
<path d="M53.5055 74.6506H48.1733V79.9828H53.5055V74.6506Z" fill="black"/>
<path d="M64.1699 74.6506H58.8377V79.9828H64.1699V74.6506Z" fill="black"/>
<path d="M85.4986 74.6506H80.1664V79.9828H85.4986V74.6506Z" fill="black"/>
<path d="M90.8308 74.6506H85.4986V79.9828H90.8308V74.6506Z" fill="black"/>
<path d="M112.16 74.6506H106.827V79.9828H112.16V74.6506Z" fill="black"/>
<path d="M122.824 74.6506H117.492V79.9828H122.824V74.6506Z" fill="black"/>
<path d="M133.488 74.6506H128.156V79.9828H133.488V74.6506Z" fill="black"/>
<path d="M138.82 74.6506H133.488V79.9828H138.82V74.6506Z" fill="black"/>
<path d="M154.817 74.6506H149.485V79.9828H154.817V74.6506Z" fill="black"/>
<path d="M10.848 79.9828H5.51578V85.315H10.848V79.9828Z" fill="black"/>
<path d="M21.5123 79.9828H16.1802V85.315H21.5123V79.9828Z" fill="black"/>
<path d="M48.1733 79.9828H42.8411V85.315H48.1733V79.9828Z" fill="black"/>
<path d="M53.5055 79.9828H48.1733V85.315H53.5055V79.9828Z" fill="black"/>
<path d="M64.1699 79.9828H58.8377V85.315H64.1699V79.9828Z" fill="black"/>
<path d="M74.8342 79.9828H69.502V85.315H74.8342V79.9828Z" fill="black"/>
<path d="M80.1664 79.9828H74.8342V85.315H80.1664V79.9828Z" fill="black"/>
<path d="M90.8308 79.9828H85.4986V85.315H90.8308V79.9828Z" fill="black"/>
<path d="M96.163 79.9828H90.8308V85.315H96.163V79.9828Z" fill="black"/>
<path d="M106.827 79.9828H101.495V85.315H106.827V79.9828Z" fill="black"/>
<path d="M117.492 79.9828H112.16V85.315H117.492V79.9828Z" fill="black"/>
<path d="M122.824 79.9828H117.492V85.315H122.824V79.9828Z" fill="black"/>
<path d="M133.488 79.9828H128.156V85.315H133.488V79.9828Z" fill="black"/>
<path d="M138.82 79.9828H133.488V85.315H138.82V79.9828Z" fill="black"/>
<path d="M149.485 79.9828H144.153V85.315H149.485V79.9828Z" fill="black"/>
<path d="M5.51578 85.315H0.183594V90.6472H5.51578V85.315Z" fill="black"/>
<path d="M16.1802 85.315H10.848V90.6472H16.1802V85.315Z" fill="black"/>
<path d="M26.8445 85.315H21.5123V90.6472H26.8445V85.315Z" fill="black"/>
<path d="M37.5089 85.315H32.1767V90.6472H37.5089V85.315Z" fill="black"/>
<path d="M58.8377 85.315H53.5055V90.6472H58.8377V85.315Z" fill="black"/>
<path d="M69.502 85.315H64.1699V90.6472H69.502V85.315Z" fill="black"/>
<path d="M80.1664 85.315H74.8342V90.6472H80.1664V85.315Z" fill="black"/>
<path d="M85.4986 85.315H80.1664V90.6472H85.4986V85.315Z" fill="black"/>
<path d="M90.8308 85.315H85.4986V90.6472H90.8308V85.315Z" fill="black"/>
<path d="M106.827 85.315H101.495V90.6472H106.827V85.315Z" fill="black"/>
<path d="M112.16 85.315H106.827V90.6472H112.16V85.315Z" fill="black"/>
<path d="M117.492 85.315H112.16V90.6472H117.492V85.315Z" fill="black"/>
<path d="M128.156 85.315H122.824V90.6472H128.156V85.315Z" fill="black"/>
<path d="M138.82 85.315H133.488V90.6472H138.82V85.315Z" fill="black"/>
<path d="M10.848 90.6472H5.51578V95.9794H10.848V90.6472Z" fill="black"/>
<path d="M16.1802 90.6472H10.848V95.9794H16.1802V90.6472Z" fill="black"/>
<path d="M42.8411 90.6472H37.5089V95.9794H42.8411V90.6472Z" fill="black"/>
<path d="M58.8377 90.6472H53.5055V95.9794H58.8377V90.6472Z" fill="black"/>
<path d="M69.502 90.6472H64.1699V95.9794H69.502V90.6472Z" fill="black"/>
<path d="M74.8342 90.6472H69.502V95.9794H74.8342V90.6472Z" fill="black"/>
<path d="M85.4986 90.6472H80.1664V95.9794H85.4986V90.6472Z" fill="black"/>
<path d="M90.8308 90.6472H85.4986V95.9794H90.8308V90.6472Z" fill="black"/>
<path d="M101.495 90.6472H96.163V95.9794H101.495V90.6472Z" fill="black"/>
<path d="M106.827 90.6472H101.495V95.9794H106.827V90.6472Z" fill="black"/>
<path d="M122.824 90.6472H117.492V95.9794H122.824V90.6472Z" fill="black"/>
<path d="M5.51578 95.9794H0.183594V101.312H5.51578V95.9794Z" fill="black"/>
<path d="M10.848 95.9794H5.51578V101.312H10.848V95.9794Z" fill="black"/>
<path d="M16.1802 95.9794H10.848V101.312H16.1802V95.9794Z" fill="black"/>
<path d="M21.5123 95.9794H16.1802V101.312H21.5123V95.9794Z" fill="black"/>
<path d="M26.8445 95.9794H21.5123V101.312H26.8445V95.9794Z" fill="black"/>
<path d="M37.5089 95.9794H32.1767V101.312H37.5089V95.9794Z" fill="black"/>
<path d="M42.8411 95.9794H37.5089V101.312H42.8411V95.9794Z" fill="black"/>
<path d="M48.1733 95.9794H42.8411V101.312H48.1733V95.9794Z" fill="black"/>
<path d="M74.8342 95.9794H69.502V101.312H74.8342V95.9794Z" fill="black"/>
<path d="M85.4986 95.9794H80.1664V101.312H85.4986V95.9794Z" fill="black"/>
<path d="M96.163 95.9794H90.8308V101.312H96.163V95.9794Z" fill="black"/>
<path d="M101.495 95.9794H96.163V101.312H101.495V95.9794Z" fill="black"/>
<path d="M106.827 95.9794H101.495V101.312H106.827V95.9794Z" fill="black"/>
<path d="M112.16 95.9794H106.827V101.312H112.16V95.9794Z" fill="black"/>
<path d="M128.156 95.9794H122.824V101.312H128.156V95.9794Z" fill="black"/>
<path d="M133.488 95.9794H128.156V101.312H133.488V95.9794Z" fill="black"/>
<path d="M5.51578 101.312H0.183594V106.644H5.51578V101.312Z" fill="black"/>
<path d="M32.1767 101.312H26.8445V106.644H32.1767V101.312Z" fill="black"/>
<path d="M48.1733 101.312H42.8411V106.644H48.1733V101.312Z" fill="black"/>
<path d="M58.8377 101.312H53.5055V106.644H58.8377V101.312Z" fill="black"/>
<path d="M64.1699 101.312H58.8377V106.644H64.1699V101.312Z" fill="black"/>
<path d="M74.8342 101.312H69.502V106.644H74.8342V101.312Z" fill="black"/>
<path d="M106.827 101.312H101.495V106.644H106.827V101.312Z" fill="black"/>
<path d="M138.82 101.312H133.488V106.644H138.82V101.312Z" fill="black"/>
<path d="M144.153 101.312H138.82V106.644H144.153V101.312Z" fill="black"/>
<path d="M149.485 101.312H144.153V106.644H149.485V101.312Z" fill="black"/>
<path d="M16.1802 106.644H10.848V111.976H16.1802V106.644Z" fill="black"/>
<path d="M37.5089 106.644H32.1767V111.976H37.5089V106.644Z" fill="black"/>
<path d="M53.5055 106.644H48.1733V111.976H53.5055V106.644Z" fill="black"/>
<path d="M58.8377 106.644H53.5055V111.976H58.8377V106.644Z" fill="black"/>
<path d="M74.8342 106.644H69.502V111.976H74.8342V106.644Z" fill="black"/>
<path d="M85.4986 106.644H80.1664V111.976H85.4986V106.644Z" fill="black"/>
<path d="M90.8308 106.644H85.4986V111.976H90.8308V106.644Z" fill="black"/>
<path d="M96.163 106.644H90.8308V111.976H96.163V106.644Z" fill="black"/>
<path d="M112.16 106.644H106.827V111.976H112.16V106.644Z" fill="black"/>
<path d="M117.492 106.644H112.16V111.976H117.492V106.644Z" fill="black"/>
<path d="M122.824 106.644H117.492V111.976H122.824V106.644Z" fill="black"/>
<path d="M128.156 106.644H122.824V111.976H128.156V106.644Z" fill="black"/>
<path d="M133.488 106.644H128.156V111.976H133.488V106.644Z" fill="black"/>
<path d="M149.485 106.644H144.153V111.976H149.485V106.644Z" fill="black"/>
<path d="M154.817 106.644H149.485V111.976H154.817V106.644Z" fill="black"/>
<path d="M48.1733 111.976H42.8411V117.308H48.1733V111.976Z" fill="black"/>
<path d="M69.502 111.976H64.1699V117.308H69.502V111.976Z" fill="black"/>
<path d="M80.1664 111.976H74.8342V117.308H80.1664V111.976Z" fill="black"/>
<path d="M85.4986 111.976H80.1664V117.308H85.4986V111.976Z" fill="black"/>
<path d="M90.8308 111.976H85.4986V117.308H90.8308V111.976Z" fill="black"/>
<path d="M96.163 111.976H90.8308V117.308H96.163V111.976Z" fill="black"/>
<path d="M101.495 111.976H96.163V117.308H101.495V111.976Z" fill="black"/>
<path d="M112.16 111.976H106.827V117.308H112.16V111.976Z" fill="black"/>
<path d="M133.488 111.976H128.156V117.308H133.488V111.976Z" fill="black"/>
<path d="M144.153 111.976H138.82V117.308H144.153V111.976Z" fill="black"/>
<path d="M149.485 111.976H144.153V117.308H149.485V111.976Z" fill="black"/>
<path d="M5.51578 117.308H0.183594V122.64H5.51578V117.308Z" fill="black"/>
<path d="M10.848 117.308H5.51578V122.64H10.848V117.308Z" fill="black"/>
<path d="M16.1802 117.308H10.848V122.64H16.1802V117.308Z" fill="black"/>
<path d="M21.5123 117.308H16.1802V122.64H21.5123V117.308Z" fill="black"/>
<path d="M26.8445 117.308H21.5123V122.64H26.8445V117.308Z" fill="black"/>
<path d="M32.1767 117.308H26.8445V122.64H32.1767V117.308Z" fill="black"/>
<path d="M37.5089 117.308H32.1767V122.64H37.5089V117.308Z" fill="black"/>
<path d="M53.5055 117.308H48.1733V122.64H53.5055V117.308Z" fill="black"/>
<path d="M64.1699 117.308H58.8377V122.64H64.1699V117.308Z" fill="black"/>
<path d="M69.502 117.308H64.1699V122.64H69.502V117.308Z" fill="black"/>
<path d="M80.1664 117.308H74.8342V122.64H80.1664V117.308Z" fill="black"/>
<path d="M96.163 117.308H90.8308V122.64H96.163V117.308Z" fill="black"/>
<path d="M112.16 117.308H106.827V122.64H112.16V117.308Z" fill="black"/>
<path d="M122.824 117.308H117.492V122.64H122.824V117.308Z" fill="black"/>
<path d="M133.488 117.308H128.156V122.64H133.488V117.308Z" fill="black"/>
<path d="M138.82 117.308H133.488V122.64H138.82V117.308Z" fill="black"/>
<path d="M154.817 117.308H149.485V122.64H154.817V117.308Z" fill="black"/>
<path d="M5.51578 122.64H0.183594V127.973H5.51578V122.64Z" fill="black"/>
<path d="M37.5089 122.64H32.1767V127.973H37.5089V122.64Z" fill="black"/>
<path d="M48.1733 122.64H42.8411V127.973H48.1733V122.64Z" fill="black"/>
<path d="M58.8377 122.64H53.5055V127.973H58.8377V122.64Z" fill="black"/>
<path d="M64.1699 122.64H58.8377V127.973H64.1699V122.64Z" fill="black"/>
<path d="M74.8342 122.64H69.502V127.973H74.8342V122.64Z" fill="black"/>
<path d="M96.163 122.64H90.8308V127.973H96.163V122.64Z" fill="black"/>
<path d="M101.495 122.64H96.163V127.973H101.495V122.64Z" fill="black"/>
<path d="M106.827 122.64H101.495V127.973H106.827V122.64Z" fill="black"/>
<path d="M112.16 122.64H106.827V127.973H112.16V122.64Z" fill="black"/>
<path d="M133.488 122.64H128.156V127.973H133.488V122.64Z" fill="black"/>
<path d="M138.82 122.64H133.488V127.973H138.82V122.64Z" fill="black"/>
<path d="M149.485 122.64H144.153V127.973H149.485V122.64Z" fill="black"/>
<path d="M5.51578 127.973H0.183594V133.305H5.51578V127.973Z" fill="black"/>
<path d="M16.1802 127.973H10.848V133.305H16.1802V127.973Z" fill="black"/>
<path d="M21.5123 127.973H16.1802V133.305H21.5123V127.973Z" fill="black"/>
<path d="M26.8445 127.973H21.5123V133.305H26.8445V127.973Z" fill="black"/>
<path d="M37.5089 127.973H32.1767V133.305H37.5089V127.973Z" fill="black"/>
<path d="M58.8377 127.973H53.5055V133.305H58.8377V127.973Z" fill="black"/>
<path d="M64.1699 127.973H58.8377V133.305H64.1699V127.973Z" fill="black"/>
<path d="M80.1664 127.973H74.8342V133.305H80.1664V127.973Z" fill="black"/>
<path d="M85.4986 127.973H80.1664V133.305H85.4986V127.973Z" fill="black"/>
<path d="M101.495 127.973H96.163V133.305H101.495V127.973Z" fill="black"/>
<path d="M106.827 127.973H101.495V133.305H106.827V127.973Z" fill="black"/>
<path d="M112.16 127.973H106.827V133.305H112.16V127.973Z" fill="black"/>
<path d="M117.492 127.973H112.16V133.305H117.492V127.973Z" fill="black"/>
<path d="M122.824 127.973H117.492V133.305H122.824V127.973Z" fill="black"/>
<path d="M128.156 127.973H122.824V133.305H128.156V127.973Z" fill="black"/>
<path d="M133.488 127.973H128.156V133.305H133.488V127.973Z" fill="black"/>
<path d="M138.82 127.973H133.488V133.305H138.82V127.973Z" fill="black"/>
<path d="M144.153 127.973H138.82V133.305H144.153V127.973Z" fill="black"/>
<path d="M149.485 127.973H144.153V133.305H149.485V127.973Z" fill="black"/>
<path d="M154.817 127.973H149.485V133.305H154.817V127.973Z" fill="black"/>
<path d="M5.51578 133.305H0.183594V138.637H5.51578V133.305Z" fill="black"/>
<path d="M16.1802 133.305H10.848V138.637H16.1802V133.305Z" fill="black"/>
<path d="M21.5123 133.305H16.1802V138.637H21.5123V133.305Z" fill="black"/>
<path d="M26.8445 133.305H21.5123V138.637H26.8445V133.305Z" fill="black"/>
<path d="M37.5089 133.305H32.1767V138.637H37.5089V133.305Z" fill="black"/>
<path d="M53.5055 133.305H48.1733V138.637H53.5055V133.305Z" fill="black"/>
<path d="M58.8377 133.305H53.5055V138.637H58.8377V133.305Z" fill="black"/>
<path d="M64.1699 133.305H58.8377V138.637H64.1699V133.305Z" fill="black"/>
<path d="M69.502 133.305H64.1699V138.637H69.502V133.305Z" fill="black"/>
<path d="M85.4986 133.305H80.1664V138.637H85.4986V133.305Z" fill="black"/>
<path d="M90.8308 133.305H85.4986V138.637H90.8308V133.305Z" fill="black"/>
<path d="M101.495 133.305H96.163V138.637H101.495V133.305Z" fill="black"/>
<path d="M133.488 133.305H128.156V138.637H133.488V133.305Z" fill="black"/>
<path d="M138.82 133.305H133.488V138.637H138.82V133.305Z" fill="black"/>
<path d="M5.51578 138.637H0.183594V143.969H5.51578V138.637Z" fill="black"/>
<path d="M16.1802 138.637H10.848V143.969H16.1802V138.637Z" fill="black"/>
<path d="M21.5123 138.637H16.1802V143.969H21.5123V138.637Z" fill="black"/>
<path d="M26.8445 138.637H21.5123V143.969H26.8445V138.637Z" fill="black"/>
<path d="M37.5089 138.637H32.1767V143.969H37.5089V138.637Z" fill="black"/>
<path d="M58.8377 138.637H53.5055V143.969H58.8377V138.637Z" fill="black"/>
<path d="M64.1699 138.637H58.8377V143.969H64.1699V138.637Z" fill="black"/>
<path d="M74.8342 138.637H69.502V143.969H74.8342V138.637Z" fill="black"/>
<path d="M80.1664 138.637H74.8342V143.969H80.1664V138.637Z" fill="black"/>
<path d="M112.16 138.637H106.827V143.969H112.16V138.637Z" fill="black"/>
<path d="M117.492 138.637H112.16V143.969H117.492V138.637Z" fill="black"/>
<path d="M128.156 138.637H122.824V143.969H128.156V138.637Z" fill="black"/>
<path d="M5.51578 143.969H0.183594V149.301H5.51578V143.969Z" fill="black"/>
<path d="M37.5089 143.969H32.1767V149.301H37.5089V143.969Z" fill="black"/>
<path d="M58.8377 143.969H53.5055V149.301H58.8377V143.969Z" fill="black"/>
<path d="M64.1699 143.969H58.8377V149.301H64.1699V143.969Z" fill="black"/>
<path d="M69.502 143.969H64.1699V149.301H69.502V143.969Z" fill="black"/>
<path d="M80.1664 143.969H74.8342V149.301H80.1664V143.969Z" fill="black"/>
<path d="M85.4986 143.969H80.1664V149.301H85.4986V143.969Z" fill="black"/>
<path d="M90.8308 143.969H85.4986V149.301H90.8308V143.969Z" fill="black"/>
<path d="M101.495 143.969H96.163V149.301H101.495V143.969Z" fill="black"/>
<path d="M106.827 143.969H101.495V149.301H106.827V143.969Z" fill="black"/>
<path d="M117.492 143.969H112.16V149.301H117.492V143.969Z" fill="black"/>
<path d="M122.824 143.969H117.492V149.301H122.824V143.969Z" fill="black"/>
<path d="M128.156 143.969H122.824V149.301H128.156V143.969Z" fill="black"/>
<path d="M133.488 143.969H128.156V149.301H133.488V143.969Z" fill="black"/>
<path d="M149.485 143.969H144.153V149.301H149.485V143.969Z" fill="black"/>
<path d="M154.817 143.969H149.485V149.301H154.817V143.969Z" fill="black"/>
<path d="M5.51578 149.301H0.183594V154.633H5.51578V149.301Z" fill="black"/>
<path d="M10.848 149.301H5.51578V154.633H10.848V149.301Z" fill="black"/>
<path d="M16.1802 149.301H10.848V154.633H16.1802V149.301Z" fill="black"/>
<path d="M21.5123 149.301H16.1802V154.633H21.5123V149.301Z" fill="black"/>
<path d="M26.8445 149.301H21.5123V154.633H26.8445V149.301Z" fill="black"/>
<path d="M32.1767 149.301H26.8445V154.633H32.1767V149.301Z" fill="black"/>
<path d="M37.5089 149.301H32.1767V154.633H37.5089V149.301Z" fill="black"/>
<path d="M53.5055 149.301H48.1733V154.633H53.5055V149.301Z" fill="black"/>
<path d="M69.502 149.301H64.1699V154.633H69.502V149.301Z" fill="black"/>
<path d="M80.1664 149.301H74.8342V154.633H80.1664V149.301Z" fill="black"/>
<path d="M96.163 149.301H90.8308V154.633H96.163V149.301Z" fill="black"/>
<path d="M101.495 149.301H96.163V154.633H101.495V149.301Z" fill="black"/>
<path d="M106.827 149.301H101.495V154.633H106.827V149.301Z" fill="black"/>
<path d="M117.492 149.301H112.16V154.633H117.492V149.301Z" fill="black"/>
<path d="M138.82 149.301H133.488V154.633H138.82V149.301Z" fill="black"/>
<path d="M144.153 149.301H138.82V154.633H144.153V149.301Z" fill="black"/>
</g>
</g>
</g>
</g>
</g>
<defs>
<filter id="filter0_f_0_1" x="-799.591" y="-1340.59" width="2801.19" height="1461.16" filterUnits="userSpaceOnUse" color-interpolation-filters="sRGB">
<feFlood flood-opacity="0" result="BackgroundImageFix"/>
<feBlend mode="normal" in="SourceGraphic" in2="BackgroundImageFix" result="shape"/>
<feGaussianBlur stdDeviation="141.795" result="effect1_foregroundBlur_0_1"/>
</filter>
<filter id="filter1_f_0_1" x="-799.591" y="-320.591" width="2801.18" height="1652.18" filterUnits="userSpaceOnUse" color-interpolation-filters="sRGB">
<feFlood flood-opacity="0" result="BackgroundImageFix"/>
<feBlend mode="normal" in="SourceGraphic" in2="BackgroundImageFix" result="shape"/>
<feGaussianBlur stdDeviation="141.795" result="effect1_foregroundBlur_0_1"/>
</filter>
<filter id="filter2_b_0_1" x="-123" y="-184" width="401" height="619" filterUnits="userSpaceOnUse" color-interpolation-filters="sRGB">
<feFlood flood-opacity="0" result="BackgroundImageFix"/>
<feGaussianBlur in="BackgroundImageFix" stdDeviation="10"/>
<feComposite in2="SourceAlpha" operator="in" result="effect1_backgroundBlur_0_1"/>
<feBlend mode="normal" in="SourceGraphic" in2="effect1_backgroundBlur_0_1" result="shape"/>
</filter>
<clipPath id="clip0_0_1">
<rect width="393" height="852" fill="white" transform="translate(-119 -322)"/>
</clipPath>
</defs>
</svg>
